<?xml version="1.0" standalone="no"?>
<!DOCTYPE svg PUBLIC "-//W3C//DTD SVG 20010904//EN"
 "http://www.w3.org/TR/2001/REC-SVG-20010904/DTD/svg10.dtd">
<svg version="1.0" xmlns="http://www.w3.org/2000/svg"
 width="675.000000pt" height="667.000000pt" viewBox="0 0 675.000000 667.000000"
 preserveAspectRatio="xMidYMid meet">
<metadata>
Created by potrace 1.16, written by Peter Selinger 2001-2019
</metadata>
<g transform="translate(0.000000,667.000000) scale(0.100000,-0.100000)"
fill="#000000" stroke="none">
<path d="M1780 6651 c-109 -35 -220 -122 -275 -215 -94 -161 -93 -382 4 -526
101 -150 249 -232 421 -233 47 0 104 5 128 12 l43 12 149 -153 c81 -84 150
-151 152 -148 3 3 -28 93 -68 200 l-72 195 44 48 c59 62 111 173 123 262 34
239 -120 482 -348 549 -74 22 -229 20 -301 -3z m121 -261 c18 0 19 -8 19 -120
l0 -120 25 0 25 0 0 120 c0 99 3 120 15 120 8 0 17 11 21 25 3 14 10 25 14 25
4 0 11 -11 14 -25 6 -25 8 -25 109 -25 67 0 107 -4 115 -12 7 -7 12 -41 12
-84 0 -72 0 -73 -37 -103 -44 -36 -126 -69 -192 -78 -25 -3 -56 -12 -68 -19
-28 -18 -47 -18 -62 0 -6 7 -35 16 -64 19 -70 7 -154 40 -199 78 -38 30 -38
31 -38 103 0 43 5 77 12 84 8 8 48 12 113 12 99 0 102 1 115 26 l14 26 9 -26
c5 -16 16 -26 28 -26z"/>
<path d="M4706 6639 c-186 -44 -346 -218 -378 -414 -22 -133 24 -292 117 -401
25 -29 45 -58 45 -66 -1 -7 -32 -94 -69 -193 -38 -99 -67 -182 -65 -185 3 -2
73 64 157 146 l152 150 45 -12 c155 -43 347 13 471 137 70 70 115 158 136 269
16 78 16 89 0 164 -9 44 -31 110 -48 146 -60 121 -196 229 -329 259 -54 13
-180 12 -234 0z m276 -270 l148 -112 -2 -191 -3 -191 -295 0 -295 0 -3 190 -2
190 147 112 c82 62 150 113 152 113 2 0 71 -50 153 -111z"/>
<path d="M3120 5583 c-278 -30 -599 -129 -836 -258 -168 -92 -408 -266 -491
-357 l-23 -24 187 -186 186 -187 56 51 c271 248 671 417 1029 435 l112 6 0
263 0 264 -92 -2 c-51 0 -109 -3 -128 -5z"/>
<path d="M3390 5325 l0 -265 74 0 c107 0 304 -36 441 -81 221 -73 418 -183
596 -334 l86 -73 182 182 c99 99 181 186 181 192 0 12 -93 95 -190 171 -268
208 -591 358 -921 428 -116 25 -276 45 -366 45 l-83 0 0 -265z"/>
<path d="M371 5124 c-142 -38 -261 -136 -327 -268 -37 -76 -39 -85 -43 -192
-4 -130 11 -197 65 -286 89 -147 253 -238 429 -238 140 0 250 46 351 145 l62
61 68 -13 c173 -31 309 -57 312 -58 2 -2 -13 -40 -31 -86 -102 -248 -152 -468
-173 -756 l-6 -93 265 0 265 0 7 93 c26 349 157 688 370 962 35 44 74 91 89
104 14 14 26 29 26 35 0 6 -83 94 -184 195 l-183 183 -44 -47 c-127 -138 -247
-306 -335 -471 -26 -49 -49 -91 -50 -93 -2 -2 -52 30 -111 70 -59 40 -132 89
-161 108 -49 32 -52 36 -46 65 12 55 7 171 -11 232 -74 257 -350 416 -604 348z
m213 -158 c21 -13 49 -40 62 -61 18 -30 29 -38 55 -40 35 -3 69 -35 69 -64 0
-9 14 -24 30 -33 57 -32 67 -109 21 -160 l-29 -33 -134 -3 -133 -3 3 -49 c3
-35 8 -49 21 -53 13 -3 16 -13 13 -46 l-4 -41 -72 0 -72 0 -2 45 c-1 39 1 45
18 45 17 0 20 7 20 50 l0 50 -110 0 c-121 0 -152 9 -189 56 -40 51 -22 151 33
188 15 9 26 25 26 36 0 11 13 34 29 52 25 28 36 33 78 33 27 0 59 7 73 16 50
33 66 38 110 39 30 0 58 -8 84 -24z"/>
<path d="M6130 4948 c-75 -29 -150 -105 -179 -183 -30 -77 -26 -188 8 -258 31
-64 93 -124 159 -155 82 -39 194 -38 273 1 144 70 218 232 175 380 -15 53 -18
56 -37 47 -11 -6 -30 -10 -42 -8 -19 3 -15 8 26 37 32 22 45 37 39 43 -7 7
-23 1 -48 -16 -21 -14 -42 -26 -46 -26 -15 0 -8 27 13 45 l20 19 -23 19 c-13
10 -50 32 -83 48 -76 37 -170 39 -255 7z m227 -93 c28 -14 58 -34 67 -44 17
-18 15 -20 -28 -51 l-46 -31 -27 20 c-51 41 -148 20 -178 -39 -26 -51 -20
-105 18 -146 83 -91 228 -21 213 103 -5 39 -3 44 29 69 19 14 41 24 49 21 19
-8 40 -100 31 -144 -15 -83 -66 -147 -145 -182 -109 -49 -239 -1 -294 111 -47
94 -31 194 44 268 73 74 174 91 267 45z"/>
<path d="M5110 3238 c0 -77 -25 -251 -49 -345 -70 -274 -217 -549 -399 -749
l-44 -47 184 -184 c100 -100 186 -183 190 -183 10 0 91 87 155 168 74 92 170
239 228 347 27 50 50 92 52 94 2 3 76 -45 165 -105 88 -60 164 -111 168 -114
4 -3 4 -32 -2 -65 -38 -242 135 -491 383 -550 255 -60 515 89 590 337 17 56
21 88 17 176 -3 99 -6 113 -41 185 -85 180 -254 287 -452 287 -141 0 -250 -44
-352 -144 l-63 -62 -195 37 c-108 20 -198 39 -202 42 -3 4 10 44 30 89 94 222
167 556 167 765 l0 73 -265 0 -265 0 0 -52z m1342 -1005 c61 -60 68 -72 68
-106 l0 -38 29 20 c39 28 65 26 86 -5 22 -34 11 -56 -62 -125 l-53 -50 0 -145
0 -144 -245 0 -245 0 0 330 0 330 177 0 177 0 68 -67z"/>
<path d="M2040 3267 c-76 -39 -53 -147 31 -147 48 0 79 30 79 76 0 60 -59 98
-110 71z"/>
<path d="M4661 3199 c-54 -21 -67 -80 -28 -125 17 -20 33 -27 57 -27 24 0 40
7 57 27 29 34 29 68 1 100 -28 30 -55 38 -87 25z"/>
<path d="M1952 1877 c-100 -100 -182 -185 -182 -189 0 -15 225 -199 323 -265
334 -222 745 -361 1125 -380 l122 -6 0 265 0 265 -112 6 c-253 15 -523 100
-763 242 -88 52 -273 191 -304 228 -7 9 -16 17 -20 17 -3 0 -88 -82 -189 -183z"/>
<path d="M4518 2003 c-284 -251 -658 -408 -1025 -430 l-103 -6 0 -264 0 -263
65 0 c234 0 583 80 827 190 50 23 94 38 98 33 4 -4 35 -84 70 -176 l62 -169
-30 -31 c-129 -137 -174 -326 -119 -500 98 -306 425 -438 720 -290 107 54 217
198 246 323 13 58 13 172 0 230 -63 274 -360 445 -634 365 -16 -5 -49 23 -158
132 l-137 138 62 34 c88 48 241 150 320 214 81 65 168 145 168 155 0 4 -82 89
-183 190 l-183 183 -66 -58z m231 -1281 c48 -35 66 -70 66 -127 0 -117 -113
-187 -214 -133 -53 28 -81 76 -81 137 0 115 139 189 229 123z"/>
<path d="M2210 1115 c-87 -87 -150 -143 -158 -140 -8 3 -45 10 -83 16 -305 47
-586 -215 -566 -526 12 -192 137 -366 314 -436 50 -21 75 -24 189 -24 l131 0
85 42 c176 87 278 252 278 448 0 129 -43 242 -128 336 l-43 48 71 186 c38 102
70 188 70 190 0 16 -31 -11 -160 -140z m-206 -450 c44 -8 107 -28 141 -44 61
-30 185 -136 185 -158 0 -41 -156 -159 -255 -194 -75 -26 -194 -35 -264 -20
-82 18 -170 64 -239 126 -90 82 -91 86 -41 140 78 85 178 137 299 154 79 12
86 12 174 -4z"/>
<path d="M1849 616 c-109 -62 -67 -226 57 -226 81 0 139 78 114 153 -6 19 -21
44 -35 57 -30 28 -100 36 -136 16z"/>
</g>
</svg>
