<?xml version="1.0" encoding="UTF-8"?>
<!DOCTYPE svg PUBLIC "-//W3C//DTD SVG 1.1//EN" "http://www.w3.org/Graphics/SVG/1.1/DTD/svg11.dtd">
<!-- Creator: CorelDRAW -->
<svg xmlns="http://www.w3.org/2000/svg" xml:space="preserve" width="297mm" height="210mm" version="1.1" style="shape-rendering:geometricPrecision; text-rendering:geometricPrecision; image-rendering:optimizeQuality; fill-rule:evenodd; clip-rule:evenodd"
viewBox="0 0 29700 21000"
 xmlns:xlink="http://www.w3.org/1999/xlink"
 xmlns:xodm="http://www.corel.com/coreldraw/odm/2003">
 <defs>
  <style type="text/css">
   <![CDATA[
    .fil39 {fill:#F79533}
    .fil41 {fill:#F69933}
    .fil40 {fill:#F69733}
    .fil28 {fill:#EB268F}
    .fil45 {fill:#F69F33}
    .fil44 {fill:#F69E33}
    .fil43 {fill:#F69C33}
    .fil42 {fill:#F59A33}
    .fil51 {fill:#F6A532}
    .fil50 {fill:#F6A432}
    .fil49 {fill:#F5A332}
    .fil48 {fill:#F5A232}
    .fil47 {fill:#F5A133}
    .fil46 {fill:#F5A033}
    .fil27 {fill:#E9278B}
    .fil58 {fill:#F5A932}
    .fil57 {fill:#F5A932}
    .fil56 {fill:#F5A832}
    .fil55 {fill:#F5A732}
    .fil54 {fill:#F5A732}
    .fil53 {fill:#F5A632}
    .fil52 {fill:#F5A532}
    .fil84 {fill:#FBD926}
    .fil66 {fill:#F5AF31}
    .fil65 {fill:#F5AE31}
    .fil64 {fill:#F5AD31}
    .fil63 {fill:#F5AD32}
    .fil62 {fill:#F5AC32}
    .fil61 {fill:#F5AB32}
    .fil60 {fill:#F5AB32}
    .fil59 {fill:#F5AA32}
    .fil26 {fill:#E62888}
    .fil83 {fill:#F9D428}
    .fil72 {fill:#F5B531}
    .fil71 {fill:#F5B331}
    .fil70 {fill:#F5B231}
    .fil69 {fill:#F5B131}
    .fil68 {fill:#F5B031}
    .fil67 {fill:#F5AF31}
    .fil25 {fill:#E52987}
    .fil82 {fill:#F8D02A}
    .fil81 {fill:#F8CD2B}
    .fil75 {fill:#F5B930}
    .fil74 {fill:#F5B730}
    .fil73 {fill:#F5B531}
    .fil38 {fill:#ED8F35}
    .fil24 {fill:#E52986}
    .fil80 {fill:#F6C72D}
    .fil78 {fill:#F5BE2F}
    .fil77 {fill:#F5BC30}
    .fil76 {fill:#F5BA30}
    .fil23 {fill:#E32984}
    .fil79 {fill:#F5C12F}
    .fil22 {fill:#E22A83}
    .fil21 {fill:#E22A82}
    .fil20 {fill:#E12A81}
    .fil19 {fill:#E12A81}
    .fil18 {fill:#E12A80}
    .fil17 {fill:#E12A80}
    .fil16 {fill:#DF2B7F}
    .fil15 {fill:#DF2B7E}
    .fil14 {fill:#DE2B7E}
    .fil13 {fill:#DE2B7D}
    .fil12 {fill:#DE2B7C}
    .fil11 {fill:#DE2C7C}
    .fil10 {fill:#DD2C7B}
    .fil9 {fill:#DC2C79}
    .fil8 {fill:#DB2C78}
    .fil29 {fill:#DA507A}
    .fil7 {fill:#DA2D76}
    .fil6 {fill:#D82D74}
    .fil85 {fill:#E4CC2D}
    .fil37 {fill:#DD8A37}
    .fil5 {fill:#D62E71}
    .fil30 {fill:#D25D70}
    .fil4 {fill:#D2306B}
    .fil36 {fill:#D78838}
    .fil3 {fill:#D03168}
    .fil2 {fill:#CF3166}
    .fil31 {fill:#CE6468}
    .fil1 {fill:#CD3263}
    .fil35 {fill:#D18638}
    .fil32 {fill:#C86D5E}
    .fil34 {fill:#C88339}
    .fil33 {fill:#BC7A41}
    .fil86 {fill:#B6AA38}
    .fil252 {fill:#B357A0}
    .fil87 {fill:#9D993A}
    .fil251 {fill:#AF539E}
    .fil250 {fill:#AB509D}
    .fil249 {fill:#A94F9C}
    .fil248 {fill:#A84D9C}
    .fil88 {fill:#8E8E3B}
    .fil247 {fill:#A64C9B}
    .fil246 {fill:#A44A9A}
    .fil245 {fill:#A24899}
    .fil89 {fill:#82863B}
    .fil244 {fill:#9E4598}
    .fil201 {fill:#82D2E8}
    .fil243 {fill:#984096}
    .fil90 {fill:#757D3B}
    .fil242 {fill:#933D8F}
    .fil203 {fill:#749AAB}
    .fil200 {fill:#78CFE4}
    .fil241 {fill:#8F3C8A}
    .fil240 {fill:#8D3B86}
    .fil239 {fill:#8A3A83}
    .fil238 {fill:#883981}
    .fil199 {fill:#73CDE2}
    .fil237 {fill:#87397E}
    .fil236 {fill:#85387D}
    .fil235 {fill:#84377B}
    .fil234 {fill:#833779}
    .fil233 {fill:#823778}
    .fil232 {fill:#813777}
    .fil231 {fill:#803776}
    .fil230 {fill:#7F3675}
    .fil229 {fill:#7F3674}
    .fil228 {fill:#7E3573}
    .fil227 {fill:#7D3572}
    .fil226 {fill:#7C3571}
    .fil225 {fill:#7B3570}
    .fil198 {fill:#69CBE0}
    .fil204 {fill:#647F8D}
    .fil224 {fill:#79346E}
    .fil223 {fill:#78346D}
    .fil222 {fill:#76336B}
    .fil221 {fill:#743368}
    .fil220 {fill:#713266}
    .fil219 {fill:#6F3163}
    .fil91 {fill:#62703A}
    .fil218 {fill:#6B315F}
    .fil205 {fill:#5A6F7B}
    .fil217 {fill:#623158}
    .fil197 {fill:#53C6DA}
    .fil206 {fill:#546470}
    .fil196 {fill:#4EC0D6}
    .fil141 {fill:#6AB850}
    .fil140 {fill:#6AB456}
    .fil207 {fill:#4D5A65}
    .fil195 {fill:#4CBBD3}
    .fil139 {fill:#67B05B}
    .fil216 {fill:#55324F}
    .fil138 {fill:#66AD5D}
    .fil194 {fill:#4AB8D1}
    .fil137 {fill:#64AA5F}
    .fil193 {fill:#47B5D0}
    .fil136 {fill:#60A367}
    .fil215 {fill:#4D324B}
    .fil192 {fill:#46B2CF}
    .fil135 {fill:#5DA169}
    .fil208 {fill:#434C56}
    .fil191 {fill:#45B0CD}
    .fil134 {fill:#5AA268}
    .fil190 {fill:#45AECC}
    .fil133 {fill:#59A266}
    .fil214 {fill:#483248}
    .fil142 {fill:#59A653}
    .fil189 {fill:#43ACCB}
    .fil132 {fill:#57A365}
    .fil188 {fill:#42AACA}
    .fil131 {fill:#56A464}
    .fil130 {fill:#55A564}
    .fil187 {fill:#40A9C9}
    .fil213 {fill:#443145}
    .fil128 {fill:#54A662}
    .fil129 {fill:#53A562}
    .fil186 {fill:#40A7C8}
    .fil92 {fill:#475D38}
    .fil127 {fill:#52A661}
    .fil185 {fill:#3FA6C8}
    .fil125 {fill:#51A760}
    .fil126 {fill:#52A761}
    .fil184 {fill:#3EA5C7}
    .fil124 {fill:#50A760}
    .fil123 {fill:#50A75F}
    .fil183 {fill:#3DA4C6}
    .fil212 {fill:#403142}
    .fil121 {fill:#4FA85F}
    .fil122 {fill:#4FA85F}
    .fil182 {fill:#3DA3C5}
    .fil119 {fill:#4DA95E}
    .fil118 {fill:#4DA95E}
    .fil120 {fill:#4DA85F}
    .fil181 {fill:#3CA2C5}
    .fil180 {fill:#3DA1C4}
    .fil116 {fill:#4CA95E}
    .fil117 {fill:#4CA95E}
    .fil143 {fill:#4D9C55}
    .fil179 {fill:#3CA0C4}
    .fil114 {fill:#4AA95D}
    .fil113 {fill:#4AA95C}
    .fil115 {fill:#4AA95D}
    .fil178 {fill:#3BA0C4}
    .fil111 {fill:#48AB5C}
    .fil112 {fill:#49AA5C}
    .fil177 {fill:#3A9FC4}
    .fil176 {fill:#3B9EC3}
    .fil110 {fill:#47AA5B}
    .fil175 {fill:#3A9DC3}
    .fil209 {fill:#373B43}
    .fil108 {fill:#45AB5A}
    .fil109 {fill:#46AB5B}
    .fil174 {fill:#3A9CC2}
    .fil211 {fill:#3A303D}
    .fil107 {fill:#44AC59}
    .fil173 {fill:#399BC2}
    .fil106 {fill:#42AC59}
    .fil172 {fill:#389AC1}
    .fil171 {fill:#3999C0}
    .fil105 {fill:#40AD58}
    .fil144 {fill:#459556}
    .fil104 {fill:#3DAE57}
    .fil170 {fill:#3798BF}
    .fil103 {fill:#3BAF57}
    .fil169 {fill:#3697BF}
    .fil168 {fill:#3695BE}
    .fil102 {fill:#36AF56}
    .fil167 {fill:#3594BD}
    .fil101 {fill:#31B155}
    .fil145 {fill:#3F9057}
    .fil166 {fill:#3392BC}
    .fil99 {fill:#3A984D}
    .fil98 {fill:#3D8B49}
    .fil97 {fill:#3D8346}
    .fil96 {fill:#3E7E45}
    .fil95 {fill:#3D7743}
    .fil94 {fill:#3D6F40}
    .fil93 {fill:#3C613B}
    .fil165 {fill:#3190BB}
    .fil146 {fill:#3A8C57}
    .fil164 {fill:#328EB9}
    .fil210 {fill:#312E36}
    .fil163 {fill:#328CB8}
    .fil147 {fill:#358958}
    .fil162 {fill:#308AB6}
    .fil161 {fill:#3087B5}
    .fil148 {fill:#2F8458}
    .fil160 {fill:#2E84B3}
    .fil159 {fill:#2881B1}
    .fil149 {fill:#267E58}
    .fil158 {fill:#257B9F}
    .fil157 {fill:#1D7890}
    .fil150 {fill:#1A7559}
    .fil156 {fill:#1A7687}
    .fil155 {fill:#177481}
    .fil154 {fill:#15737C}
    .fil153 {fill:#157175}
    .fil152 {fill:#106E6A}
    .fil0 {fill:blue}
    .fil151 {fill:#086958}
    .fil100 {fill:#1DBC08}
    .fil202 {fill:#87EAFD}
    .fil254 {fill:#C90857}
    .fil253 {fill:#EA46E3}
    .fil255 {fill:url(#id1)}
   ]]>
  </style>
     <clipPath id="id0">
      <path d="M14849.46 7007.68c950.87,0 1808.02,400.95 2411.8,1042.91l-1180.49 0c-365.93,-199.1 -785.4,-312.23 -1231.31,-312.23 -445.9,0 -865.37,113.13 -1231.3,312.23l-1180.49 0c603.79,-641.95 1460.93,-1042.91 2411.79,-1042.91zm3169 2350.12c92.04,304.06 141.73,626.51 141.73,960.6 0,1588.76 -1119.17,2915.9 -2612.09,3236.63l588.71 -1000.24c761.53,-439.36 1277.57,-1256.55 1292.18,-2195.47l589.47 -1001.52zm-3867.63 4197.23c-1492.92,-320.73 -2612.09,-1647.87 -2612.09,-3236.63 0,-334.09 49.68,-656.54 141.73,-960.59l589.47 1001.52c14.61,938.91 530.59,1756.11 1292.17,2195.45l588.72 1000.25z"/>
     </clipPath>
  <linearGradient id="id1" gradientUnits="userSpaceOnUse" x1="11638.92" y1="11227.18" x2="18043.6" y2="11227.18">
   <stop offset="0" style="stop-opacity:1; stop-color:lime"/>
   <stop offset="1" style="stop-opacity:1; stop-color:#417D47"/>
  </linearGradient>
 </defs>
 <g id="Camada_x0020_1">
  <metadata id="CorelCorpID_0Corel-Layer"/>
  <g id="_2701555050912">
   <g>
    <path class="fil0" d="M13805.02 10892.08l867.74 -2.81 0.47 0.63 175.1 0 -16.71 -30.48 -67.34 -122.85 -268.74 -490.18 -986.08 -1798.61 -1870.54 0.72c28.25,41.5 68.22,127.64 99.4,180.59l1503.38 2607.21c132.57,234.54 267.5,459.21 402.32,695.43l1002.94 1742.68c47.42,80.66 146.35,274.12 199.31,332.17 50.79,-52.91 191.64,-319.74 240.68,-403.49 46.58,-79.55 93.83,-162.18 140.8,-244.68l-381.48 -661.29 -1041.25 -1805.04zm-379.99 -658.89l-652.75 -1131.71 357.25 1.06c47.02,47.75 131.03,214.49 166.57,276.84 143.46,251.65 373.71,624.63 490.3,855.27l-361.37 -1.46z"/>
    <path class="fil0" d="M14773.17 10076.76l1585.2 -0.16 -999.69 1744.18 -382.03 -708.63c-253.99,0 -511.19,0.54 -766.53,1.83l1148.56 2016.57 2130.27 -3707.14 -2276.81 -0.64 -182.88 -322.33 2667.6 -0.49 346.74 -646.83 -4162.48 -3.48 892.05 1627.12z"/>
   </g>
   <g>
    <g style="clip-path:url(#id0)">
     <polygon class="fil1" points="14981.89,10346.83 12603.95,5790.88 12692.38,5754.15 "/>
     <polygon id="_1" class="fil2" points="14981.89,10346.83 12677.64,5760.27 12751.78,5730.53 "/>
     <polygon id="_2" class="fil3" points="14981.89,10346.83 12736.95,5736.48 12811.51,5707.62 "/>
     <polygon id="_3" class="fil4" points="14981.89,10346.83 12796.59,5713.39 12871.57,5685.41 "/>
     <polygon id="_4" class="fil5" points="14981.89,10346.83 12856.57,5691.01 12931.95,5663.91 "/>
     <polygon id="_5" class="fil6" points="14981.89,10346.83 12916.87,5669.33 12992.64,5643.11 "/>
     <polygon id="_6" class="fil7" points="14981.89,10346.83 12977.49,5648.36 13053.64,5623.04 "/>
     <polygon id="_7" class="fil8" points="14981.89,10346.83 13038.41,5628.1 13114.92,5603.68 "/>
     <polygon id="_8" class="fil9" points="14981.89,10346.83 13099.62,5608.56 13176.49,5585.03 "/>
     <polygon id="_9" class="fil10" points="14981.89,10346.83 13161.12,5589.74 13238.34,5567.12 "/>
     <polygon id="_10" class="fil11" points="14981.89,10346.83 13222.89,5571.64 13300.45,5549.92 "/>
     <polygon id="_11" class="fil12" points="14981.89,10346.83 13284.93,5554.27 13362.81,5533.46 "/>
     <polygon id="_12" class="fil13" points="14981.89,10346.83 13347.23,5537.62 13425.42,5517.72 "/>
     <polygon id="_13" class="fil14" points="14981.89,10346.83 13409.78,5521.7 13488.27,5502.72 "/>
     <polygon id="_14" class="fil15" points="14981.89,10346.83 13472.57,5506.52 13551.34,5488.46 "/>
     <polygon id="_15" class="fil16" points="14981.89,10346.83 13535.58,5492.07 13614.63,5474.93 "/>
     <polygon id="_16" class="fil17" points="14981.89,10346.83 13598.82,5478.36 13678.13,5462.14 "/>
     <polygon id="_17" class="fil18" points="14981.89,10346.83 13662.26,5465.38 13741.82,5450.09 "/>
     <polygon id="_18" class="fil19" points="14981.89,10346.83 13725.91,5453.15 13805.71,5438.79 "/>
     <polygon id="_19" class="fil20" points="14981.89,10346.83 13789.75,5441.66 13869.77,5428.23 "/>
     <polygon id="_20" class="fil21" points="14981.89,10346.83 13853.76,5430.91 13934,5418.41 "/>
     <polygon id="_21" class="fil22" points="14981.89,10346.83 13917.95,5420.91 13998.39,5409.35 "/>
     <polygon id="_22" class="fil23" points="14981.89,10346.83 13982.3,5411.66 14062.93,5401.03 "/>
     <polygon id="_23" class="fil24" points="14981.89,10346.83 14046.8,5403.16 14127.61,5393.47 "/>
     <polygon id="_24" class="fil25" points="14981.89,10346.83 14111.45,5395.4 14192.42,5386.65 "/>
     <polygon id="_25" class="fil26" points="14981.89,10346.83 14176.22,5388.4 14257.34,5380.59 "/>
     <polygon id="_26" class="fil27" points="14981.89,10346.83 14241.12,5382.15 14322.38,5375.29 "/>
     <polygon id="_27" class="fil28" points="14981.89,10346.83 14306.13,5376.66 14387.52,5370.73 "/>
     <polygon id="_28" class="fil29" points="14981.89,10346.83 14371.24,5371.92 14452.75,5366.94 "/>
     <polygon id="_29" class="fil30" points="14981.89,10346.83 14436.45,5367.93 14518.06,5363.9 "/>
     <polygon id="_30" class="fil31" points="14981.89,10346.83 14501.73,5364.7 14583.44,5361.61 "/>
     <polygon id="_31" class="fil32" points="14981.89,10346.83 14567.1,5362.23 14648.88,5360.08 "/>
     <polygon id="_32" class="fil33" points="14981.89,10346.83 14632.52,5360.51 14714.37,5359.31 "/>
     <polygon id="_33" class="fil34" points="14981.89,10346.83 14698,5359.55 14779.9,5359.3 "/>
     <polygon id="_34" class="fil35" points="14981.89,10346.83 14763.52,5359.35 14845.46,5360.04 "/>
     <polygon id="_35" class="fil36" points="14981.89,10346.83 14829.07,5359.9 14911.04,5361.54 "/>
     <polygon id="_36" class="fil37" points="14981.89,10346.83 14894.65,5361.21 14976.63,5363.8 "/>
     <polygon id="_37" class="fil38" points="14981.89,10346.83 14960.24,5363.28 15042.23,5366.81 "/>
     <polygon id="_38" class="fil39" points="14981.89,10346.83 15025.83,5366.1 15107.81,5370.58 "/>
     <polygon id="_39" class="fil40" points="14981.89,10346.83 15091.42,5369.68 15173.38,5375.1 "/>
     <polygon id="_40" class="fil41" points="14981.89,10346.83 15156.99,5374.02 15238.91,5380.38 "/>
     <polygon id="_41" class="fil42" points="14981.89,10346.83 15222.53,5379.11 15304.41,5386.41 "/>
     <polygon id="_42" class="fil43" points="14981.89,10346.83 15288.03,5384.95 15369.86,5393.2 "/>
     <polygon id="_43" class="fil44" points="14981.89,10346.83 15353.49,5391.55 15435.25,5400.74 "/>
     <polygon id="_44" class="fil45" points="14981.89,10346.83 15418.9,5398.9 15500.57,5409.02 "/>
     <polygon id="_45" class="fil46" points="14981.89,10346.83 15484.24,5407 15565.81,5418.06 "/>
     <polygon id="_46" class="fil47" points="14981.89,10346.83 15549.5,5415.85 15630.97,5427.85 "/>
     <polygon id="_47" class="fil48" points="14981.89,10346.83 15614.67,5425.45 15696.02,5438.38 "/>
     <polygon id="_48" class="fil49" points="14981.89,10346.83 15679.75,5435.79 15760.97,5449.66 "/>
     <polygon id="_49" class="fil50" points="14981.89,10346.83 15744.72,5446.88 15825.8,5461.68 "/>
     <polygon id="_50" class="fil51" points="14981.89,10346.83 15809.58,5458.72 15890.5,5474.44 "/>
     <polygon id="_51" class="fil52" points="14981.89,10346.83 15874.31,5471.29 15955.06,5487.94 "/>
     <polygon id="_52" class="fil53" points="14981.89,10346.83 15938.91,5484.61 16019.47,5502.18 "/>
     <polygon id="_53" class="fil54" points="14981.89,10346.83 16003.36,5498.66 16083.73,5517.15 "/>
     <polygon id="_54" class="fil55" points="14981.89,10346.83 16067.66,5513.45 16147.82,5532.86 "/>
     <polygon id="_55" class="fil56" points="14981.89,10346.83 16131.79,5528.98 16211.73,5549.3 "/>
     <polygon id="_56" class="fil57" points="14981.89,10346.83 16195.74,5545.23 16275.46,5566.46 "/>
     <polygon id="_57" class="fil58" points="14981.89,10346.83 16259.52,5562.22 16338.99,5584.35 "/>
     <polygon id="_58" class="fil58" points="14981.89,10346.83 16323.09,5579.93 16402.31,5602.97 "/>
     <polygon id="_59" class="fil59" points="14981.89,10346.83 16386.47,5598.36 16465.42,5622.3 "/>
     <polygon id="_60" class="fil60" points="14981.89,10346.83 16449.63,5617.51 16528.3,5642.35 "/>
     <polygon id="_61" class="fil60" points="14981.89,10346.83 16512.57,5637.39 16590.95,5663.12 "/>
     <polygon id="_62" class="fil61" points="14981.89,10346.83 16575.28,5657.97 16653.36,5684.6 "/>
     <polygon id="_63" class="fil62" points="14981.89,10346.83 16637.74,5679.27 16715.51,5706.78 "/>
     <polygon id="_64" class="fil63" points="14981.89,10346.83 16699.95,5701.28 16777.4,5729.67 "/>
     <polygon id="_65" class="fil64" points="14981.89,10346.83 16761.91,5723.99 16839.01,5753.26 "/>
     <polygon id="_66" class="fil65" points="14981.89,10346.83 16823.59,5747.4 16900.34,5777.54 "/>
     <polygon id="_67" class="fil66" points="14981.89,10346.83 16884.99,5771.52 16961.39,5802.52 "/>
     <polygon id="_68" class="fil67" points="14981.89,10346.83 16946.11,5796.32 17022.13,5828.19 "/>
     <polygon id="_69" class="fil68" points="14981.89,10346.83 17006.92,5821.82 17082.56,5854.55 "/>
     <polygon id="_70" class="fil69" points="14981.89,10346.83 17067.43,5848 17142.67,5881.59 "/>
     <polygon id="_71" class="fil70" points="14981.89,10346.83 17127.62,5874.87 17202.46,5909.3 "/>
     <polygon id="_72" class="fil71" points="14981.89,10346.83 17187.49,5902.41 17261.9,5937.69 "/>
     <polygon id="_73" class="fil72" points="14981.89,10346.83 17247.02,5930.63 17321.01,5966.75 "/>
     <polygon id="_74" class="fil73" points="14981.89,10346.83 17306.21,5959.52 17379.75,5996.47 "/>
     <polygon id="_75" class="fil74" points="14981.89,10346.83 17365.04,5989.08 17438.14,6026.85 "/>
     <polygon id="_76" class="fil75" points="14981.89,10346.83 17423.52,6019.3 17496.15,6057.89 "/>
     <polygon id="_77" class="fil76" points="14981.89,10346.83 17481.62,6050.17 17553.77,6089.58 "/>
     <polygon id="_78" class="fil77" points="14981.89,10346.83 17539.34,6081.7 17611.01,6121.92 "/>
     <polygon id="_79" class="fil78" points="14981.89,10346.83 17596.68,6113.87 17667.85,6154.89 "/>
     <polygon id="_80" class="fil79" points="14981.89,10346.83 17653.62,6146.69 17724.28,6188.51 "/>
     <polygon id="_81" class="fil80" points="14981.89,10346.83 17710.15,6180.14 17780.3,6222.75 "/>
     <polygon id="_82" class="fil81" points="14981.89,10346.83 17766.27,6214.23 17835.89,6257.62 "/>
     <polygon id="_83" class="fil82" points="14981.89,10346.83 17821.96,6248.94 17891.04,6293.11 "/>
     <polygon id="_84" class="fil83" points="14981.89,10346.83 17877.23,6284.28 17945.76,6329.22 "/>
     <polygon id="_85" class="fil84" points="14981.89,10346.83 17932.05,6320.23 18000.03,6365.93 "/>
     <polygon id="_86" class="fil85" points="14981.89,10346.83 17986.43,6356.79 18053.83,6403.25 "/>
     <polygon id="_87" class="fil86" points="14981.89,10346.83 18040.35,6393.96 18107.18,6441.17 "/>
     <polygon id="_88" class="fil87" points="14981.89,10346.83 18093.81,6431.73 18160.04,6479.68 "/>
     <polygon id="_89" class="fil88" points="14981.89,10346.83 18146.8,6470.09 18212.43,6518.78 "/>
     <polygon id="_90" class="fil89" points="14981.89,10346.83 18199.3,6509.04 18264.32,6558.46 "/>
     <polygon id="_91" class="fil90" points="14981.89,10346.83 18251.32,6548.58 18315.72,6598.72 "/>
     <polygon id="_92" class="fil91" points="14981.89,10346.83 18302.84,6588.69 18366.61,6639.54 "/>
     <polygon id="_93" class="fil92" points="14981.89,10346.83 18353.85,6629.37 18416.98,6680.93 "/>
     <polygon id="_94" class="fil93" points="14981.89,10346.83 18404.36,6670.61 18466.84,6722.87 "/>
     <polygon id="_95" class="fil94" points="14981.89,10346.83 18454.34,6712.42 18516.17,6765.36 "/>
     <polygon id="_96" class="fil95" points="14981.89,10346.83 18503.8,6754.77 18564.96,6808.4 "/>
     <polygon id="_97" class="fil96" points="14981.89,10346.83 18552.72,6797.67 18613.2,6851.97 "/>
     <polygon id="_98" class="fil97" points="14981.89,10346.83 18601.1,6841.11 18660.9,6896.07 "/>
     <polygon id="_99" class="fil98" points="14981.89,10346.83 18648.94,6885.08 18708.03,6940.7 "/>
     <polygon id="_100" class="fil99" points="14981.89,10346.83 18696.21,6929.58 18754.6,6985.85 "/>
     <polygon id="_101" class="fil100" points="14981.89,10346.83 18742.92,6974.59 18800.6,7031.5 "/>
     <polygon id="_102" class="fil101" points="14981.89,10346.83 18789.06,7020.12 18846.02,7077.66 "/>
     <polygon id="_103" class="fil102" points="14981.89,10346.83 18834.63,7066.15 18890.85,7124.31 "/>
     <polygon id="_104" class="fil103" points="14981.89,10346.83 18879.61,7112.68 18935.09,7171.46 "/>
     <polygon id="_105" class="fil104" points="14981.89,10346.83 18923.99,7159.7 18978.73,7219.08 "/>
     <polygon id="_106" class="fil105" points="14981.89,10346.83 18967.78,7207.2 19021.76,7267.18 "/>
     <polygon id="_107" class="fil106" points="14981.89,10346.83 19010.96,7255.18 19064.18,7315.75 "/>
     <polygon id="_108" class="fil107" points="14981.89,10346.83 19053.54,7303.63 19105.98,7364.77 "/>
     <polygon id="_109" class="fil108" points="14981.89,10346.83 19095.49,7352.55 19147.15,7414.25 "/>
     <polygon id="_110" class="fil109" points="14981.89,10346.83 19136.82,7401.91 19187.69,7464.18 "/>
     <polygon id="_111" class="fil110" points="14981.89,10346.83 19177.52,7451.73 19227.6,7514.54 "/>
     <polygon id="_112" class="fil111" points="14981.89,10346.83 19217.58,7501.98 19266.85,7565.33 "/>
     <polygon id="_113" class="fil112" points="14981.89,10346.83 19257,7552.66 19305.46,7616.55 "/>
     <polygon id="_114" class="fil113" points="14981.89,10346.83 19295.77,7603.77 19343.41,7668.18 "/>
     <polygon id="_115" class="fil114" points="14981.89,10346.83 19333.88,7655.3 19380.7,7720.21 "/>
     <polygon id="_116" class="fil115" points="14981.89,10346.83 19371.34,7707.23 19417.33,7772.65 "/>
     <polygon id="_117" class="fil116" points="14981.89,10346.83 19408.13,7759.56 19453.27,7825.47 "/>
     <polygon id="_118" class="fil117" points="14981.89,10346.83 19444.25,7812.29 19488.54,7878.68 "/>
     <polygon id="_119" class="fil118" points="14981.89,10346.83 19479.68,7865.4 19523.13,7932.26 "/>
     <polygon id="_120" class="fil119" points="14981.89,10346.83 19514.44,7918.89 19557.03,7986.21 "/>
     <polygon id="_121" class="fil120" points="14981.89,10346.83 19548.51,7972.75 19590.23,8040.52 "/>
     <polygon id="_122" class="fil121" points="14981.89,10346.83 19581.89,8026.96 19622.73,8095.17 "/>
     <polygon id="_123" class="fil122" points="14981.89,10346.83 19614.56,8081.53 19654.53,8150.17 "/>
     <polygon id="_124" class="fil123" points="14981.89,10346.83 19646.54,8136.44 19685.62,8205.5 "/>
     <polygon id="_125" class="fil124" points="14981.89,10346.83 19677.8,8191.69 19716,8261.16 "/>
     <polygon id="_126" class="fil125" points="14981.89,10346.83 19708.36,8247.27 19745.65,8317.14 "/>
     <polygon id="_127" class="fil126" points="14981.89,10346.83 19738.2,8303.16 19774.59,8373.42 "/>
     <polygon id="_128" class="fil127" points="14981.89,10346.83 19767.31,8359.37 19802.8,8430 "/>
     <polygon id="_129" class="fil128" points="14981.89,10346.83 19795.7,8415.87 19830.27,8486.87 "/>
     <polygon id="_130" class="fil129" points="14981.89,10346.83 19823.36,8472.67 19857.01,8544.03 "/>
     <polygon id="_131" class="fil130" points="14981.89,10346.83 19850.28,8529.75 19883.01,8601.45 "/>
     <polygon id="_132" class="fil131" points="14981.89,10346.83 19876.46,8587.11 19908.26,8659.15 "/>
     <polygon id="_133" class="fil132" points="14981.89,10346.83 19901.9,8644.74 19932.77,8717.1 "/>
     <polygon id="_134" class="fil133" points="14981.89,10346.83 19926.6,8702.62 19956.53,8775.29 "/>
     <polygon id="_135" class="fil134" points="14981.89,10346.83 19950.54,8760.76 19979.53,8833.73 "/>
     <polygon id="_136" class="fil135" points="14981.89,10346.83 19973.73,8819.13 20001.77,8892.39 "/>
     <polygon id="_137" class="fil136" points="14981.89,10346.83 19996.16,8877.74 20023.25,8951.28 "/>
     <polygon id="_138" class="fil137" points="14981.89,10346.83 20017.83,8936.57 20043.97,9010.38 "/>
     <polygon id="_139" class="fil138" points="14981.89,10346.83 20038.74,8995.61 20063.91,9069.68 "/>
     <polygon id="_140" class="fil139" points="14981.89,10346.83 20058.88,9054.86 20083.09,9129.17 "/>
     <polygon id="_141" class="fil140" points="14981.89,10346.83 20078.25,9114.31 20101.49,9188.85 "/>
     <polygon id="_142" class="fil141" points="14981.89,10346.83 20096.84,9173.94 20119.11,9248.7 "/>
     <polygon id="_143" class="fil142" points="14981.89,10346.83 20114.66,9233.75 20135.96,9308.72 "/>
     <polygon id="_144" class="fil143" points="14981.89,10346.83 20131.7,9293.73 20152.02,9368.9 "/>
     <polygon id="_145" class="fil144" points="14981.89,10346.83 20147.96,9353.87 20167.3,9429.23 "/>
     <polygon id="_146" class="fil145" points="14981.89,10346.83 20163.43,9414.16 20181.79,9489.7 "/>
     <polygon id="_147" class="fil146" points="14981.89,10346.83 20178.12,9474.59 20195.49,9550.29 "/>
     <polygon id="_148" class="fil147" points="14981.89,10346.83 20192.01,9535.15 20208.4,9611.01 "/>
     <polygon id="_149" class="fil148" points="14981.89,10346.83 20205.12,9595.84 20220.52,9671.84 "/>
     <polygon id="_150" class="fil149" points="14981.89,10346.83 20217.44,9656.64 20231.84,9732.77 "/>
     <polygon id="_151" class="fil150" points="14981.89,10346.83 20228.96,9717.55 20242.36,9793.8 "/>
     <polygon id="_152" class="fil151" points="14981.89,10346.83 20239.68,9778.55 20252.09,9854.91 "/>
     <polygon id="_153" class="fil152" points="14981.89,10346.83 20249.61,9839.63 20261.02,9916.09 "/>
     <polygon id="_154" class="fil153" points="14981.89,10346.83 20258.73,9900.8 20269.14,9977.34 "/>
     <polygon id="_155" class="fil154" points="14981.89,10346.83 20267.06,9962.03 20276.46,10038.64 "/>
     <polygon id="_156" class="fil155" points="14981.89,10346.83 20274.58,10023.32 20282.98,10100 "/>
     <polygon id="_157" class="fil156" points="14981.89,10346.83 20281.3,10084.66 20288.7,10161.38 "/>
     <polygon id="_158" class="fil157" points="14981.89,10346.83 20287.22,10146.04 20293.61,10222.8 "/>
     <polygon id="_159" class="fil158" points="14981.89,10346.83 20292.33,10207.45 20297.71,10284.24 "/>
     <polygon id="_160" class="fil159" points="14981.89,10346.83 20296.63,10268.88 20301,10345.68 "/>
     <polygon id="_161" class="fil160" points="14981.89,10346.83 20300.13,10330.32 20303.49,10407.13 "/>
     <polygon id="_162" class="fil161" points="14981.89,10346.83 20302.82,10391.77 20305.17,10468.57 "/>
     <polygon id="_163" class="fil162" points="14981.89,10346.83 20304.7,10453.21 20306.05,10529.98 "/>
     <polygon id="_164" class="fil163" points="14981.89,10346.83 20305.78,10514.63 20306.11,10591.37 "/>
     <polygon id="_165" class="fil164" points="14981.89,10346.83 20306.04,10576.02 20305.37,10652.73 "/>
     <polygon id="_166" class="fil165" points="14981.89,10346.83 20305.5,10637.39 20303.82,10714.03 "/>
     <polygon id="_167" class="fil166" points="14981.89,10346.83 20304.15,10698.7 20301.46,10775.29 "/>
     <polygon id="_168" class="fil167" points="14981.89,10346.83 20302,10759.97 20298.29,10836.47 "/>
     <polygon id="_169" class="fil168" points="14981.89,10346.83 20299.03,10821.17 20294.32,10897.58 "/>
     <polygon id="_170" class="fil169" points="14981.89,10346.83 20295.26,10882.3 20289.54,10958.61 "/>
     <polygon id="_171" class="fil170" points="14981.89,10346.83 20290.68,10943.35 20283.95,11019.55 "/>
     <polygon id="_172" class="fil171" points="14981.89,10346.83 20285.3,11004.31 20277.56,11080.38 "/>
     <polygon id="_173" class="fil172" points="14981.89,10346.83 20279.11,11065.17 20270.37,11141.1 "/>
     <polygon id="_174" class="fil173" points="14981.89,10346.83 20272.12,11125.91 20262.37,11201.7 "/>
     <polygon id="_175" class="fil174" points="14981.89,10346.83 20264.32,11186.55 20253.57,11262.18 "/>
     <polygon id="_176" class="fil175" points="14981.89,10346.83 20255.72,11247.05 20243.98,11322.51 "/>
     <polygon id="_177" class="fil176" points="14981.89,10346.83 20246.33,11307.42 20233.58,11382.69 "/>
     <polygon id="_178" class="fil177" points="14981.89,10346.83 20236.13,11367.64 20222.39,11442.72 "/>
     <polygon id="_179" class="fil178" points="14981.89,10346.83 20225.13,11427.7 20210.4,11502.58 "/>
     <polygon id="_180" class="fil179" points="14981.89,10346.83 20213.34,11487.6 20197.61,11562.27 "/>
     <polygon id="_181" class="fil180" points="14981.89,10346.83 20200.76,11547.33 20184.04,11621.77 "/>
     <polygon id="_182" class="fil181" points="14981.89,10346.83 20187.38,11606.88 20169.67,11681.08 "/>
     <polygon id="_183" class="fil182" points="14981.89,10346.83 20173.22,11666.24 20154.52,11740.18 "/>
     <polygon id="_184" class="fil183" points="14981.89,10346.83 20158.26,11725.39 20138.59,11799.07 "/>
     <polygon id="_185" class="fil184" points="14981.89,10346.83 20142.52,11784.34 20121.87,11857.75 "/>
     <polygon id="_186" class="fil185" points="14981.89,10346.83 20126,11843.06 20104.37,11916.19 "/>
     <polygon id="_187" class="fil186" points="14981.89,10346.83 20108.69,11901.57 20086.09,11974.4 "/>
     <polygon id="_188" class="fil187" points="14981.89,10346.83 20090.61,11959.83 20067.04,12032.36 "/>
     <polygon id="_189" class="fil188" points="14981.89,10346.83 20071.75,12017.85 20047.22,12090.06 "/>
     <polygon id="_190" class="fil189" points="14981.89,10346.83 20052.12,12075.62 20026.62,12147.5 "/>
     <polygon id="_191" class="fil190" points="14981.89,10346.83 20031.72,12133.12 20005.27,12204.66 "/>
     <polygon id="_192" class="fil191" points="14981.89,10346.83 20010.56,12190.35 19983.15,12261.54 "/>
     <polygon id="_193" class="fil192" points="14981.89,10346.83 19988.63,12247.31 19960.27,12318.14 "/>
     <polygon id="_194" class="fil193" points="14981.89,10346.83 19965.94,12303.97 19936.63,12374.43 "/>
     <polygon id="_195" class="fil194" points="14981.89,10346.83 19942.49,12360.34 19912.24,12430.41 "/>
     <polygon id="_196" class="fil195" points="14981.89,10346.83 19918.29,12416.4 19887.11,12486.08 "/>
     <polygon id="_197" class="fil196" points="14981.89,10346.83 19893.35,12472.15 19861.23,12541.43 "/>
     <polygon id="_198" class="fil197" points="14981.89,10346.83 19867.65,12527.57 19834.61,12596.44 "/>
     <polygon id="_199" class="fil198" points="14981.89,10346.83 19841.22,12582.67 19807.25,12651.11 "/>
     <polygon id="_200" class="fil199" points="14981.89,10346.83 19814.04,12637.42 19779.16,12705.43 "/>
     <polygon id="_201" class="fil200" points="14981.89,10346.83 19786.14,12691.83 19750.34,12759.39 "/>
     <polygon id="_202" class="fil201" points="14981.89,10346.83 19757.5,12745.88 19720.8,12812.99 "/>
     <polygon id="_203" class="fil202" points="14981.89,10346.83 19728.14,12799.57 19690.54,12866.21 "/>
     <polygon id="_204" class="fil203" points="14981.89,10346.83 19698.06,12852.88 19659.57,12919.05 "/>
     <polygon id="_205" class="fil204" points="14981.89,10346.83 19667.27,12905.81 19627.88,12971.5 "/>
     <polygon id="_206" class="fil205" points="14981.89,10346.83 19635.76,12958.36 19595.49,13023.55 "/>
     <polygon id="_207" class="fil206" points="14981.89,10346.83 19603.54,13010.51 19562.4,13075.19 "/>
     <polygon id="_208" class="fil207" points="14981.89,10346.83 19570.63,13062.26 19528.61,13126.42 "/>
     <polygon id="_209" class="fil208" points="14981.89,10346.83 19537.02,13113.59 19494.14,13177.23 "/>
     <polygon id="_210" class="fil209" points="14981.89,10346.83 19502.71,13164.5 19458.98,13227.61 "/>
     <polygon id="_211" class="fil210" points="14981.89,10346.83 19467.72,13214.99 19423.14,13277.55 "/>
     <polygon id="_212" class="fil211" points="14981.89,10346.83 19432.05,13265.04 19386.62,13327.05 "/>
     <polygon id="_213" class="fil212" points="14981.89,10346.83 19395.71,13314.64 19349.44,13376.09 "/>
     <polygon id="_214" class="fil213" points="14981.89,10346.83 19358.69,13363.8 19311.59,13424.68 "/>
     <polygon id="_215" class="fil214" points="14981.89,10346.83 19321.01,13412.5 19273.09,13472.79 "/>
     <polygon id="_216" class="fil215" points="14981.89,10346.83 19282.67,13460.73 19233.94,13520.44 "/>
     <polygon id="_217" class="fil216" points="14981.89,10346.83 19243.68,13508.49 19194.14,13567.6 "/>
     <polygon id="_218" class="fil217" points="14981.89,10346.83 19204.05,13555.78 19153.7,13614.27 "/>
     <polygon id="_219" class="fil218" points="14981.89,10346.83 19163.77,13602.57 19112.62,13660.45 "/>
     <polygon id="_220" class="fil219" points="14981.89,10346.83 19122.85,13648.87 19070.92,13706.12 "/>
     <polygon id="_221" class="fil220" points="14981.89,10346.83 19081.31,13694.67 19028.6,13751.28 "/>
     <polygon id="_222" class="fil221" points="14981.89,10346.83 19039.15,13739.96 18985.67,13795.93 "/>
     <polygon id="_223" class="fil222" points="14981.89,10346.83 18996.37,13784.73 18942.13,13840.05 "/>
     <polygon id="_224" class="fil223" points="14981.89,10346.83 18952.98,13828.99 18897.99,13883.65 "/>
     <polygon id="_225" class="fil224" points="14981.89,10346.83 18908.98,13872.71 18853.25,13926.7 "/>
     <polygon id="_226" class="fil225" points="14981.89,10346.83 18864.4,13915.9 18807.92,13969.21 "/>
     <polygon id="_227" class="fil226" points="14981.89,10346.83 18819.22,13958.55 18762.02,14011.18 "/>
     <polygon id="_228" class="fil227" points="14981.89,10346.83 18773.46,14000.65 18715.54,14052.58 "/>
     <polygon id="_229" class="fil228" points="14981.89,10346.83 18727.12,14042.2 18668.49,14093.43 "/>
     <polygon id="_230" class="fil229" points="14981.89,10346.83 18680.22,14083.18 18620.89,14133.71 "/>
     <polygon id="_231" class="fil230" points="14981.89,10346.83 18632.75,14123.6 18572.73,14173.41 "/>
     <polygon id="_232" class="fil231" points="14981.89,10346.83 18584.73,14163.44 18524.03,14212.53 "/>
     <polygon id="_233" class="fil232" points="14981.89,10346.83 18536.17,14202.71 18474.79,14251.06 "/>
     <polygon id="_234" class="fil233" points="14981.89,10346.83 18487.06,14241.39 18425.01,14289 "/>
     <polygon id="_235" class="fil234" points="14981.89,10346.83 18437.42,14279.48 18374.72,14326.34 "/>
     <polygon id="_236" class="fil235" points="14981.89,10346.83 18387.26,14316.97 18323.91,14363.08 "/>
     <polygon id="_237" class="fil236" points="14981.89,10346.83 18336.58,14353.86 18272.6,14399.21 "/>
     <polygon id="_238" class="fil237" points="14981.89,10346.83 18285.4,14390.14 18220.78,14434.72 "/>
     <polygon id="_239" class="fil238" points="14981.89,10346.83 18233.71,14425.81 18168.48,14469.62 "/>
     <polygon id="_240" class="fil239" points="14981.89,10346.83 18181.52,14460.86 18115.69,14503.89 "/>
     <polygon id="_241" class="fil240" points="14981.89,10346.83 18128.85,14495.28 18062.42,14537.52 "/>
     <polygon id="_242" class="fil241" points="14981.89,10346.83 18075.71,14529.07 18008.69,14570.52 "/>
     <polygon id="_243" class="fil242" points="14981.89,10346.83 18022.09,14562.23 17954.49,14602.88 "/>
     <polygon id="_244" class="fil243" points="14981.89,10346.83 17968.01,14594.75 17899.85,14634.6 "/>
     <polygon id="_245" class="fil244" points="14981.89,10346.83 17913.48,14626.63 17844.76,14665.66 "/>
     <polygon id="_246" class="fil245" points="14981.89,10346.83 17858.51,14657.85 17789.24,14696.07 "/>
     <polygon id="_247" class="fil246" points="14981.89,10346.83 17803.09,14688.42 17733.29,14725.81 "/>
     <polygon id="_248" class="fil247" points="14981.89,10346.83 17747.25,14718.34 17676.93,14754.9 "/>
     <polygon id="_249" class="fil248" points="14981.89,10346.83 17690.99,14747.58 17620.15,14783.31 "/>
     <polygon id="_250" class="fil249" points="14981.89,10346.83 17634.32,14776.16 17562.98,14811.05 "/>
     <polygon id="_251" class="fil250" points="14981.89,10346.83 17577.25,14804.07 17505.41,14838.11 "/>
     <polygon id="_252" class="fil251" points="14981.89,10346.83 17519.78,14831.3 17447.46,14864.49 "/>
     <polygon id="_253" class="fil252" points="14981.89,10346.83 17461.93,14857.86 17389.14,14890.19 "/>
     <polygon id="_254" class="fil253" points="14981.89,10346.83 17403.7,14883.72 17330.45,14915.19 "/>
     <polygon id="_255" class="fil252" points="14981.89,10346.83 17345.1,14908.9 17271.41,14939.51 "/>
     <polygon id="_256" class="fil251" points="14981.89,10346.83 17286.15,14933.39 17212.01,14963.12 "/>
     <polygon id="_257" class="fil250" points="14981.89,10346.83 17226.84,14957.17 17152.28,14986.04 "/>
     <polygon id="_258" class="fil249" points="14981.89,10346.83 17167.19,14980.26 17092.22,15008.25 "/>
     <polygon id="_259" class="fil248" points="14981.89,10346.83 17107.22,15002.65 17031.84,15029.75 "/>
     <polygon id="_260" class="fil247" points="14981.89,10346.83 17046.91,15024.33 16971.15,15050.54 "/>
     <polygon id="_261" class="fil246" points="14981.89,10346.83 16986.3,15045.3 16910.15,15070.62 "/>
     <polygon id="_262" class="fil245" points="14981.89,10346.83 16925.38,15065.56 16848.87,15089.98 "/>
     <polygon id="_263" class="fil244" points="14981.89,10346.83 16864.17,15085.1 16787.3,15108.62 "/>
     <polygon id="_264" class="fil243" points="14981.89,10346.83 16802.67,15103.92 16725.45,15126.54 "/>
     <polygon id="_265" class="fil242" points="14981.89,10346.83 16740.9,15122.02 16663.34,15143.73 "/>
     <polygon id="_266" class="fil241" points="14981.89,10346.83 16678.85,15139.39 16600.98,15160.2 "/>
     <polygon id="_267" class="fil240" points="14981.89,10346.83 16616.55,15156.04 16538.37,15175.93 "/>
     <polygon id="_268" class="fil239" points="14981.89,10346.83 16554.01,15171.95 16475.52,15190.93 "/>
     <polygon id="_269" class="fil238" points="14981.89,10346.83 16491.22,15187.14 16412.45,15205.2 "/>
     <polygon id="_270" class="fil237" points="14981.89,10346.83 16428.2,15201.59 16349.16,15218.73 "/>
     <polygon id="_271" class="fil236" points="14981.89,10346.83 16364.97,15215.3 16285.66,15231.52 "/>
     <polygon id="_272" class="fil235" points="14981.89,10346.83 16301.52,15228.28 16221.97,15243.57 "/>
     <polygon id="_273" class="fil234" points="14981.89,10346.83 16237.88,15240.51 16158.08,15254.87 "/>
     <polygon id="_274" class="fil233" points="14981.89,10346.83 16174.04,15252 16094.02,15265.43 "/>
     <polygon id="_275" class="fil232" points="14981.89,10346.83 16110.02,15262.74 16029.79,15275.24 "/>
     <polygon id="_276" class="fil231" points="14981.89,10346.83 16045.84,15272.74 15965.4,15284.31 "/>
     <polygon id="_277" class="fil230" points="14981.89,10346.83 15981.49,15282 15900.86,15292.63 "/>
     <polygon id="_278" class="fil229" points="14981.89,10346.83 15916.99,15290.5 15836.18,15300.19 "/>
     <polygon id="_279" class="fil228" points="14981.89,10346.83 15852.34,15298.25 15771.37,15307 "/>
     <polygon id="_280" class="fil227" points="14981.89,10346.83 15787.57,15305.25 15706.44,15313.06 "/>
     <polygon id="_281" class="fil226" points="14981.89,10346.83 15722.67,15311.5 15641.41,15318.37 "/>
     <polygon id="_282" class="fil225" points="14981.89,10346.83 15657.66,15317 15576.27,15322.92 "/>
     <polygon id="_283" class="fil224" points="14981.89,10346.83 15592.55,15321.74 15511.04,15326.72 "/>
     <polygon id="_284" class="fil223" points="14981.89,10346.83 15527.34,15325.72 15445.73,15329.76 "/>
     <polygon id="_285" class="fil222" points="14981.89,10346.83 15462.05,15328.95 15380.35,15332.05 "/>
     <polygon id="_286" class="fil221" points="14981.89,10346.83 15396.69,15331.43 15314.91,15333.57 "/>
     <polygon id="_287" class="fil220" points="14981.89,10346.83 15331.27,15333.14 15249.42,15334.34 "/>
     <polygon id="_288" class="fil219" points="14981.89,10346.83 15265.79,15334.1 15183.89,15334.36 "/>
     <polygon id="_289" class="fil218" points="14981.89,10346.83 15200.27,15334.31 15118.33,15333.62 "/>
     <polygon id="_290" class="fil217" points="14981.89,10346.83 15134.72,15333.75 15052.75,15332.12 "/>
     <polygon id="_291" class="fil216" points="14981.89,10346.83 15069.14,15332.44 14987.15,15329.86 "/>
     <polygon id="_292" class="fil215" points="14981.89,10346.83 15003.55,15330.38 14921.56,15326.85 "/>
     <polygon id="_293" class="fil214" points="14981.89,10346.83 14937.96,15327.55 14855.98,15323.08 "/>
     <polygon id="_294" class="fil213" points="14981.89,10346.83 14872.37,15323.97 14790.41,15318.55 "/>
     <polygon id="_295" class="fil212" points="14981.89,10346.83 14806.8,15319.64 14724.87,15313.28 "/>
     <polygon id="_296" class="fil211" points="14981.89,10346.83 14741.26,15314.55 14659.38,15307.24 "/>
     <polygon id="_297" class="fil210" points="14981.89,10346.83 14675.75,15308.7 14593.93,15300.46 "/>
     <polygon id="_298" class="fil209" points="14981.89,10346.83 14610.29,15302.11 14528.54,15292.92 "/>
     <polygon id="_299" class="fil208" points="14981.89,10346.83 14544.89,15294.76 14463.22,15284.63 "/>
     <polygon id="_300" class="fil207" points="14981.89,10346.83 14479.55,15286.66 14397.97,15275.6 "/>
     <polygon id="_301" class="fil206" points="14981.89,10346.83 14414.29,15277.81 14332.82,15265.81 "/>
     <polygon id="_302" class="fil205" points="14981.89,10346.83 14349.12,15268.21 14267.77,15255.28 "/>
     <polygon id="_303" class="fil204" points="14981.89,10346.83 14284.04,15257.86 14202.82,15244 "/>
     <polygon id="_304" class="fil203" points="14981.89,10346.83 14219.06,15246.77 14137.99,15231.98 "/>
     <polygon id="_305" class="fil202" points="14981.89,10346.83 14154.21,15234.94 14073.29,15219.22 "/>
     <polygon id="_306" class="fil201" points="14981.89,10346.83 14089.48,15222.36 14008.73,15205.72 "/>
     <polygon id="_307" class="fil200" points="14981.89,10346.83 14024.88,15209.05 13944.31,15191.48 "/>
     <polygon id="_308" class="fil199" points="14981.89,10346.83 13960.43,15194.99 13880.06,15176.51 "/>
     <polygon id="_309" class="fil198" points="14981.89,10346.83 13896.13,15180.2 13815.97,15160.8 "/>
     <polygon id="_310" class="fil197" points="14981.89,10346.83 13832,15164.68 13752.05,15144.36 "/>
     <polygon id="_311" class="fil196" points="14981.89,10346.83 13768.04,15148.42 13688.33,15127.19 "/>
     <polygon id="_312" class="fil195" points="14981.89,10346.83 13704.27,15131.44 13624.8,15109.3 "/>
     <polygon id="_313" class="fil194" points="14981.89,10346.83 13640.69,15113.73 13561.47,15090.69 "/>
     <polygon id="_314" class="fil193" points="14981.89,10346.83 13577.32,15095.3 13498.37,15071.35 "/>
     <polygon id="_315" class="fil192" points="14981.89,10346.83 13514.16,15076.14 13435.48,15051.3 "/>
     <polygon id="_316" class="fil191" points="14981.89,10346.83 13451.22,15056.27 13372.83,15030.54 "/>
     <polygon id="_317" class="fil190" points="14981.89,10346.83 13388.51,15035.68 13310.43,15009.06 "/>
     <polygon id="_318" class="fil189" points="14981.89,10346.83 13326.05,15014.39 13248.28,14986.88 "/>
     <polygon id="_319" class="fil188" points="14981.89,10346.83 13263.83,14992.38 13186.39,14963.99 "/>
     <polygon id="_320" class="fil187" points="14981.89,10346.83 13201.88,14969.67 13124.78,14940.4 "/>
     <polygon id="_321" class="fil186" points="14981.89,10346.83 13140.2,14946.25 13063.44,14916.11 "/>
     <polygon id="_322" class="fil185" points="14981.89,10346.83 13078.8,14922.14 13002.4,14891.13 "/>
     <polygon id="_323" class="fil184" points="14981.89,10346.83 13017.68,14897.33 12941.66,14865.46 "/>
     <polygon id="_324" class="fil183" points="14981.89,10346.83 12956.87,14871.84 12881.23,14839.11 "/>
     <polygon id="_325" class="fil182" points="14981.89,10346.83 12896.36,14845.65 12821.12,14812.07 "/>
     <polygon id="_326" class="fil181" points="14981.89,10346.83 12836.17,14818.79 12761.33,14784.36 "/>
     <polygon id="_327" class="fil180" points="14981.89,10346.83 12776.3,14791.24 12701.88,14755.97 "/>
     <polygon id="_328" class="fil179" points="14981.89,10346.83 12716.77,14763.02 12642.78,14726.91 "/>
     <polygon id="_329" class="fil178" points="14981.89,10346.83 12657.58,14734.13 12584.04,14697.19 "/>
     <polygon id="_330" class="fil177" points="14981.89,10346.83 12598.74,14704.58 12525.65,14666.8 "/>
     <polygon id="_331" class="fil176" points="14981.89,10346.83 12540.27,14674.36 12467.64,14635.77 "/>
     <polygon id="_332" class="fil175" points="14981.89,10346.83 12482.17,14643.48 12410.01,14604.08 "/>
     <polygon id="_333" class="fil174" points="14981.89,10346.83 12424.45,14611.96 12352.78,14571.74 "/>
     <polygon id="_334" class="fil173" points="14981.89,10346.83 12367.11,14579.78 12295.94,14538.76 "/>
     <polygon id="_335" class="fil172" points="14981.89,10346.83 12310.17,14546.97 12239.51,14505.15 "/>
     <polygon id="_336" class="fil171" points="14981.89,10346.83 12253.64,14513.51 12183.49,14470.91 "/>
     <polygon id="_337" class="fil170" points="14981.89,10346.83 12197.52,14479.43 12127.9,14436.04 "/>
     <polygon id="_338" class="fil169" points="14981.89,10346.83 12141.83,14444.71 12072.74,14400.55 "/>
     <polygon id="_339" class="fil168" points="14981.89,10346.83 12086.56,14409.38 12018.03,14364.44 "/>
     <polygon id="_340" class="fil167" points="14981.89,10346.83 12031.73,14373.43 11963.76,14327.72 "/>
     <polygon id="_341" class="fil166" points="14981.89,10346.83 11977.36,14336.86 11909.95,14290.4 "/>
     <polygon id="_342" class="fil165" points="14981.89,10346.83 11923.44,14299.7 11856.61,14252.48 "/>
     <polygon id="_343" class="fil164" points="14981.89,10346.83 11869.98,14261.93 11803.75,14213.97 "/>
     <polygon id="_344" class="fil163" points="14981.89,10346.83 11816.99,14223.56 11751.36,14174.87 "/>
     <polygon id="_345" class="fil162" points="14981.89,10346.83 11764.49,14184.61 11699.47,14135.19 "/>
     <polygon id="_346" class="fil161" points="14981.89,10346.83 11712.47,14145.08 11648.07,14094.94 "/>
     <polygon id="_347" class="fil160" points="14981.89,10346.83 11660.95,14104.97 11597.18,14054.12 "/>
     <polygon id="_348" class="fil159" points="14981.89,10346.83 11609.93,14064.29 11546.8,14012.73 "/>
     <polygon id="_349" class="fil158" points="14981.89,10346.83 11559.43,14023.04 11496.95,13970.79 "/>
     <polygon id="_350" class="fil157" points="14981.89,10346.83 11509.45,13981.24 11447.62,13928.3 "/>
     <polygon id="_351" class="fil156" points="14981.89,10346.83 11459.99,13938.88 11398.83,13885.26 "/>
     <polygon id="_352" class="fil155" points="14981.89,10346.83 11411.06,13895.98 11350.59,13841.69 "/>
     <polygon id="_353" class="fil154" points="14981.89,10346.83 11362.68,13852.55 11302.89,13797.58 "/>
     <polygon id="_354" class="fil153" points="14981.89,10346.83 11314.85,13808.58 11255.76,13752.96 "/>
     <polygon id="_355" class="fil152" points="14981.89,10346.83 11267.58,13764.08 11209.19,13707.81 "/>
     <polygon id="_356" class="fil151" points="14981.89,10346.83 11220.86,13719.06 11163.19,13662.16 "/>
     <polygon id="_357" class="fil150" points="14981.89,10346.83 11174.72,13673.54 11117.77,13616 "/>
     <polygon id="_358" class="fil149" points="14981.89,10346.83 11129.16,13627.51 11072.94,13569.34 "/>
     <polygon id="_359" class="fil148" points="14981.89,10346.83 11084.18,13580.98 11028.7,13522.2 "/>
     <polygon id="_360" class="fil147" points="14981.89,10346.83 11039.8,13533.96 10985.06,13474.58 "/>
     <polygon id="_361" class="fil146" points="14981.89,10346.83 10996.01,13486.45 10942.03,13426.48 "/>
     <polygon id="_362" class="fil145" points="14981.89,10346.83 10952.82,13438.47 10899.61,13377.91 "/>
     <polygon id="_363" class="fil144" points="14981.89,10346.83 10910.25,13390.02 10857.81,13328.88 "/>
     <polygon id="_364" class="fil143" points="14981.89,10346.83 10868.3,13341.11 10816.64,13279.4 "/>
     <polygon id="_365" class="fil142" points="14981.89,10346.83 10826.97,13291.74 10776.09,13229.48 "/>
     <polygon id="_366" class="fil141" points="14981.89,10346.83 10786.27,13241.93 10736.19,13179.12 "/>
     <polygon id="_367" class="fil140" points="14981.89,10346.83 10746.21,13191.68 10696.93,13128.32 "/>
     <polygon id="_368" class="fil139" points="14981.89,10346.83 10706.79,13140.99 10658.33,13077.11 "/>
     <polygon id="_369" class="fil138" points="14981.89,10346.83 10668.02,13089.89 10620.37,13025.48 "/>
     <polygon id="_370" class="fil137" points="14981.89,10346.83 10629.9,13038.36 10583.08,12973.44 "/>
     <polygon id="_371" class="fil136" points="14981.89,10346.83 10592.45,12986.43 10546.46,12921.01 "/>
     <polygon id="_372" class="fil135" points="14981.89,10346.83 10555.66,12934.09 10510.51,12868.18 "/>
     <polygon id="_373" class="fil134" points="14981.89,10346.83 10519.54,12881.37 10475.24,12814.98 "/>
     <polygon id="_374" class="fil133" points="14981.89,10346.83 10484.1,12828.26 10440.66,12761.4 "/>
     <polygon id="_375" class="fil132" points="14981.89,10346.83 10449.35,12774.77 10406.76,12707.45 "/>
     <polygon id="_376" class="fil131" points="14981.89,10346.83 10415.28,12720.91 10373.56,12653.14 "/>
     <polygon id="_377" class="fil130" points="14981.89,10346.83 10381.9,12666.69 10341.05,12598.48 "/>
     <polygon id="_378" class="fil129" points="14981.89,10346.83 10349.22,12612.13 10309.26,12543.48 "/>
     <polygon id="_379" class="fil128" points="14981.89,10346.83 10317.25,12557.21 10278.17,12488.15 "/>
     <polygon id="_380" class="fil127" points="14981.89,10346.83 10285.98,12501.96 10247.79,12432.49 "/>
     <polygon id="_381" class="fil126" points="14981.89,10346.83 10255.43,12446.39 10218.13,12376.52 "/>
     <polygon id="_382" class="fil125" points="14981.89,10346.83 10225.59,12390.5 10189.2,12320.24 "/>
     <polygon id="_383" class="fil124" points="14981.89,10346.83 10196.48,12334.29 10160.99,12263.66 "/>
     <polygon id="_384" class="fil123" points="14981.89,10346.83 10168.09,12277.78 10133.52,12206.79 "/>
     <polygon id="_385" class="fil122" points="14981.89,10346.83 10140.43,12220.99 10106.78,12149.63 "/>
     <polygon id="_386" class="fil121" points="14981.89,10346.83 10113.51,12163.9 10080.78,12092.2 "/>
     <polygon id="_387" class="fil120" points="14981.89,10346.83 10087.33,12106.54 10055.53,12034.51 "/>
     <polygon id="_388" class="fil119" points="14981.89,10346.83 10061.89,12048.92 10031.02,11976.56 "/>
     <polygon id="_389" class="fil118" points="14981.89,10346.83 10037.19,11991.03 10007.26,11918.36 "/>
     <polygon id="_390" class="fil117" points="14981.89,10346.83 10013.25,11932.9 9984.26,11859.93 "/>
     <polygon id="_391" class="fil116" points="14981.89,10346.83 9990.06,11874.52 9962.02,11801.26 "/>
     <polygon id="_392" class="fil115" points="14981.89,10346.83 9967.63,11815.92 9940.54,11742.38 "/>
     <polygon id="_393" class="fil114" points="14981.89,10346.83 9945.96,11757.09 9919.82,11683.28 "/>
     <polygon id="_394" class="fil113" points="14981.89,10346.83 9925.05,11698.04 9899.88,11623.98 "/>
     <polygon id="_395" class="fil112" points="14981.89,10346.83 9904.91,11638.79 9880.7,11564.49 "/>
     <polygon id="_396" class="fil111" points="14981.89,10346.83 9885.54,11579.35 9862.3,11504.81 "/>
     <polygon id="_397" class="fil110" points="14981.89,10346.83 9866.95,11519.72 9844.67,11444.95 "/>
     <polygon id="_398" class="fil109" points="14981.89,10346.83 9849.13,11459.91 9827.83,11384.93 "/>
     <polygon id="_399" class="fil108" points="14981.89,10346.83 9832.09,11399.93 9811.77,11324.75 "/>
     <polygon id="_400" class="fil107" points="14981.89,10346.83 9815.83,11339.79 9796.49,11264.43 "/>
     <polygon id="_401" class="fil106" points="14981.89,10346.83 9800.36,11279.5 9782,11203.96 "/>
     <polygon id="_402" class="fil105" points="14981.89,10346.83 9785.67,11219.07 9768.3,11143.36 "/>
     <polygon id="_403" class="fil104" points="14981.89,10346.83 9771.77,11158.5 9755.39,11082.65 "/>
     <polygon id="_404" class="fil103" points="14981.89,10346.83 9758.67,11097.82 9743.27,11021.82 "/>
     <polygon id="_405" class="fil102" points="14981.89,10346.83 9746.35,11037.02 9731.95,10960.88 "/>
     <polygon id="_406" class="fil101" points="14981.89,10346.83 9734.83,10976.11 9721.43,10899.86 "/>
     <polygon id="_407" class="fil100" points="14981.89,10346.83 9724.11,10915.11 9711.7,10838.75 "/>
     <polygon id="_408" class="fil99" points="14981.89,10346.83 9714.18,10854.02 9702.77,10777.57 "/>
     <polygon id="_409" class="fil98" points="14981.89,10346.83 9705.05,10792.86 9694.65,10716.32 "/>
     <polygon id="_410" class="fil97" points="14981.89,10346.83 9696.73,10731.63 9687.33,10655.01 "/>
     <polygon id="_411" class="fil96" points="14981.89,10346.83 9689.21,10670.34 9680.81,10593.66 "/>
     <polygon id="_412" class="fil95" points="14981.89,10346.83 9682.49,10609 9675.09,10532.27 "/>
     <polygon id="_413" class="fil94" points="14981.89,10346.83 9676.57,10547.62 9670.18,10470.85 "/>
     <polygon id="_414" class="fil93" points="14981.89,10346.83 9671.46,10486.21 9666.08,10409.42 "/>
     <polygon id="_415" class="fil92" points="14981.89,10346.83 9667.16,10424.78 9662.78,10347.97 "/>
     <polygon id="_416" class="fil91" points="14981.89,10346.83 9663.66,10363.33 9660.3,10286.53 "/>
     <polygon id="_417" class="fil90" points="14981.89,10346.83 9660.97,10301.89 9658.61,10225.09 "/>
     <polygon id="_418" class="fil89" points="14981.89,10346.83 9659.09,10240.45 9657.74,10163.67 "/>
     <polygon id="_419" class="fil88" points="14981.89,10346.83 9658.01,10179.03 9657.68,10102.28 "/>
     <polygon id="_420" class="fil87" points="14981.89,10346.83 9657.74,10117.63 9658.42,10040.93 "/>
     <polygon id="_421" class="fil86" points="14981.89,10346.83 9658.29,10056.27 9659.97,9979.62 "/>
     <polygon id="_422" class="fil85" points="14981.89,10346.83 9659.63,9994.95 9662.33,9918.37 "/>
     <polygon id="_423" class="fil84" points="14981.89,10346.83 9661.79,9933.69 9665.5,9857.18 "/>
     <polygon id="_424" class="fil83" points="14981.89,10346.83 9664.76,9872.49 9669.47,9796.07 "/>
     <polygon id="_425" class="fil82" points="14981.89,10346.83 9668.53,9811.36 9674.25,9735.04 "/>
     <polygon id="_426" class="fil81" points="14981.89,10346.83 9673.11,9750.31 9679.84,9674.11 "/>
     <polygon id="_427" class="fil80" points="14981.89,10346.83 9678.49,9689.35 9686.23,9613.28 "/>
     <polygon id="_428" class="fil79" points="14981.89,10346.83 9684.68,9628.49 9693.42,9552.55 "/>
     <polygon id="_429" class="fil78" points="14981.89,10346.83 9691.67,9567.74 9701.42,9491.95 "/>
     <polygon id="_430" class="fil77" points="14981.89,10346.83 9699.47,9507.11 9710.21,9431.48 "/>
     <polygon id="_431" class="fil76" points="14981.89,10346.83 9708.06,9446.61 9719.81,9371.15 "/>
     <polygon id="_432" class="fil75" points="14981.89,10346.83 9717.46,9386.24 9730.21,9310.96 "/>
     <polygon id="_433" class="fil74" points="14981.89,10346.83 9727.66,9326.02 9741.4,9250.94 "/>
     <polygon id="_434" class="fil73" points="14981.89,10346.83 9738.65,9265.95 9753.39,9191.08 "/>
     <polygon id="_435" class="fil72" points="14981.89,10346.83 9750.44,9206.05 9766.17,9131.39 "/>
     <polygon id="_436" class="fil71" points="14981.89,10346.83 9763.03,9146.32 9779.75,9071.89 "/>
     <polygon id="_437" class="fil70" points="14981.89,10346.83 9776.41,9086.78 9794.11,9012.58 "/>
     <polygon id="_438" class="fil69" points="14981.89,10346.83 9790.57,9027.42 9809.26,8953.48 "/>
     <polygon id="_439" class="fil68" points="14981.89,10346.83 9805.53,8968.27 9825.2,8894.58 "/>
     <polygon id="_440" class="fil67" points="14981.89,10346.83 9821.27,8909.32 9841.92,8835.91 "/>
     <polygon id="_441" class="fil66" points="14981.89,10346.83 9837.79,8850.59 9859.42,8777.47 "/>
     <polygon id="_442" class="fil65" points="14981.89,10346.83 9855.09,8792.09 9877.7,8719.26 "/>
     <polygon id="_443" class="fil64" points="14981.89,10346.83 9873.18,8733.83 9896.75,8661.3 "/>
     <polygon id="_444" class="fil63" points="14981.89,10346.83 9892.03,8675.81 9916.57,8603.6 "/>
     <polygon id="_445" class="fil62" points="14981.89,10346.83 9911.66,8618.04 9937.16,8546.16 "/>
     <polygon id="_446" class="fil61" points="14981.89,10346.83 9932.06,8560.54 9958.52,8489 "/>
     <polygon id="_447" class="fil60" points="14981.89,10346.83 9953.23,8503.3 9980.64,8432.11 "/>
     <polygon id="_448" class="fil60" points="14981.89,10346.83 9975.16,8446.35 10003.52,8375.52 "/>
     <polygon id="_449" class="fil59" points="14981.89,10346.83 9997.85,8389.69 10027.16,8319.23 "/>
     <polygon id="_450" class="fil58" points="14981.89,10346.83 10021.3,8333.32 10051.54,8263.24 "/>
     <polygon id="_451" class="fil58" points="14981.89,10346.83 10045.49,8277.26 10076.68,8207.57 "/>
     <polygon id="_452" class="fil57" points="14981.89,10346.83 10070.44,8221.51 10102.56,8152.23 "/>
     <polygon id="_453" class="fil56" points="14981.89,10346.83 10096.14,8166.09 10129.18,8097.22 "/>
     <polygon id="_454" class="fil55" points="14981.89,10346.83 10122.57,8110.99 10156.54,8042.55 "/>
     <polygon id="_455" class="fil54" points="14981.89,10346.83 10149.74,8056.24 10184.63,7988.23 "/>
     <polygon id="_456" class="fil53" points="14981.89,10346.83 10177.65,8001.83 10213.44,7934.26 "/>
     <polygon id="_457" class="fil52" points="14981.89,10346.83 10206.29,7947.78 10242.99,7880.67 "/>
     <polygon id="_458" class="fil51" points="14981.89,10346.83 10235.65,7894.09 10273.25,7827.45 "/>
     <polygon id="_459" class="fil50" points="14981.89,10346.83 10265.73,7840.78 10304.22,7774.61 "/>
     <polygon id="_460" class="fil49" points="14981.89,10346.83 10296.52,7787.84 10335.91,7722.16 "/>
     <polygon id="_461" class="fil48" points="14981.89,10346.83 10328.03,7735.3 10368.3,7670.11 "/>
     <polygon id="_462" class="fil47" points="14981.89,10346.83 10360.24,7683.15 10401.39,7618.46 "/>
     <polygon id="_463" class="fil46" points="14981.89,10346.83 10393.16,7631.4 10435.17,7567.23 "/>
     <polygon id="_464" class="fil45" points="14981.89,10346.83 10426.77,7580.07 10469.65,7516.43 "/>
     <polygon id="_465" class="fil44" points="14981.89,10346.83 10461.07,7529.16 10504.81,7466.05 "/>
     <polygon id="_466" class="fil43" points="14981.89,10346.83 10496.06,7478.67 10540.65,7416.11 "/>
     <polygon id="_467" class="fil42" points="14981.89,10346.83 10531.73,7428.62 10577.17,7366.61 "/>
     <polygon id="_468" class="fil41" points="14981.89,10346.83 10568.08,7379.01 10614.35,7317.57 "/>
     <polygon id="_469" class="fil40" points="14981.89,10346.83 10605.09,7329.86 10652.2,7268.98 "/>
     <polygon id="_470" class="fil39" points="14981.89,10346.83 10642.77,7281.16 10690.7,7220.86 "/>
     <polygon id="_471" class="fil38" points="14981.89,10346.83 10681.11,7232.92 10729.85,7173.22 "/>
     <polygon id="_472" class="fil37" points="14981.89,10346.83 10720.1,7185.16 10769.65,7126.06 "/>
     <polygon id="_473" class="fil36" points="14981.89,10346.83 10759.74,7137.88 10810.09,7079.39 "/>
     <polygon id="_474" class="fil35" points="14981.89,10346.83 10800.02,7091.09 10851.16,7033.21 "/>
     <polygon id="_475" class="fil34" points="14981.89,10346.83 10840.94,7044.79 10892.86,6987.54 "/>
     <polygon id="_476" class="fil33" points="14981.89,10346.83 10882.48,6998.99 10935.18,6942.37 "/>
     <polygon id="_477" class="fil32" points="14981.89,10346.83 10924.64,6953.7 10978.12,6897.73 "/>
     <polygon id="_478" class="fil31" points="14981.89,10346.83 10967.42,6908.92 11021.66,6853.6 "/>
     <polygon id="_479" class="fil30" points="14981.89,10346.83 11010.81,6864.67 11065.8,6810.01 "/>
     <polygon id="_480" class="fil29" points="14981.89,10346.83 11054.8,6820.94 11110.54,6766.95 "/>
     <polygon id="_481" class="fil28" points="14981.89,10346.83 11099.39,6777.75 11155.86,6724.44 "/>
     <polygon id="_482" class="fil27" points="14981.89,10346.83 11144.57,6735.1 11201.77,6682.48 "/>
     <polygon id="_483" class="fil26" points="14981.89,10346.83 11190.33,6693 11248.25,6641.07 "/>
     <polygon id="_484" class="fil25" points="14981.89,10346.83 11236.67,6651.46 11295.3,6600.23 "/>
     <polygon id="_485" class="fil24" points="14981.89,10346.83 11283.57,6610.47 11342.9,6559.95 "/>
     <polygon id="_486" class="fil23" points="14981.89,10346.83 11331.03,6570.06 11391.06,6520.25 "/>
     <polygon id="_487" class="fil22" points="14981.89,10346.83 11379.05,6530.21 11439.76,6481.13 "/>
     <polygon id="_488" class="fil21" points="14981.89,10346.83 11427.62,6490.95 11489,6442.6 "/>
     <polygon id="_489" class="fil20" points="14981.89,10346.83 11476.73,6452.27 11538.77,6404.66 "/>
     <polygon id="_490" class="fil19" points="14981.89,10346.83 11526.36,6414.18 11589.07,6367.31 "/>
     <polygon id="_491" class="fil18" points="14981.89,10346.83 11576.53,6376.69 11639.87,6330.57 "/>
     <polygon id="_492" class="fil17" points="14981.89,10346.83 11627.2,6339.8 11691.19,6294.45 "/>
     <polygon id="_493" class="fil16" points="14981.89,10346.83 11678.39,6303.52 11743.01,6258.93 "/>
     <polygon id="_494" class="fil15" points="14981.89,10346.83 11730.08,6267.85 11795.31,6224.04 "/>
     <polygon id="_495" class="fil14" points="14981.89,10346.83 11782.27,6232.8 11848.1,6189.77 "/>
     <polygon id="_496" class="fil13" points="14981.89,10346.83 11834.93,6198.38 11901.37,6156.13 "/>
     <polygon id="_497" class="fil12" points="14981.89,10346.83 11888.08,6164.58 11955.1,6123.13 "/>
     <polygon id="_498" class="fil11" points="14981.89,10346.83 11941.7,6131.42 12009.29,6090.77 "/>
     <polygon id="_499" class="fil10" points="14981.89,10346.83 11995.77,6098.9 12063.94,6059.06 "/>
     <polygon id="_500" class="fil9" points="14981.89,10346.83 12050.31,6067.03 12119.03,6028 "/>
     <polygon id="_501" class="fil8" points="14981.89,10346.83 12105.28,6035.8 12174.55,5997.59 "/>
     <polygon id="_502" class="fil7" points="14981.89,10346.83 12160.69,6005.23 12230.49,5967.84 "/>
     <polygon id="_503" class="fil6" points="14981.89,10346.83 12216.53,5975.32 12286.86,5938.76 "/>
     <polygon id="_504" class="fil5" points="14981.89,10346.83 12272.79,5946.07 12343.63,5910.35 "/>
     <polygon id="_505" class="fil4" points="14981.89,10346.83 12329.47,5917.49 12400.81,5882.61 "/>
     <polygon id="_506" class="fil3" points="14981.89,10346.83 12386.54,5889.58 12458.37,5855.54 "/>
     <polygon id="_507" class="fil2" points="14981.89,10346.83 12444.01,5862.35 12516.32,5829.16 "/>
     <polygon id="_508" class="fil1" points="14981.89,10346.83 12501.86,5835.8 12574.65,5803.47 "/>
     <polygon id="_509" class="fil254" points="14981.89,10346.83 12560.09,5809.93 12618.69,5784.76 "/>
    </g>
   </g>
   <path class="fil255" d="M13805.02 10892.08l867.74 -2.81 0.47 0.63 175.1 0 -16.71 -30.48 -67.34 -122.85 -268.74 -490.18 -986.08 -1798.61 -1870.54 0.72c28.25,41.5 68.22,127.64 99.4,180.59l1503.38 2607.21c132.57,234.54 267.5,459.21 402.32,695.43l1002.94 1742.68c47.42,80.66 146.35,274.12 199.31,332.17 50.79,-52.91 191.64,-319.74 240.68,-403.49 46.58,-79.55 93.83,-162.18 140.8,-244.68l-381.48 -661.29 -1041.25 -1805.04zm968.15 -815.32l1585.2 -0.16 -999.69 1744.18 -382.03 -708.63c-253.99,0 -511.19,0.54 -766.53,1.83l1148.56 2016.57 2130.27 -3707.14 -2276.81 -0.64 -182.88 -322.33 2667.6 -0.49 346.74 -646.83 -4162.48 -3.48 892.05 1627.12zm-1348.14 156.43l-652.75 -1131.71 357.25 1.06c47.02,47.75 131.03,214.49 166.57,276.84 143.46,251.65 373.71,624.63 490.3,855.27l-361.37 -1.46z"/>
  </g>
 </g>
</svg>
