<?xml version="1.0" encoding="UTF-8"?>
<!DOCTYPE svg PUBLIC "-//W3C//DTD SVG 1.1//EN" "http://www.w3.org/Graphics/SVG/1.1/DTD/svg11.dtd">
<!-- Creator: CorelDRAW -->
<svg xmlns="http://www.w3.org/2000/svg" xml:space="preserve" width="75mm" height="70mm" version="1.1" style="shape-rendering:geometricPrecision; text-rendering:geometricPrecision; image-rendering:optimizeQuality; fill-rule:evenodd; clip-rule:evenodd"
viewBox="0 0 7500 7000"
 xmlns:xlink="http://www.w3.org/1999/xlink"
 xmlns:xodm="http://www.corel.com/coreldraw/odm/2003">
 <defs>
  <style type="text/css">
   <![CDATA[
    .fil43 {fill:#199FAC}
    .fil3 {fill:#384A52}
    .fil83 {fill:#385769}
    .fil34 {fill:#44555D}
    .fil80 {fill:#465A65}
    .fil81 {fill:#495D69}
    .fil82 {fill:#4D6975}
    .fil9 {fill:#526B76}
    .fil16 {fill:#546F7A}
    .fil84 {fill:#556D84}
    .fil2 {fill:#55707B}
    .fil63 {fill:#566E7A}
    .fil62 {fill:#56717D}
    .fil49 {fill:#567276}
    .fil51 {fill:#57A2AE}
    .fil48 {fill:#5A717D}
    .fil47 {fill:#5B7582}
    .fil45 {fill:#64757B}
    .fil44 {fill:#657B86}
    .fil46 {fill:#6B828C}
    .fil87 {fill:#6F8794}
    .fil15 {fill:#78909C}
    .fil57 {fill:#7A929E}
    .fil68 {fill:#7B8D95}
    .fil61 {fill:#7B929C}
    .fil12 {fill:#82949C}
    .fil86 {fill:#8DA2AB}
    .fil52 {fill:#9099A5}
    .fil88 {fill:#95A9B4}
    .fil50 {fill:#A1CCD6}
    .fil32 {fill:#A8B6BA}
    .fil27 {fill:#ACAEAF}
    .fil53 {fill:#ACBCBD}
    .fil89 {fill:#B0BFC6}
    .fil41 {fill:#B1BDC2}
    .fil64 {fill:#B3A88F}
    .fil60 {fill:#C5B4AD}
    .fil91 {fill:#CCB090}
    .fil36 {fill:#CDD6DA}
    .fil7 {fill:#CED9DB}
    .fil5 {fill:#CFD8DD}
    .fil6 {fill:#D1DADE}
    .fil28 {fill:#D2988A}
    .fil79 {fill:#D3CC90}
    .fil4 {fill:#D3DCE1}
    .fil67 {fill:#D4DADD}
    .fil92 {fill:#D69075}
    .fil20 {fill:#D6C771}
    .fil54 {fill:#D7F0EF}
    .fil8 {fill:#D8DBE2}
    .fil10 {fill:#DCE2E5}
    .fil55 {fill:#E2E5E5}
    .fil23 {fill:#E2EBF0}
    .fil39 {fill:#E7D786}
    .fil26 {fill:#E9A967}
    .fil58 {fill:#EA7963}
    .fil66 {fill:#EBECED}
    .fil69 {fill:#EBEFF2}
    .fil40 {fill:#ECDB78}
    .fil76 {fill:#ED9586}
    .fil65 {fill:#F0D4C9}
    .fil35 {fill:#F3DC73}
    .fil11 {fill:#F3F4F5}
    .fil37 {fill:#F3F6FA}
    .fil14 {fill:#F4DB76}
    .fil71 {fill:#F4DB7B}
    .fil31 {fill:#F5AC8D}
    .fil75 {fill:#F68656}
    .fil73 {fill:#F87747}
    .fil30 {fill:#F8C9B2}
    .fil90 {fill:#F8D557}
    .fil78 {fill:#F8EEB3}
    .fil29 {fill:#F9B12B}
    .fil42 {fill:#F9EDCF}
    .fil85 {fill:#FAE598}
    .fil17 {fill:#FAFAFA}
    .fil74 {fill:#FBC818}
    .fil59 {fill:#FC7443}
    .fil70 {fill:#FCB90D}
    .fil19 {fill:#FCF8EA}
    .fil1 {fill:#FCFBFD}
    .fil24 {fill:#FCFCFE}
    .fil22 {fill:#FD7141}
    .fil33 {fill:#FDCA2C}
    .fil72 {fill:#FDE6AA}
    .fil18 {fill:#FDFCF5}
    .fil56 {fill:#FE5722}
    .fil25 {fill:#FE7145}
    .fil13 {fill:#FEC828}
    .fil38 {fill:#FECA2A}
    .fil77 {fill:#FEE9B5}
    .fil93 {fill:#FEFEFA}
    .fil0 {fill:#FEFEFD}
    .fil21 {fill:#FF7143}
   ]]>
  </style>
 </defs>
 <g id="Camada_x0020_1">
  <metadata id="CorelCorpID_0Corel-Layer"/>
  <g id="_2144560112544">
   <g>
    <path class="fil0" d="M3454.66 219.46l662.93 -1.19 -1.52 27.5 5.4 29.38 1.33 25.79 3.93 15.55c-7.36,-14.14 -1.6,-4.17 -7.76,0.73l3.93 17.62 -4.05 21.21 -6.35 18.15 -53.43 1.89c29.06,7.19 24.01,3.84 54.64,-1.62l9.64 17.31 -9.65 24.38c5.29,21.98 -7.46,18.3 13.09,18.9l-12.28 6.73 3.33 34.65 -26.9 -0.45 -15.38 10.22c5.89,0.99 13.7,0.92 15.27,7.94 1.38,6.15 6.72,6.86 10.47,9.85l16.19 0.35 -1.15 29.65 0.66 30.21 -4.08 27.09 9.54 30.45 -2.45 23.64c-21.64,21.01 6.1,1.49 -18.83,12.79 -0.01,0 -21.47,5.08 -22.73,5.48 65.47,0 30.02,2.46 43.89,16.53l-2.89 22.98 -11.51 18.48c-1.1,-1.91 -3.66,6.61 -6.55,8.91l37.35 2.85 -28.88 47.92c54.11,-11.68 -23.2,-10.63 -41.88,-12.85l-8.92 25.57 57.44 0.95 1.88 20.4c-38.1,19.21 -276.17,7.35 -338.77,7.35 -41.3,0 -317.01,8.41 -325.93,-9.57 -25.33,16.22 -15.06,-17.02 -21.16,20.06 16.66,27.91 -23.17,-22.41 -0.42,-25.69l0.34 -101.52c-26.6,7.44 -27.74,-9.45 -23.74,8.47 -39.04,44.58 24.92,-1.55 -20.52,5.61 -1.18,0.19 -4.38,0.64 -6.46,1.37 0,14.89 -16.15,274.94 32.79,291.72 23.08,7.92 0.7,2.54 17.93,-2.41 -20.96,-24.46 -20.38,-26.71 -29.9,-62.5l13.29 11.69c21.9,26.17 6.29,19.95 18.99,42.38 -7.3,-48.78 -0.33,-9.21 11.57,-25.39 43.77,-114.88 183.64,-104.21 210.79,-5 13.94,50.9 -5.73,103.38 -51.55,127.5 -73.71,38.81 -100.54,-10.54 -138.81,-20.99l-25.81 -4.02c-18.19,-37.11 -7.68,-28.13 -59.29,-29.76l3.89 152.17 691.54 0.04 2.87 -145.74c-32.06,-6.13 -15.52,10.43 -24.5,-16.46 60.01,4.34 96.01,9.91 155.85,9.91l0 -948.18 -779.86 0.78c-21.89,7.07 -7.17,1.67 -24.39,16.11 29.42,22.51 -40.25,14.68 67.58,8.19l245.69 0.23c-1.85,-2.37 9.68,-13.96 -24.85,-10.11 -68.6,7.64 -19.94,-1.5 -42.88,27.04l68.44 -0.54c-22.89,-20.69 -168.39,-4.55 -229.54,-7.6 -78.99,-3.94 -74.39,-18.48 -65.61,52.63 1.97,15.92 -0.88,41.99 1.35,65.58l13.68 -14.25c8.75,-9.42 4.55,-5.52 13.68,-15.04z"/>
    <path class="fil1" d="M3356.18 1198.75l29.43 -1.88 -3.89 -152.17c51.61,1.63 41.1,-7.35 59.29,29.76l25.81 4.02c-14.19,-36.7 -23.42,-54.6 -20.43,-101.51 -11.9,16.18 -18.87,-23.39 -11.57,25.39 -12.7,-22.43 2.91,-16.21 -18.99,-42.38l-13.29 -11.69c9.52,35.79 8.94,38.04 29.9,62.5 -17.23,4.95 5.15,10.33 -17.93,2.41 -48.94,-16.78 -32.79,-276.83 -32.79,-291.72 2.08,-0.73 5.28,-1.18 6.46,-1.37 45.44,-7.16 -18.52,38.97 20.52,-5.61 23.72,-39.05 -6.91,-83.67 -6.92,-83.69 -7.63,-22.79 -3.21,-58.85 -3.21,-85.68 -31.54,20.17 -1.08,6.46 16.93,16.89 -1.12,-23.94 0.37,-12.79 -3.36,-32.74 -0.33,-1.76 -2.36,-2.36 -2.64,-5.67 -0.23,-2.66 -2.14,-2.58 -3.19,-3.88 22.78,21.83 -10.52,1.68 34.59,25.35 -2.9,-34.61 7.96,-22.73 -9.1,-24.64 5.95,30.43 -3.98,11.12 22.86,17.78l-0.01 -33.07 646.65 -1.15c-3.75,-2.99 -9.09,-3.7 -10.47,-9.85 -1.57,-7.02 -9.38,-6.95 -15.27,-7.94l15.38 -10.22 -637.01 -3.35 0.97 -23.63c85.65,-11.5 240.14,-2.41 333.18,-2.41 64.8,0 280.55,8.86 326.43,-4.81l12.28 -6.73c-20.55,-0.6 -7.8,3.08 -13.09,-18.9 -119.08,8.2 -369.73,1.76 -511.89,1.76 -137.72,0 -139.97,16.56 -149.22,-28.91l670.76 2.77 -9.64 -17.31c-30.63,5.46 -25.58,8.81 -54.64,1.62l53.43 -1.89 6.35 -18.15c-87.49,9.68 -391.8,2.69 -517.04,2.69 -173.51,0 -142.59,10.14 -147.62,-27.04l668.71 3.14 -3.93 -17.62c6.16,-4.9 0.4,-14.87 7.76,-0.73l-3.93 -15.55 -669.3 2.32c7.1,-44.15 17.33,-29.46 72.11,-28.83l595.86 0.72 -5.4 -29.38 -661.28 -4.08 -0.13 -22.23c-9.13,9.52 -4.93,5.62 -13.68,15.04l-13.68 14.25c-2.23,-23.59 0.62,-49.66 -1.35,-65.58 -8.78,-71.11 -13.38,-56.57 65.61,-52.63 61.15,3.05 206.65,-13.09 229.54,7.6l-68.44 0.54c22.94,-28.54 -25.72,-19.4 42.88,-27.04 34.53,-3.85 23,7.74 24.85,10.11l-245.69 -0.23c-107.83,6.49 -38.16,14.32 -67.58,-8.19 17.22,-14.44 2.5,-9.04 24.39,-16.11l779.86 -0.78 0 948.18c-59.84,0 -95.84,-5.57 -155.85,-9.91 8.98,26.89 -7.56,10.33 24.5,16.46l146.27 2.75 0.47 -979.72 -868.17 -1.97 -2.41 1126.52z"/>
    <path class="fil1" d="M3408.7 714.5c-4,-17.92 -2.86,-1.03 23.74,-8.47l-0.34 101.52c-22.75,3.28 17.08,53.6 0.42,25.69 6.1,-37.08 -4.17,-3.84 21.16,-20.06l3.22 -17.01 602.16 -2.12 8.92 -25.57c18.68,2.22 95.99,1.17 41.88,12.85l28.88 -47.92 -37.35 -2.85c2.89,-2.3 5.45,-10.82 6.55,-8.91l11.51 -18.48c-107.2,12.65 -446.79,1.3 -602.33,3.96 -56.53,0.96 -56.94,13.22 -63.35,-29.36l668.57 2.42c-13.87,-14.07 21.58,-16.53 -43.89,-16.53 1.26,-0.4 22.72,-5.48 22.73,-5.48 24.93,-11.3 -2.81,8.22 18.83,-12.79l-666.05 1.55c5.22,-33.85 -23.88,-27.87 71.65,-26.81l596.85 1.62 -9.54 -30.45 -657.91 -2.09 1.16 -25.14 660.83 0.14 -0.66 -30.21 -661.68 4.22c-26.84,-6.66 -16.91,12.65 -22.86,-17.78 17.06,1.91 6.2,-9.97 9.1,24.64 -45.11,-23.67 -11.81,-3.52 -34.59,-25.35 1.05,1.3 2.96,1.22 3.19,3.88 0.28,3.31 2.31,3.91 2.64,5.67 3.73,19.95 2.24,8.8 3.36,32.74 -18.01,-10.43 -48.47,3.28 -16.93,-16.89 0,26.83 -4.42,62.89 3.21,85.68 0.01,0.02 30.64,44.64 6.92,83.69z"/>
    <path class="fil2" d="M3446.39 976.97c-2.99,46.91 6.24,64.81 20.43,101.51 38.27,10.45 65.1,59.8 138.81,20.99 45.82,-24.12 65.49,-76.6 51.55,-127.5 -27.15,-99.21 -167.02,-109.88 -210.79,5z"/>
    <path class="fil3" d="M4307.61 940.61l20.78 4.02 5.51 -7.98 1.38 -444.35 28.78 -10.34 0.31 -17.15 -30.36 -10.02 -0.22 -210.54c22.94,-2.96 13.03,-2.6 30.72,10.86 1.15,0.87 3.3,2.58 4.37,3.42l16.78 12.9c-7.18,49.95 -16.03,150.66 3.55,189.41 25.99,-14.87 11.97,-10.52 13.85,-100.03 0.84,-40.49 1.97,-79.58 1.32,-120.15l-45.78 -21.34c-0.81,-1.14 -2.02,-3.95 -3.29,-5.76l-50.79 -0.03 3.09 727.08z"/>
    <polygon class="fil4" points="3454.66,538.22 4116.34,534 4117.49,504.35 4101.3,504 3454.65,505.15 "/>
    <path class="fil5" d="M4119.45 703.17l2.89 -22.98 -668.57 -2.42c6.41,42.58 6.82,30.32 63.35,29.36 155.54,-2.66 495.13,8.69 602.33,-3.96z"/>
    <path class="fil4" d="M3453.68 813.18c8.92,17.98 284.63,9.57 325.93,9.57 62.6,0 300.67,11.86 338.77,-7.35l-1.88 -20.4 -57.44 -0.95 -602.16 2.12 -3.22 17.01z"/>
    <path class="fil6" d="M4113.7 416.16l9.65 -24.38 -670.76 -2.77c9.25,45.47 11.5,28.91 149.22,28.91 142.16,0 392.81,6.44 511.89,-1.76z"/>
    <path class="fil4" d="M4090.94 475.99l26.9 0.45 -3.33 -34.65c-45.88,13.67 -261.63,4.81 -326.43,4.81 -93.04,0 -247.53,-9.09 -333.18,2.41l-0.97 23.63 637.01 3.35z"/>
    <path class="fil5" d="M3385.61 1196.87l-29.43 1.88c35.59,14.79 636.78,9.39 719.77,5.41l150.34 -150.24 -146.27 -2.75 -2.87 145.74 -691.54 -0.04z"/>
    <path class="fil6" d="M4122.8 300.94l-1.33 -25.79 -595.86 -0.72c-54.78,-0.63 -65.01,-15.32 -72.11,28.83l669.3 -2.32z"/>
    <path class="fil7" d="M3454.43 750.83c17.64,23.26 100.44,13.31 155.85,13.31l338.67 0c28.21,0 56.44,-0.06 84.66,-0.01 100.84,0.17 67.37,6.81 81.22,-16.2 -25.84,-16.12 -23.33,-11.09 -72.77,-10.78 -28.2,0.18 -56.44,0.02 -84.65,0.02l-466.19 -1.01c-63.33,4.91 -17.29,-1.94 -36.79,14.67z"/>
    <path class="fil6" d="M4118.85 356.05l4.05 -21.21 -668.71 -3.14c5.03,37.18 -25.89,27.04 147.62,27.04 125.24,0 429.55,6.99 517.04,-2.69z"/>
    <polygon class="fil4" points="4112.92,591.3 4117,564.21 3456.17,564.07 3455.01,589.21 "/>
    <path class="fil5" d="M4120.01 645.39l2.45 -23.64 -596.85 -1.62c-95.53,-1.06 -66.43,-7.04 -71.65,26.81l666.05 -1.55z"/>
    <polygon class="fil4" points="4116.07,245.77 4117.59,218.27 3454.66,219.46 3454.79,241.69 "/>
    <polygon class="fil2" points="4333.9,936.65 4364.54,935.64 4364.06,481.96 4335.28,492.3 "/>
    <path class="fil3" d="M3839.45 1046.02c47.55,-8.37 268.84,-71.46 285.95,-102.14 -19.33,-9.8 -29.14,0.26 -56.45,9.29 -43.82,14.49 -34.05,6.12 -70.5,-5.35 -31.74,26.06 -13.68,36.69 -57.48,43.85l-31.46 -63.18c-48.53,10.95 -61.15,76.66 -70.06,117.53z"/>
    <path class="fil8" d="M3453.56 184.98c44.13,4.34 237.16,8.94 265.03,-4.7l0.83 -21.99 -265.67 -1.77 -0.19 28.46z"/>
    <path class="fil1" d="M3600.95 1029.87c10.61,-99.88 -75.75,-85.97 -93.06,-44.93 -19.82,46.99 26.98,92.78 93.06,44.93z"/>
    <path class="fil9" d="M4364.37 464.81l-0.87 -182.52c11.45,-16.51 -2.52,-4.24 22.16,-10.86l-16.78 -12.9c-1.07,-0.84 -3.22,-2.55 -4.37,-3.42 -17.69,-13.46 -7.78,-13.82 -30.72,-10.86l0.22 210.54 30.36 10.02z"/>
    <path class="fil10" d="M4328.39 944.63l-20.78 -4.02c3.77,25.45 24.07,184.11 47.47,70.12 4.83,-23.54 7.35,-39.23 9.15,-62.75l-35.84 -3.35z"/>
    <path class="fil11" d="M3874.28 1003.08c5.86,11.35 -10.72,10.8 15.13,6.88l28.47 -6.46 -17.2 -47.47 -26.4 47.05z"/>
    <path class="fil12" d="M3889.41 1009.96c-25.85,3.92 -9.27,4.47 -15.13,-6.88l-11.67 16.93 26.8 -10.05z"/>
   </g>
   <g>
    <path class="fil13" d="M4927.64 1607.33c-0.62,76.32 174.99,46.74 232.04,46.74 85.13,0 197.78,-6.23 279.4,1.91l52.43 50.63 19.72 23.25c5.13,10.77 110.18,144.9 137.09,152.6l1.36 -225.94c67.62,-6.9 169.35,20.11 178.53,-69.62 7.27,-71.11 -1.61,-169.78 0.93,-245.35 -57.1,-7.38 -211.31,-7.89 -266.2,1.84l-22.26 20.83c-28.33,-1.85 -23.49,3.97 -40.69,-19.23 -38.6,-10.27 -51.41,-8.59 -90.66,-3.11l-15.64 20.48c-33.24,3.6 -25.76,1.54 -45.48,-17.78l-62.4 -7.63c-0.96,0.59 -12.22,-1.6 -21.99,11.5l-10.75 15.59c-36.41,0.88 -28.1,2.6 -48.85,-19.72 -61.83,-18.08 -206.8,-6.95 -280.03,-5.5l3.45 268.51z"/>
    <path class="fil14" d="M4919.99 1203.78l-2.77 382.74 10.42 20.81 -3.45 -268.51c73.23,-1.45 218.2,-12.58 280.03,5.5l2.33 -39.81c33.77,-14.31 25.59,-13.26 58.39,-0.18l-1.12 44.12c9.77,-13.1 21.03,-10.91 21.99,-11.5l62.4 7.63c-4.14,-42.25 10.63,-64.52 56.92,-37.04l4.2 34.34c39.25,-5.48 52.06,-7.16 90.66,3.11l0.34 -34.3c43.67,-36.35 65.45,-10.31 62.61,32.7 54.89,-9.73 209.1,-9.22 266.2,-1.84 -1.68,-62.22 -0.91,-124.56 -0.91,-186.82 0,-69.32 16.41,-104.01 -35.71,-149.8 -76.24,-17.33 -323.49,-6.67 -417.22,-6.09l-409.11 4.77c-68.33,23.1 -50.42,137.47 -46.2,200.17z"/>
    <path class="fil15" d="M4531.93 1158.61l1.2 -258.37 230.87 1.5 10.06 -38.47c36.91,-8.8 33.2,-9.43 55.75,12.02l0.37 42.33c2.37,-1.93 6.33,-7.47 7.52,-5.23l68.33 -5.37c3.73,-47.56 27.69,-69.8 64.68,-30.06l2.77 31.09c34.89,-10.5 48.95,-9.55 84.83,-3.92 5.94,-63.76 59.59,-66.55 67.03,3.21 59.74,-16.5 174.87,-5.32 242.14,-6.77l4.64 92.07c-65.84,3.25 -378.12,-12.36 -405.93,10.97l409.11 -4.77c10.53,-45.18 0.48,-161.17 0.49,-216.65 0.02,-81.5 19.08,-131.18 -34.86,-187.12l-782.34 1.13c-31.57,60.45 -31.13,10.37 -30.81,109.78 0.16,50.69 0.71,101.79 0.51,152.41 -0.25,65.8 -18.12,252.28 3.64,300.22z"/>
    <path class="fil16" d="M4531.93 1158.61c22.09,67.09 82.1,37.96 136.72,47.49 32.82,16.95 12.86,170.87 14.67,213 30.59,-18.34 125.21,-135.43 157.74,-176.54 34.81,-44.01 17.54,-39.2 78.93,-38.78 -4.22,-62.7 -22.13,-177.07 46.2,-200.17 27.81,-23.33 340.09,-7.72 405.93,-10.97l-4.64 -92.07c-67.27,1.45 -182.4,-9.73 -242.14,6.77l-17.2 19.27 -37.15 0.35 -12.68 -22.83c-35.88,-5.63 -49.94,-6.58 -84.83,3.92l-13.52 19.14 -39.42 -1.06 -14.51 -19.11 -68.33 5.37c-1.19,-2.24 -5.15,3.3 -7.52,5.23 -28.64,13.39 -17.45,11.91 -51.04,7.49l-15.14 -23.37 -230.87 -1.5 -1.2 258.37z"/>
    <path class="fil17" d="M4764 901.74l15.14 23.37c33.59,4.42 22.4,5.9 51.04,-7.49l-0.37 -42.33c-22.55,-21.45 -18.84,-20.82 -55.75,-12.02l-10.06 38.47z"/>
    <path class="fil17" d="M4906.03 907.02l14.51 19.11 39.42 1.06 13.52 -19.14 -2.77 -31.09c-36.99,-39.74 -60.95,-17.5 -64.68,30.06z"/>
    <path class="fil17" d="M5058.31 904.13l12.68 22.83 37.15 -0.35 17.2 -19.27c-7.44,-69.76 -61.09,-66.97 -67.03,-3.21z"/>
    <path class="fil18" d="M5499.99 1344.99c17.2,23.2 12.36,17.38 40.69,19.23l22.26 -20.83c2.84,-43.01 -18.94,-69.05 -62.61,-32.7l-0.34 34.3z"/>
    <path class="fil19" d="M5204.22 1344.32c20.75,22.32 12.44,20.6 48.85,19.72l10.75 -15.59 1.12 -44.12c-32.8,-13.08 -24.62,-14.13 -58.39,0.18l-2.33 39.81z"/>
    <path class="fil18" d="M5348.21 1344.58c19.72,19.32 12.24,21.38 45.48,17.78l15.64 -20.48 -4.2 -34.34c-46.29,-27.48 -61.06,-5.21 -56.92,37.04z"/>
    <polygon class="fil20" points="5511.23,1729.86 5491.51,1706.61 "/>
   </g>
   <g>
    <g>
     <path class="fil21" d="M1301.94 3127.41c-7.11,12.92 1.73,12.58 -18.24,16.66l-128.64 -0.96c-25.18,-2.16 -52.41,-0.67 -75.86,0.57l-3.51 25.36 -1.72 1.48 5.62 -27.45 101.35 3.01 2.53 25.61 0.57 146.91 -20.67 3.77c28.78,21.58 -9.15,-25.96 4.85,8.32 -38.65,22.4 -28.92,19.21 -75,11.94l53.3 5c-55.6,0 -35.54,-8.93 -76.2,25.32 -3.24,-25.28 -4.29,-25.4 -25.44,-8.43 1.19,1.26 2.97,2.99 3.59,3.74l4.92 63.95c-15.78,-26.7 -3.3,-9.72 -25.4,-33.78l19.87 155.6 22.42 -7.45 3.17 -162.94c34.14,-9.13 77.64,-8.64 111.89,2.12 2.85,29.39 10.77,160.21 -8.15,171.77l-98.02 1.67 -12.79 0.6c15.46,18.56 -39.47,16.35 88.57,16.35l0 -6.28c-23.29,0 -47.77,-4.98 -59.31,6.36 42.33,0 65.86,0.49 101.72,10.2l27.43 -25.02c-7.1,54 -54.94,44.2 -152.69,38.3l-36.22 -41.67 -51.71 18.29 2.4 -67.38c-0.36,-27.75 -0.91,-55.18 -0.91,-83.05l8.46 141.78c33.18,-26.4 23.54,-0.01 23.73,-67.77 0.28,-98.51 0.05,-38.02 -12.22,-93.47l-11.55 -59.95c-116.25,-2.2 -87.55,-19.32 -124.87,33.63l93.18 4.09 4.84 35.66 -1.57 137.6 -108.06 0.38 -2.19 -139 5.19 -31.8c-25.21,29.6 -14.69,7.17 -19.32,45.56l-21.84 -17.24c0.69,16.84 -1.64,146.93 18.24,150.31l-23.93 10.51 15.96 17.23c1.39,1.38 8.01,6.45 11.77,11.27l-31.94 13.83c29.24,43.61 24.24,115.28 15.21,160.83 -46.82,-87.64 4.64,-44.92 -25.4,-160.78 -16.3,20.63 -8.32,-0.58 -13.4,24.38l-3.58 127.93c0,-55.48 7.65,-104.15 -14.98,-146.19 -14.9,120.6 -18.48,67.05 6.52,164.61 -3.01,1.61 -6.58,4.85 -8.46,5.73l-15.15 1.25 -101.99 -1.24 -9.71 -23.74c1.54,-48.35 2.66,-114.3 4.47,-149.69l41.25 -30.9 -64.22 19.3c-1.56,-3.2 -17.12,-12.25 -6.09,-40.91l23.74 -94.48c1.62,-72.47 -32.44,-63.51 0.13,-63.23l-1.05 -22.88 12.27 -9.42 -1.73 -24.87 41.87 10.26c-2.61,-1.81 -5.52,-3.46 -8.23,-4.79 -2.7,-1.32 -5.25,-2.71 -8.47,-4.24 -29.65,-14.18 -9.4,22.92 -26.71,-11.93 -2.19,-4.41 -5.97,-3.26 -8.75,-5.21 13.58,-9.3 -4.57,-19.58 35.31,-13.54 -31.64,2.97 -24.46,4.35 -32.15,-18.75l-0.05 -158.9c28.79,-6.32 95.97,-15.98 109.5,7.76 13.86,35.14 8.53,125.64 3.76,167.06l20.28 -6.75c-14.06,-64.63 15.37,-104.74 -14.57,-160.23 54.09,34.24 -1.73,57.4 24.7,139.38 11.51,-24.96 7.81,-44.39 6.99,-73.63 -2.22,-78.92 -0.76,-55.43 26.26,-76.23l-9.25 187.62c13.55,12.85 -2.94,11.03 33.78,19.74 -9.42,10.03 -7.17,-10.27 -16.1,21.87 -11.33,40.8 -1.19,7.54 7.68,24.64 19.82,-45.01 15,-7.17 0.04,-59.18 26.17,8.49 31.78,2.63 16.92,8.39 -20.48,-17.83 -17.86,-14.63 -34.91,-34.4l17.95 -33.26c20.86,32.93 -8.81,46.31 24.79,46.39l-0.43 -19.63 -0.32 -133.66 3.7 -30.25 111.14 2.93c-27.97,-16.11 -33.36,-12.44 -62.63,-14.51 -30.16,-2.13 -66.66,-12.74 -74.27,20.13 -7.61,32.81 0.36,38.39 -4.19,70.97 -1.11,-1.8 -2.86,-4.03 -3.23,-5.45l-3.21 -13.39c-7.39,-57.95 9.73,-29.47 -16.71,-44.25 2.91,-2.62 6.06,-5.07 8.93,-7.65l15.28 -13.85c1.92,-1.78 4.5,-1.9 5.9,-6.04 1.26,-3.73 3.4,-3.76 5.12,-5.63l-20.64 -16.71c-38.53,-34.38 -5,-25.56 -48.5,-31.55 -14.79,18.13 -5.77,19.41 -24.52,45.03 -16.79,0.82 -44.14,7.68 -57.9,-2.08l-28.4 -21.28 -43.03 15.2 -12.3 -29.47c-0.57,-4.44 -1.18,-5.63 -1.74,-8.45 -97.28,0 -41.39,9.71 -94.92,18.94 -62.03,10.69 -64.96,5.18 -94.37,-8.72 -31.23,-14.76 -83.74,-24.28 -74.66,23.56 -42.12,-9.34 -23.33,-16.69 -49.32,7.02l3.11 -2.57c0.06,0.13 1.01,1.57 1.05,1.77l-3.43 19.18c-47.67,-14.13 -25.63,-15.11 -86.85,-14.85 -108.06,0.47 -82.63,13.43 -88.29,24.56l180.15 0.77 0.92 644.19 -19.66 6.49 -160.57 -3.12c15.26,19.77 -18.59,6.68 28.15,27.76 -12.59,0.93 -26.29,0.08 -32.67,0.77 -0.26,0.03 -34.09,7.44 -34.97,7.7 -0.35,-32.03 -3.22,-33.29 -16.94,-63.44 47.28,0.88 17.73,0.95 33.78,-11.28 0,-59.57 4.58,-477.76 -4.1,-526.36 -8.71,-48.77 -6.52,-18.53 4.28,-69.19 -1.72,-2.23 -5.27,-7.22 -6.17,-8.78l-4.25 -8.78c-32.2,-57.96 -20.75,0.12 -32,-65.62 48.54,36.1 19.85,40.16 54.84,1.8 -34.12,6.06 -24.82,-5.26 -62.41,7.79l-5.64 -18.26c-7.98,4.63 -26.73,6.96 -35.87,51.87l-3.34 651.08c2.21,157.21 110.02,133.58 230.17,133.58l736.6 0c84.18,0 272.38,28.62 320.5,-50.58 31.4,-51.69 14.71,-285.12 14.71,-362.46 0,-106.12 9.25,-264.63 -1.95,-364.11z"/>
     <path class="fil22" d="M41.12 3068.03l5.64 18.26c37.59,-13.05 28.29,-1.73 62.41,-7.79 -34.99,38.36 -6.3,34.3 -54.84,-1.8 11.25,65.74 -0.2,7.66 32,65.62l4.25 8.78c0.9,1.56 4.45,6.55 6.17,8.78 -10.8,50.66 -12.99,20.42 -4.28,69.19 8.68,48.6 4.1,466.79 4.1,526.36 -16.05,12.23 13.5,12.16 -33.78,11.28 13.72,30.15 16.59,31.41 16.94,63.44 0.88,-0.26 34.71,-7.67 34.97,-7.7 6.38,-0.69 20.08,0.16 32.67,-0.77 -46.74,-21.08 -12.89,-7.99 -28.15,-27.76l4.15 2.36 -4.99 -650.69c5.66,-11.13 -19.77,-24.09 88.29,-24.56 61.22,-0.26 39.18,0.72 86.85,14.85l3.43 -19.18c-0.04,-0.2 -0.99,-1.64 -1.05,-1.77l-3.11 2.57c25.99,-23.71 7.2,-16.36 49.32,-7.02 -9.08,-47.84 43.43,-38.32 74.66,-23.56 29.41,13.9 32.34,19.41 94.37,8.72 53.53,-9.23 -2.36,-18.94 94.92,-18.94 0.56,2.82 1.17,4.01 1.74,8.45l12.3 29.47 43.03 -15.2 28.4 21.28c13.76,9.76 41.11,2.9 57.9,2.08 18.75,-25.62 9.73,-26.9 24.52,-45.03 43.5,5.99 9.97,-2.83 48.5,31.55l20.64 16.71c-1.72,1.87 -3.86,1.9 -5.12,5.63 -1.4,4.14 -3.98,4.26 -5.9,6.04l-15.28 13.85c-2.87,2.58 -6.02,5.03 -8.93,7.65 26.44,14.78 9.32,-13.7 16.71,44.25l3.21 13.39c0.37,1.42 2.12,3.65 3.23,5.45 4.55,-32.58 -3.42,-38.16 4.19,-70.97 7.61,-32.87 44.11,-22.26 74.27,-20.13 29.27,2.07 34.66,-1.6 62.63,14.51l-3.69 28.16 1.43 146.23 -111.83 6.22c-33.6,-0.08 -3.93,-13.46 -24.79,-46.39l-17.95 33.26c17.05,19.77 14.43,16.57 34.91,34.4 14.86,-5.76 9.25,0.1 -16.92,-8.39 14.96,52.01 19.78,14.17 -0.04,59.18 -8.87,-17.1 -19.01,16.16 -7.68,-24.64 8.93,-32.14 6.68,-11.84 16.1,-21.87 -36.72,-8.71 -20.23,-6.89 -33.78,-19.74l9.25 -187.62c-27.02,20.8 -28.48,-2.69 -26.26,76.23 0.82,29.24 4.52,48.67 -6.99,73.63 -26.43,-81.98 29.39,-105.14 -24.7,-139.38 29.94,55.49 0.51,95.6 14.57,160.23l-20.28 6.75 -81.06 2.83c-39.88,-6.04 -21.73,4.24 -35.31,13.54 2.78,1.95 6.56,0.8 8.75,5.21 17.31,34.85 -2.94,-2.25 26.71,11.93 3.22,1.53 5.77,2.92 8.47,4.24 2.71,1.33 5.62,2.98 8.23,4.79l-41.87 -10.26 1.73 24.87 99.47 0.51 6.5 18.83 21.07 11.78c-15.09,38.84 -22.79,119.97 1.28,157.47l13.42 -143.89c0,42.61 -11.12,105.32 8.04,141.54 15.41,-26.23 11.3,-28.38 10.43,-73.8 -1.14,-58.94 -5.63,-44.85 10.13,-76.16l21.84 17.24c4.63,-38.39 -5.89,-15.96 19.32,-45.56l101.79 -2.84 -93.18 -4.09c37.32,-52.95 8.62,-35.83 124.87,-33.63l11.55 59.95c12.27,55.45 12.5,-5.04 12.22,93.47 -0.19,67.76 9.45,41.37 -23.73,67.77l-8.46 -141.78c0,27.87 0.55,55.3 0.91,83.05l-2.4 67.38 51.71 -18.29 36.22 41.67c97.75,5.9 145.59,15.7 152.69,-38.3l-27.43 25.02c-35.86,-9.71 -59.39,-10.2 -101.72,-10.2 11.54,-11.34 36.02,-6.36 59.31,-6.36l0 6.28c-128.04,0 -73.11,2.21 -88.57,-16.35l3.9 -13.22 -22.42 7.45 -19.87 -155.6c22.1,24.06 9.62,7.08 25.4,33.78l-4.92 -63.95c-0.62,-0.75 -2.4,-2.48 -3.59,-3.74 21.15,-16.97 22.2,-16.85 25.44,8.43 40.66,-34.25 20.6,-25.32 76.2,-25.32l-53.3 -5c46.08,7.27 36.35,10.46 75,-11.94 -14,-34.28 23.93,13.26 -4.85,-8.32l-90.12 -1.6c-6.4,-37.05 -6.42,-117.54 2.44,-151.73l3.51 -25.36c23.45,-1.24 50.68,-2.73 75.86,-0.57l128.64 0.96c19.97,-4.08 11.13,-3.74 18.24,-16.66 -25,-121.38 -156.08,-92.76 -257.06,-92.76l-694.26 0c-66.49,0 -279.59,-21.81 -309.5,33.38z"/>
     <path class="fil23" d="M123.37 3796.28c32.67,-80.25 -12.55,-487.8 14.35,-616.05 -1.35,42.06 61.76,245.26 77.6,303 17.58,64.09 77.71,260.8 64.47,313.81l19.66 -6.49 -0.92 -644.19 -180.15 -0.77 4.99 650.69z"/>
     <path class="fil24" d="M123.37 3796.28l-4.15 -2.36 160.57 3.12c13.24,-53.01 -46.89,-249.72 -64.47,-313.81 -15.84,-57.74 -78.95,-260.94 -77.6,-303 -26.9,128.25 18.32,535.8 -14.35,616.05z"/>
     <path class="fil25" d="M751.65 3559.41l-111.56 -2.6 -2.21 -145.42c-32.57,-0.28 1.49,-9.24 -0.13,63.23l-23.74 94.48c-11.03,28.66 4.53,37.71 6.09,40.91l64.22 -19.3 -41.25 30.9 104.28 -1.59 4.98 28.92 -2.03 147.34 15.15 -1.25c1.88,-0.88 5.45,-4.12 8.46,-5.73 -25,-97.56 -21.42,-44.01 -6.52,-164.61 22.63,42.04 14.98,90.71 14.98,146.19l3.58 -127.93c5.08,-24.96 -2.9,-3.75 13.4,-24.38 30.04,115.86 -21.42,73.14 25.4,160.78 9.03,-45.55 14.03,-117.22 -15.21,-160.83l31.94 -13.83c-3.76,-4.82 -10.38,-9.89 -11.77,-11.27l-15.96 -17.23 23.93 -10.51c-19.88,-3.38 -17.55,-133.47 -18.24,-150.31 -15.76,31.31 -11.27,17.22 -10.13,76.16 0.87,45.42 4.98,47.57 -10.43,73.8 -19.16,-36.22 -8.04,-98.93 -8.04,-141.54l-13.42 143.89c-24.07,-37.5 -16.37,-118.63 -1.28,-157.47l-21.07 -11.78 -3.42 160.98z"/>
     <path class="fil26" d="M1163.37 3322.37l20.67 -3.77 -0.57 -146.91 -109.5 -1.17 1.72 -1.48c-8.86,34.19 -8.84,114.68 -2.44,151.73l90.12 1.6z"/>
     <polygon class="fil23" points="535.53,3654.04 422.66,3649.4 424.14,3795.97 534.97,3795.48 "/>
     <path class="fil23" d="M855.41 3418.85l2.19 139 108.06 -0.38 1.57 -137.6c-33.85,-13.09 -86.91,-11.37 -111.82,-1.02z"/>
     <polygon class="fil23" points="1083.17,3797.48 1181.62,3796.04 1184.09,3650.88 1076.13,3648.86 1074.51,3794.22 "/>
     <polygon class="fil23" points="967.87,3654.48 856.39,3650.98 857.54,3795.82 965.93,3795.56 "/>
     <polygon class="fil23" points="648.31,3795.04 750.3,3796.28 752.33,3648.94 643.69,3649.79 "/>
     <path class="fil23" d="M429.67 3556.4l103.39 0.92 1.99 -137.57c-32.37,-12.69 -72.32,-9.07 -109.56,-5.83l4.18 142.48z"/>
     <path class="fil23" d="M644.98 3310.24l101.46 7.15 0.67 -144.38 -97.35 -0.85c-11.6,42.97 -6.73,93.21 -4.78,138.08z"/>
     <polygon class="fil23" points="1079.17,3559.2 1177.19,3557.53 1177.38,3414.83 1076.5,3411.91 "/>
     <polygon class="fil23" points="425.27,3306.71 528.22,3312.79 526.79,3172.72 423.81,3172.05 "/>
     <polygon class="fil23" points="857.58,3306.66 962.61,3311.5 958.24,3173.19 857.26,3173 "/>
     <polygon class="fil23" points="750.08,3553.07 746.38,3412.08 646.21,3414.26 651.3,3553.44 "/>
     <polygon class="fil14" points="1077.73,3314.39 1176.96,3313.93 1178.3,3174.65 1079.76,3175 "/>
     <path class="fil27" d="M429.67 3556.4l-4.18 -142.48c37.24,-3.24 77.19,-6.86 109.56,5.83l-0.13 -35.43 -112.12 -0.59c-0.37,38.8 -10.64,149.91 6.87,172.67z"/>
     <path class="fil28" d="M1070.28 3546.58l-3.9 13.22 12.79 -0.6 -2.67 -147.29 10.73 -23.56 85.5 2.64 4.65 23.84 -0.19 142.7c18.92,-11.56 11,-142.38 8.15,-171.77 -34.25,-10.76 -77.75,-11.25 -111.89,-2.12l-3.17 162.94z"/>
     <path class="fil27" d="M648.31 3795.04l-4.62 -145.25 108.64 -0.85 -4.98 -28.92 -104.28 1.59c-1.81,35.39 -2.93,101.34 -4.47,149.69l9.71 23.74z"/>
     <path class="fil27" d="M640.24 3306.02l4.74 4.22c-1.95,-44.87 -6.82,-95.11 4.78,-138.08l97.35 0.85 2.58 -18.13c-13.53,-23.74 -80.71,-14.08 -109.5,-7.76l0.05 158.9z"/>
     <polygon class="fil27" points="1083.17,3797.48 1074.51,3794.22 1076.13,3648.86 1184.09,3650.88 1180.15,3621.13 1076.43,3618.1 1071.34,3787.51 "/>
     <polygon class="fil27" points="856.39,3650.98 967.87,3654.48 964.24,3622.84 863.6,3619.67 "/>
     <polygon class="fil27" points="422.66,3649.4 535.53,3654.04 533.42,3623.69 430.42,3619.58 "/>
     <polygon class="fil27" points="857.26,3173 958.24,3173.19 968.41,3173.84 972.1,3145.68 860.96,3142.75 "/>
     <path class="fil27" d="M423.81 3172.05l102.98 0.67 9.38 -0.95 -2.47 -22.29c-27.76,-12.03 -75.05,-10.6 -104.2,-3.26l-5.69 25.83z"/>
     <path class="fil27" d="M855.41 3418.85c24.91,-10.35 77.97,-12.07 111.82,1.02l-4.84 -35.66 -101.79 2.84 -5.19 31.8z"/>
     <polygon class="fil29" points="1073.97,3170.52 1183.47,3171.69 1180.94,3146.08 1079.59,3143.07 "/>
     <polygon class="fil30" points="857.58,3306.66 858.01,3326.29 969.84,3320.07 968.41,3173.84 958.24,3173.19 962.61,3311.5 "/>
     <path class="fil31" d="M747.11 3173.01l-0.67 144.38 -101.46 -7.15 -4.74 -4.22c7.69,23.1 0.51,21.72 32.15,18.75l81.06 -2.83c4.77,-41.42 10.1,-131.92 -3.76,-167.06l-2.58 18.13z"/>
     <path class="fil30" d="M425.27 3306.71c12.51,24.7 17.02,15.82 52.23,15.57 22.28,-0.16 34.56,0.3 56.83,-3l1.84 -147.51 -9.38 0.95 1.43 140.07 -102.95 -6.08z"/>
     <polygon class="fil32" points="646.21,3414.26 746.38,3412.08 740.28,3388.18 648.8,3389.77 "/>
     <polygon class="fil28" points="637.88,3411.39 646.21,3414.26 648.8,3389.77 740.28,3388.18 746.38,3412.08 750.08,3553.07 751.65,3559.41 755.07,3398.43 748.57,3379.6 649.1,3379.09 636.83,3388.51 "/>
     <polygon class="fil32" points="1076.5,3411.91 1177.38,3414.83 1172.73,3390.99 1087.23,3388.35 "/>
     <polygon class="fil30" points="751.65,3559.41 750.08,3553.07 651.3,3553.44 646.21,3414.26 637.88,3411.39 640.09,3556.81 "/>
    </g>
    <g>
     <path class="fil16" d="M434.62 4287.43l-19.67 41.55 23.41 94.95 8.53 0.82c41.76,-24.4 342.15,-83.98 414.73,-102.74 77.09,-19.93 369.61,-103.95 426.45,-67.29 -7.24,1.35 -33.14,-2.7 -63.87,14.54l48.62 -2.35c23.35,38.98 5.49,11.3 2.29,22.46l-94.25 30.44 -25.8 13.45 -492.22 115.37 -21.38 2.43 -184.02 45.11 104.14 452.07 921.78 -215.79c1.04,-54.94 -52.03,-244.21 -67.48,-308.41 -24.55,-102.02 -48.51,-204.65 -71.34,-307.13l-19.84 -2.34c5.56,-44.34 1.44,-13.73 -8.94,-26.35 -10.97,24.46 -74.27,28.45 -104.06,35.66l-771.79 184.6 -5.29 -21.05z"/>
     <path class="fil33" d="M442.75 4439.91l-65.51 18.65 -20.33 4.64 5.37 49.45 22.59 1.57 10.72 -31.73 225.57 -50.99 20.3 19.56 21.38 -2.43 -2.98 -27.22c63.87,-13.32 467.9,-103.66 495.85,-124.24l-2.49 -20.27 -9.61 0.42 -700.86 162.59z"/>
     <path class="fil17" d="M434.62 4287.43l5.29 21.05 771.79 -184.6c29.79,-7.21 93.09,-11.2 104.06,-35.66 -48.56,-15.67 -171.49,23.16 -229.66,37.79 -72.53,18.25 -146.19,35.04 -219.07,51.75 -89.45,20.51 -369.82,75.99 -432.41,109.67z"/>
     <path class="fil34" d="M414.95 4328.98l19.67 -41.55c62.59,-33.68 342.96,-89.16 432.41,-109.67 72.88,-16.71 146.54,-33.5 219.07,-51.75 58.17,-14.63 181.1,-53.46 229.66,-37.79 10.38,12.62 14.5,-17.99 8.94,26.35l19.84 2.34c-16.34,-63.28 -22.46,-67.12 -88.42,-50.98 -43.23,10.58 -86.78,21.58 -130.35,31.02l-644.21 152.72c-52.66,12.04 -85.9,16.04 -66.61,79.31z"/>
     <path class="fil3" d="M446.89 4424.75l-4.14 15.16 700.86 -162.59 80.59 -8.06c30.73,-17.24 56.63,-13.19 63.87,-14.54 -56.84,-36.66 -349.36,47.36 -426.45,67.29 -72.58,18.76 -372.97,78.34 -414.73,102.74z"/>
     <path class="fil35" d="M662.84 4448.63l492.22 -115.37 0.65 -36.09c-27.95,20.58 -431.98,110.92 -495.85,124.24l2.98 27.22z"/>
     <polygon class="fil35" points="384.87,4514.22 457.44,4496.17 641.46,4451.06 621.16,4431.5 395.59,4482.49 "/>
     <path class="fil36" d="M1155.71 4297.17l-0.65 36.09 25.8 -13.45c-41.83,4.45 -8.08,1.76 -23.6,-7.02 18.3,-18.25 62.72,-29.14 86.44,-32.44 48.8,-6.78 18.18,-3.41 31.41,9.02 3.2,-11.16 21.06,16.52 -2.29,-22.46l-48.62 2.35 -80.59 8.06 9.61 -0.42 2.49 20.27z"/>
     <path class="fil37" d="M1180.86 4319.81l94.25 -30.44c-13.23,-12.43 17.39,-15.8 -31.41,-9.02 -23.72,3.3 -68.14,14.19 -86.44,32.44 15.52,8.78 -18.23,11.47 23.6,7.02z"/>
     <polygon class="fil11" points="377.24,4458.56 442.75,4439.91 446.89,4424.75 438.36,4423.93 378.53,4434.83 "/>
    </g>
    <g>
     <path class="fil13" d="M2345.09 714.22c17.62,11.99 -0.97,-4.67 20.96,16.98l91.4 97.83c28.34,11.49 79.73,72.39 98.34,102.17 26.21,41.97 43.04,106.18 53.75,154.82l0.37 -4.69 81.93 -15.18c-7.59,-54.48 -85.52,-245.06 -111.41,-301.27 -90.34,-29.54 -120.04,-50.19 -162.98,-117.21 -34.79,-54.32 -42.46,-76.05 -42.37,-144.97 0.15,-114.92 85.44,-225.5 193.02,-256.23l-19.81 -72.12 -21.77 -1.65c-94.29,15.7 -179.31,114.46 -216.02,198.44 -24.17,55.29 -31.86,127.85 -21.44,190.82 10.63,64.28 48.98,113.26 56.03,152.26z"/>
     <g>
      <path class="fil14" d="M2526.52 172.7l21.77 1.65 19.81 72.12c-107.58,30.73 -192.87,141.31 -193.02,256.23 -0.09,68.92 7.58,90.65 42.37,144.97 42.94,67.02 72.64,87.67 162.98,117.21l-54.16 -142.9 57.41 -48.98c59.46,1.02 58.43,16.66 105.03,-18.5 34.38,-25.94 62.53,-13.77 104.51,-5.39l72.67 462.19 81.72 -19.15c-5.53,-110.94 -53,-81.58 3.64,-293.49 27.04,-101.19 61.81,-191.79 25.68,-300.55 -83.02,-249.92 -369.7,-280.66 -450.41,-225.41z"/>
      <g>
       <path class="fil15" d="M2580.43 764.88c25.89,56.21 103.82,246.79 111.41,301.27l31.19 -12.8 -106.09 -285.24 -51.79 -138.32c41.23,-47.17 36.62,-20.14 88.72,-23.9 26.15,-1.88 45.28,-22.79 67.66,-38.29l48.48 7.67 65.14 448.54 -61.72 14.11 -6.64 7.37 27.32 54.45 70.76 -13.12c-44.78,35.04 -69.74,0.91 -58.26,66.69l105.02 -18.97c-12.22,0.83 -42.18,15.59 -58.97,22.86 -42.08,18.19 -40.76,6.92 -31.08,50.23 46.69,5.92 59.93,-11.99 106.48,-13.69l-95.77 33.23c4.09,32.79 13.98,52.09 8.63,79.42 89.67,-16.91 267.66,-101.37 173.78,-138.48 8.66,-38.9 4.18,-88.69 -29.39,-114.85 13.3,-44.39 13.45,-53.64 -37.7,-60.91l-81.72 19.15 -72.67 -462.19c-41.98,-8.38 -70.13,-20.55 -104.51,5.39 -46.6,35.16 -45.57,19.52 -105.03,18.5l-57.41 48.98 54.16 142.9z"/>
       <path class="fil2" d="M2723.03 1053.35l-31.19 12.8 -81.93 15.18 -0.37 4.69 -26.33 15.64c-2.07,43.19 -3.35,25.46 21.53,53.07 -10.22,41.7 -7.16,12.73 2.15,45.62 1.07,3.78 3.39,3.61 5.81,21.88 0.22,1.68 0.6,26.29 0.73,29.25l25.38 9.71c-55.6,112.49 169.76,59.15 202.11,45.2 5.35,-27.33 -4.54,-46.63 -8.63,-79.42l95.77 -33.23c-46.55,1.7 -59.79,19.61 -106.48,13.69 -9.68,-43.31 -11,-32.04 31.08,-50.23 16.79,-7.27 46.75,-22.03 58.97,-22.86l-105.02 18.97c-11.48,-65.78 13.48,-31.65 58.26,-66.69l-70.76 13.12 -27.32 -54.45 -43.76 8.06z"/>
       <path class="fil14" d="M2616.94 768.11l91.72 -1.36c13.65,73.55 65.68,216.17 64.77,271.17l61.72 -14.11 -65.14 -448.54 -48.48 -7.67c-22.38,15.5 -41.51,36.41 -67.66,38.29 -52.1,3.76 -47.49,-23.27 -88.72,23.9l51.79 138.32z"/>
       <path class="fil38" d="M2723.03 1053.35l43.76 -8.06 6.64 -7.37c0.91,-55 -51.12,-197.62 -64.77,-271.17l-91.72 1.36 106.09 285.24z"/>
       <g>
        <path class="fil39" d="M2998.69 708.64c63.94,-24.59 73.57,-218.66 60.96,-281.09 -17.17,-84.94 -38.41,-120.01 -81.5,-182.16 -19.81,-28.55 -22.36,-37.7 -54,-38.85 7.69,54.36 74.57,77.98 106.72,222.18 27.93,125.28 -42.11,244.72 -32.18,279.92z"/>
        <path class="fil39" d="M3048.92 292.78c-11.05,43.54 63.44,81.84 35.84,289.06 -4.85,36.38 -1.51,27.68 10.44,43.26 76.62,-72.31 -19.76,-328.41 -18.36,-340.1 -53.13,-9.09 -6.72,-3.81 -27.92,7.78z"/>
        <g>
         <path class="fil39" d="M2264.79 345.58c29.85,-17.27 153.3,-297.98 455.99,-229.88 56.04,12.61 135.32,62.97 170.07,64.21 -13.84,-97.91 -419.5,-194 -598.19,80.18 -24.28,37.25 -47.18,53.12 -27.87,85.49z"/>
         <path class="fil40" d="M2429.9 837.5c-31.83,-5.01 -78.73,-56.99 -103.26,-89.8 -132.4,-186.04 -60.86,-312.77 -80.72,-353.13 -61.71,28.38 -16.3,234.61 12.04,291.97 24.59,49.78 113.86,180.28 171.59,175.24l0.35 -24.28z"/>
         <path class="fil18" d="M2613.46 242.65c18.84,30.37 93.96,-3.72 176.09,64.55 93.35,77.58 65.45,125.23 109.53,146.2 37.79,-100.12 -211.06,-281.86 -285.62,-210.75z"/>
         <path class="fil39" d="M2318.35 837.06c-10.62,-55.4 -83.57,-86.66 -118.49,-237.01 -8.26,-35.56 3.05,-74.84 -28.91,-83.69 -27.43,53.9 32.35,195.12 74.91,258.37 23.88,35.5 32.35,56.38 72.49,62.33z"/>
         <path class="fil40" d="M2346.44 138.81c45.03,20.21 62.63,-67.24 256.08,-86.37 39.35,-3.89 94,12.42 106.65,-15.31 -71.95,-42.13 -244.62,12.72 -329.06,64.95 -20.7,12.8 -25.36,14.6 -33.67,36.73z"/>
         <path class="fil41" d="M2326.64 747.7c24.53,32.81 71.43,84.79 103.26,89.8l12.59 7.05c2.71,-27.48 -2.25,-3.28 14.96,-15.52l-91.4 -97.83c-21.93,-21.65 -3.34,-4.99 -20.96,-16.98l-18.45 33.48z"/>
         <path class="fil42" d="M2884.77 485.86c11.56,17.37 -3.22,29.73 28.34,8.09 -14.5,-35.19 -4.1,-19.17 -28.34,-8.09z"/>
        </g>
       </g>
      </g>
     </g>
    </g>
    <g>
     <path class="fil5" d="M1379.25 1110.56l21.02 -6.87c50.63,50.57 155.23,200.91 192.55,262.66 3.41,-36.33 -9.33,-12.15 8.4,-29.66 22.37,6.38 15.8,7.91 19.34,31.23l-19.51 4.98 22.03 36.68c1.41,2.2 3.67,5.09 5.59,7.57 2.54,-31.98 -9.82,-13.75 8.31,-28.46 21.17,10.87 38.27,13.67 10.01,32.98l155.91 211.37c20.23,27.39 17.91,12.53 13.93,38.59 25.8,5.37 10.41,-7.6 25.73,9.58l-8.66 21 22.58 -5.54 51.86 75.92 -4.56 25.78c42.11,-37.62 73.43,-33.86 131.89,-44.22 41.56,-7.37 109.68,-25.01 151.23,-22.82l7.92 -14.29 -21.73 -7.46 -124.16 -157.68 11.91 -22.33 -35.21 14.78c-6.31,-23.69 -4.32,-17.23 4.97,-40.23 -26.88,-4.31 -176.85,-214.68 -210.44,-261.2 -40.66,-56.29 -69.76,-71.38 -55.65,-96.22l-39.37 13.03c-4.27,-27.76 -13.77,-1.75 6.72,-29.16l-60.44 -79.93 1.18 -25.65c-21.61,18.59 -9.85,17.21 -68.97,27.32l-159.35 29.62c-35.84,6.68 -48.9,-1.2 -65.03,28.63z"/>
     <path class="fil5" d="M1775.32 804.66c28.5,0.09 23.68,6.81 42.83,33.45l80.59 129.53 22.14 4.49c12.67,-51.79 -6.85,-68.01 40.33,-72.44l-5.51 79.83 62.09 6.07c16.05,17.59 8.85,-8.69 11.99,25.22 -14.9,7.02 18.04,10.06 -28.09,6.35 -26.54,-2.14 -17.13,-7.05 -21.31,-10.26l-34.31 4.32 -5.44 31.3 15.15 -20.13 116.32 148.24 -8.85 22.07 13.27 3.27 -0.33 18.43 18.56 -9.67c23.69,35.05 112.71,152.48 137.54,166.94 12.69,54.17 66.31,64.98 66.64,129.12l16.77 -21.82 253.72 -47.73c-17.37,-45.09 -447.69,-608.05 -508.54,-681.88 -40.26,-3.08 -262.81,39.07 -285.56,55.3z"/>
     <path class="fil0" d="M1379.25 1110.56c-7.69,61.61 -91.51,166.42 -101.36,230.43l509.53 675.66c29.72,-21.05 47.89,-73.02 63.09,-107.01 16.47,-36.83 40.54,-73.18 53.27,-111.27l4.56 -25.78 -51.86 -75.92 -22.58 5.54 -28.48 -0.38c-1.23,-2.01 -3.94,-2.94 -4.23,-5.67 -0.35,-3.25 -2.86,-5.24 -3.79,-9.69l17.39 -11.6 2.04 -3.24c3.98,-26.06 6.3,-11.2 -13.93,-38.59l-155.91 -211.37 -18.32 -4.52c-1.92,-2.48 -4.18,-5.37 -5.59,-7.57l-22.03 -36.68 -8.23 -6.55c-37.32,-61.75 -141.92,-212.09 -192.55,-262.66l-21.02 6.87z"/>
     <path class="fil0" d="M1672.6 1024.99l-1.18 25.65 60.44 79.93 26.06 -8.78 6.59 24.91c-14.11,24.84 14.99,39.93 55.65,96.22 33.59,46.52 183.56,256.89 210.44,261.2 25.82,2.61 24.96,0.22 30.24,25.45l-11.91 22.33 124.16 157.68 21.73 7.46 104.11 -216.25c-0.33,-64.14 -53.95,-74.95 -66.64,-129.12 -24.83,-14.46 -113.85,-131.89 -137.54,-166.94l-18.56 9.67c-29.73,15.94 -8.98,11.98 -35.66,-4.83l22.72 -16.87 8.85 -22.07 -116.32 -148.24 -15.15 20.13 -0.42 40.16 -32.36 5.64c-6.39,-32.38 -11.01,-23.89 8.89,-53.26l0.49 -32.47c-12.97,-1.3 -33.06,-2.33 -45.48,-4.94 -39.05,-8.21 -21.35,-1.71 -28.03,-20.72 21.31,-18.61 20.35,-8.83 55.02,-9.29l-80.59 -129.53c-19.15,-26.64 -14.33,-33.36 -42.83,-33.45l-102.72 220.33z"/>
     <path class="fil43" d="M1898.74 967.64c-34.67,0.46 -33.71,-9.32 -55.02,9.29 6.68,19.01 -11.02,12.51 28.03,20.72 12.42,2.61 32.51,3.64 45.48,4.94l-0.49 32.47 -6.44 35.53c17.48,16.16 -1.62,4.93 29.91,12.09l0.42 -40.16 5.44 -31.3 34.31 -4.32 46.58 6.29 -9.17 -27.6 -62.09 -6.07 5.51 -79.83c-47.18,4.43 -27.66,20.65 -40.33,72.44l-22.14 -4.49z"/>
     <path class="fil44" d="M2030.6 1504.12c-9.29,23 -11.28,16.54 -4.97,40.23l35.21 -14.78c-5.28,-25.23 -4.42,-22.84 -30.24,-25.45z"/>
     <path class="fil45" d="M1787.13 1106.36c2.66,0.77 2.24,14.75 28.06,-2.33 20.1,-13.29 12.21,-14.52 10.36,-26.92 -21.06,-3.5 -39.29,5.18 -38.42,29.25z"/>
     <path class="fil46" d="M1971.42 1581.76c23.93,-2.63 28.38,-13.03 32.66,-20.68 -0.22,-0.21 1.81,-32.84 -28.59,-8.53 -21.04,16.82 -7.11,18.94 -4.07,29.21z"/>
     <path class="fil47" d="M1731.86 1130.57c-20.49,27.41 -10.99,1.4 -6.72,29.16l39.37 -13.03 -6.59 -24.91 -26.06 8.78z"/>
     <path class="fil45" d="M1654.77 1207.17c34.58,-0.41 38.33,-3.52 42.69,-36.8 -31.64,8.29 -35.9,8.52 -42.69,36.8z"/>
     <path class="fil48" d="M1754.47 1739.84c2.77,1.21 -9.18,18.2 19.64,1.16 24.25,-14.34 11.42,-21.2 11.44,-21.51 -7.09,-2.71 7.94,-21.37 -24.94,-1.74 -20.36,12.16 -6.76,19.92 -6.14,22.09z"/>
     <path class="fil46" d="M2232.29 1371.67c37.69,3.47 30.79,0.42 37.89,-34.86 -28.88,9.3 -30.28,3.7 -37.89,34.86z"/>
     <path class="fil44" d="M2001.51 1256.7c0.32,0.12 0.05,26.33 30.82,-16.01 -13.7,-11.78 -3.75,-20.33 -27.58,-7.07 -24.97,13.89 -4.23,21.44 -3.24,23.08z"/>
     <path class="fil46" d="M1595.59 1313.31c23.71,-12.05 21.63,-17.03 8.09,-37.84 -12.21,4.13 -14.88,-13.2 -19.05,15.25 -3.79,25.84 6.62,17.98 10.96,22.59z"/>
     <path class="fil44" d="M1845.22 1357.93c24.61,26.69 32.41,10.92 41.4,-18.06 -23.74,1.83 -24.36,-6.78 -41.4,18.06z"/>
     <path class="fil49" d="M1805.42 1701.83l28.48 0.38 8.66 -21c-15.32,-17.18 0.07,-4.21 -25.73,-9.58l-2.04 3.24c-11.81,15.44 -4.18,3.45 -9.37,26.96z"/>
     <path class="fil46" d="M2154.46 1165.91c17.27,21.78 28.38,22.3 39.27,-2.72 -37.41,-30.5 -31.97,-5.31 -39.27,2.72z"/>
     <path class="fil47" d="M2272.4 1319.42c11.9,-8.88 7.78,11.49 14.29,-14.24 8.98,-35.47 -3.18,-19.11 -5.68,-23.53 -16.85,7.54 -10.11,-11.8 -16.12,11.14 -10.54,40.28 2.82,19.04 7.51,26.63z"/>
     <path class="fil47" d="M1912.39 1615.85c30.03,9.59 38.94,3.3 33.22,-25.47 -21.22,-1.45 -28.46,0.36 -33.22,25.47z"/>
     <path class="fil48" d="M1898.67 1334.84c21.4,-4.41 11.88,9.6 28.99,-10.51 22.77,-26.78 -15.42,-21.12 -19.02,-17.36 -18.32,19.07 -6.44,4.5 -9.97,27.87z"/>
     <path class="fil44" d="M1800.24 1406.68c27.15,0.26 19.06,5.79 37.37,-20.2 -9.75,-7.5 -7.15,-16.96 -25.75,-6.35 -12.39,7.07 -10.9,13.17 -11.62,26.55z"/>
     <path class="fil45" d="M2132.84 1456.61c21.8,-0.97 29.2,-3.1 34.26,-26.47 -13.86,-4.12 -38.8,-14.63 -34.26,26.47z"/>
     <path class="fil46" d="M1679.66 1428.26c17.98,22.21 30.23,23.62 39.33,-2.6 -7.04,-5.99 -0.63,-9.29 -14.3,-9.17 -46.92,0.41 -6.47,-5.23 -25.03,11.77z"/>
     <path class="fil48" d="M2272.59 1257.38c6.77,-10.56 14.75,15.06 8.03,-17.96 -5.36,-26.33 -5.76,-11.65 -16.44,-18.17 -6.66,10.4 -15.16,-14.32 -8.55,18.48 5.19,25.72 5.03,11.13 16.96,17.65z"/>
     <path class="fil45" d="M2182.66 1405.58c23.63,23.36 35.32,7.56 36.05,-19.34 -18.3,-0.44 -24.36,-1.8 -36.05,19.34z"/>
     <path class="fil45" d="M2246.13 1203.93c-0.22,-25.95 4.38,-25.68 -30.8,-30.72 -0.14,29.29 -1.35,28.99 30.8,30.72z"/>
     <path class="fil44" d="M1592.82 1366.35l8.23 6.55 19.51 -4.98c-3.54,-23.32 3.03,-24.85 -19.34,-31.23 -17.73,17.51 -4.99,-6.67 -8.4,29.66z"/>
     <path class="fil45" d="M1741.86 1424.4c17.41,10.89 -8.57,11.37 20.99,9.61 21.65,-1.28 3.45,0.43 16.54,-8.35 -11.81,-29.62 -19.68,-29.12 -37.53,-1.26z"/>
     <path class="fil45" d="M1628.67 1417.15l18.32 4.52c28.26,-19.31 11.16,-22.11 -10.01,-32.98 -18.13,14.71 -5.77,-3.52 -8.31,28.46z"/>
     <path class="fil48" d="M2077.45 1493.48c28.36,11.38 30.91,-2.89 33.92,-26.24 -25.28,2.44 -30.39,-2.38 -33.92,26.24z"/>
     <path class="fil47" d="M2094.63 1179.05c31.72,18.66 29.22,8.06 37.97,-22.79 -52.99,12.12 -24.43,6.89 -37.97,22.79z"/>
     <path class="fil48" d="M1959.28 1297.47c27.94,-15.38 16.91,-6.2 18.88,-34.75 -23.67,8.36 -48.1,14.74 -18.88,34.75z"/>
     <path class="fil48" d="M1609.68 1250.56c25.67,4.93 23.86,-3.45 29,-29.15 -25.12,3.5 -37.3,2.44 -29,29.15z"/>
     <path class="fil49" d="M2076.19 1214.4l0.33 -18.43 -13.27 -3.27 -22.72 16.87c26.68,16.81 5.93,20.77 35.66,4.83z"/>
     <polygon class="fil48" points="1883.83,1653.14 1894.04,1630.56 1868.5,1633.93 1859.27,1661.27 "/>
     <path class="fil50" d="M1940.21 1082.68c-31.53,-7.16 -12.43,4.07 -29.91,-12.09l6.44 -35.53c-19.9,29.37 -15.28,20.88 -8.89,53.26l32.36 -5.64z"/>
     <path class="fil51" d="M1980.38 1006.9c4.18,3.21 -5.23,8.12 21.31,10.26 46.13,3.71 13.19,0.67 28.09,-6.35 -3.14,-33.91 4.06,-7.63 -11.99,-25.22l9.17 27.6 -46.58 -6.29z"/>
     <path class="fil52" d="M1883.83 1653.14c18.86,-7.92 14.16,4.91 14.39,-14.71 -28.57,-26.94 -13.07,-10.23 -29.72,-4.5l25.54 -3.37 -10.21 22.58z"/>
     <path class="fil53" d="M1805.42 1701.83c5.19,-23.51 -2.44,-11.52 9.37,-26.96l-17.39 11.6c0.93,4.45 3.44,6.44 3.79,9.69 0.29,2.73 3,3.66 4.23,5.67z"/>
    </g>
    <g>
     <g>
      <path class="fil15" d="M3137.74 6581.81l2.77 268.95 333.65 2.35 1.29 135.14 371.52 -0.62 1.38 -135.91 334.39 -3.34 3.49 -757.63 -9.7 -22.42 -1034.47 1.57c-13.44,43.06 -8.38,442.46 -4.32,511.91zm402.02 332.57l242.35 2.76 1.5 -61.18c-35.22,-10.25 -209.84,-10.25 -245.6,0.01l1.75 58.41z"/>
      <path class="fil16" d="M3611.39 6444.93l47.59 -0.46 61.08 1.39 -0.34 72.65c44.39,19.97 270.32,8.59 356.21,8.96 75.87,0.33 47.07,-2.44 99.46,31.33l2.67 -482.47 -1032.5 1.14c-3.17,85.29 -11.7,419.81 4.15,484.4 19.41,-34.44 39.8,-34.53 79.38,-34.64l365.76 -1.05c17.63,-131.95 -5.2,-54.91 16.54,-81.25z"/>
      <path class="fil54" d="M3609.19 6585.03c11.5,22.33 18.54,14.78 51.74,13.36 19.85,-0.85 37.4,-1.67 57.42,-1.69l1.37 -78.19 0.34 -72.65 -61.08 -1.39 6.08 144.77 -55.87 -4.21z"/>
      <polygon class="fil0" points="3609.19,6585.03 3665.06,6589.24 3658.98,6444.47 3611.39,6444.93 "/>
     </g>
     <g>
      <g>
       <path class="fil2" d="M5477.25 5303.47c0.03,33.45 -5.33,1.35 10.75,33.79 -44.16,88.99 -87.5,190.55 -15.55,305.01 5.97,9.5 22.13,30.91 28.73,38.77 7.09,8.45 8.56,9.59 17.3,17.02 116.71,99.22 262.53,99.71 369.55,2.43 27.47,-24.96 2.27,-21.52 39.47,-12.31 8.52,34.97 2.07,12.85 -4.28,49.2 17.23,15.23 47.81,32.34 57.78,49.82 11.33,19.85 -4.91,12.05 20.89,37.55 8.69,8.59 18.85,14.4 29.25,21.12l37.51 -40.56c-26.39,-11.72 -13.87,-2.85 -38.45,-31.07l-28.34 9.54 -6.84 -36.92c-28.18,-21.05 -41.01,-21.83 -50,-56l23.72 -14.79c1.28,-37.28 37.81,-94.36 41.43,-152.35 3.38,-54.12 -8.04,-110.24 -32.58,-157.41 -53.92,-103.61 -107.65,-121.41 -208.35,-162.43 -115.27,-10.26 -227.51,6.92 -291.99,99.59z"/>
       <path class="fil55" d="M5511.66 5671.81c7.04,0.59 19.66,4.78 22.35,4.89 2.43,0.1 4.96,1.04 7.6,0.92l25.14 -7.28c-20.46,-37.57 -9.1,-179.74 -9.1,-231.44l80.14 -9.87 -4.87 205.25c8.89,44.98 0.96,13.02 17.83,33.13 16.84,-20.09 9.76,13.5 17.82,-33.13l-1.56 -176.15c-5.57,-36.55 -6.57,13.79 -7.69,-27.18 -1.35,-49.18 -1.82,-22.12 19.38,-32.49l45.34 -2.74c32.02,9.04 19.8,-4.59 19.8,127.8 0,46 -7.65,105.56 8.46,143.89 -0.42,-72.01 6.28,-173.11 2.24,-228.98l-0.73 203.57c19.51,-49.79 9.74,-226.44 5.31,-291.22 11.18,-18.99 -3.2,-0.31 21.94,-7.42l48.67 11.48 3.32 303.51 2.66 33.84 24.18 4.26c88.31,-32.34 112.14,-186.77 85.58,-272.24 -28.47,-91.63 -112.95,-162.33 -209.95,-172.49 -233.49,-24.44 -369.93,229.1 -223.86,420.09z"/>
       <path class="fil10" d="M5724.04 5395.72l3.36 262.63 -52.95 0.04 4.25 -259.93c-21.2,10.37 -20.73,-16.69 -19.38,32.49 1.12,40.97 2.12,-9.37 7.69,27.18l1.56 176.15c-8.06,46.63 -0.98,13.04 -17.82,33.13 -16.87,-20.11 -8.94,11.85 -17.83,-33.13l4.87 -205.25 -80.14 9.87c0,51.7 -11.36,193.87 9.1,231.44l-25.14 7.28c-2.64,0.12 -5.17,-0.82 -7.6,-0.92 -2.69,-0.11 -15.31,-4.3 -22.35,-4.89 37.81,45.67 98.86,76.38 160.28,85.2 56.71,8.15 158.89,-7.41 187.95,-60.56l-24.18 -4.26 -2.66 -33.84 -56.46 -0.19 4.47 -314.8c-25.14,7.11 -10.76,-11.57 -21.94,7.42 4.43,64.78 14.2,241.43 -5.31,291.22l0.73 -203.57c4.04,55.87 -2.66,156.97 -2.24,228.98 -16.11,-38.33 -8.46,-97.89 -8.46,-143.89 0,-132.39 12.22,-118.76 -19.8,-127.8z"/>
       <path class="fil22" d="M6031.14 5845.87c3.36,38.09 66.28,73.01 96.36,98.57l312.71 255.3 48.56 -63.51c-19.74,0.02 -13.22,2.02 -29.28,-7.87 -49.8,-30.67 -384.26,-321 -384.72,-321.52l-6.12 -1.53 -37.51 40.56z"/>
       <path class="fil56" d="M6074.77 5806.84c0.46,0.52 334.92,290.85 384.72,321.52 16.06,9.89 9.54,7.89 29.28,7.87l18.25 -16.12 7.99 -21.02c-1.47,-4.78 -1.76,-10.79 -7.1,-23.53 -48.69,-26.65 -149.52,-120.47 -199.29,-160.52 -34.35,-27.63 -70.03,-55.69 -103.16,-82.71 -33.37,-27.21 -62.62,-69.01 -104.52,-74 -11.31,31.05 -0.86,5.72 -12.51,25.18 -12.78,21.34 -2.57,0.47 -13.66,23.33z"/>
       <path class="fil15" d="M5752.3 5808.66c32.45,-8.1 57,-13.34 87.8,-27.7 36.56,-17.03 50.72,-47.26 83.12,-43.58 6.35,-36.35 12.8,-14.23 4.28,-49.2 -37.2,-9.21 -12,-12.65 -39.47,12.31 -107.02,97.28 -252.84,96.79 -369.55,-2.43 -8.74,-7.43 -10.21,-8.57 -17.3,-17.02 -6.6,-7.86 -22.76,-29.27 -28.73,-38.77 -71.95,-114.46 -28.61,-216.02 15.55,-305.01 -16.08,-32.44 -10.72,-0.34 -10.75,-33.79 -42.27,26.51 -68.86,102.62 -76.03,153.41 -10.27,72.8 0.51,133.78 34.78,197.43 65.68,121.99 184.33,163.35 316.3,154.35z"/>
       <polygon class="fil15" points="5833.05,5658.35 5829.73,5354.84 5781.06,5343.36 5776.59,5658.16 "/>
       <polygon class="fil15" points="5724.04,5395.72 5678.7,5398.46 5674.45,5658.39 5727.4,5658.35 "/>
       <polygon class="fil57" points="5573.39,5658.12 5622.14,5657.67 5623.17,5523.52 5622.95,5455.38 5572.87,5452.74 "/>
       <path class="fil3" d="M6068.65 5805.31l6.12 1.53c11.09,-22.86 0.88,-1.99 13.66,-23.33 11.65,-19.46 1.2,5.87 12.51,-25.18 -9.61,-6.41 -26.35,-19.76 -34.4,-23.87 -24.72,-12.62 -15.73,-2.41 -38.54,-12.6 -19.45,-8.69 -38.84,-32.52 -59.26,-45.79l-23.72 14.79c8.99,34.17 21.82,34.95 50,56l6.84 36.92 28.34 -9.54c24.58,28.22 12.06,19.35 38.45,31.07z"/>
       <path class="fil58" d="M6507.02 6120.11l17.65 -20.57c-8.7,-24.61 4.83,-7.5 -16.76,-23.98 5.34,12.74 5.63,18.75 7.1,23.53l-7.99 21.02z"/>
      </g>
      <g>
       <path class="fil17" d="M4986.41 5929.88l-27.87 20.32 21.89 5.08c-48.98,0.84 -16.96,-21.9 -26.15,35.83 -13.19,-25.32 -5.61,-9.35 7.77,-28.61 16.87,3.88 10.4,-2.15 15.34,19.78l39.39 -11.63 16.21 44.78 -27.32 17.89 -27.41 -18.31 -4.81 24.94c-4.11,-6.44 -14.23,-0.46 0.36,-6.45l-19.36 4.18 -2.76 23.33 -29.08 11.94c-24.31,-23.5 -24.59,-28.6 -19.25,-54.12 -27.49,-9.49 4.89,-11.91 -48.48,4.18 -7.1,-9.33 -9.66,-5.88 -16.93,-22.55 -3.32,30.15 -2.49,10.29 -13.79,24.73 -3.65,4.65 -10.54,17.54 -14.42,26.07 27.22,-19.39 8.14,-9.9 36.71,-19.7 -5.76,6.9 -5.67,20.16 -6.71,22.99 25.48,5.11 24.62,-14.22 41.11,46.03l-40.15 13.02c-14.89,-23.99 -20.25,-23.27 -16.88,-50.8 -26.21,10.08 -9.47,-16.16 -22.26,10.15l8.85 20.11 -21.62 0.07 12.88 48.15 -42.54 14.93c-22.48,11.94 -17.34,-0.56 -15.79,25.14 3.24,-45.31 4.39,-7.23 -17.67,-18.01 -4.81,29.43 -2.37,22.96 -37.27,34.27l23.01 20.13c1.97,-2.12 4.99,5.99 7.73,7.54l-17.84 19.08c1.08,1.61 3.44,4.53 4.45,5.95l10.58 9.77c3.55,-50.74 33.07,-32.92 56.35,-14.61 6.27,-17.58 12.42,11.2 -2.29,-30.82l26.23 11.56 -1.18 -30.88 33.33 -12.48 21.52 42.17c-31.14,22.39 -25.19,19.65 -50.62,11.72 -6.33,30.1 -14,26.93 4.41,41.06 -27.23,11 -43.86,15.88 -47.4,48.34l38.63 -14.69c19.27,17.8 21.9,20.91 22.71,46.92l-44.19 15.38c7.6,20.84 7.74,54.96 37.63,64.13 -1.91,-30.18 0.95,-27.39 32.34,-38.11 22.31,23.34 19.04,20.47 22.55,52.3 22.33,-15.46 6.71,5.11 15.73,-24 18.28,-59.04 -13.81,-0.2 8.23,-27.98l-1.98 -27.85 33.73 -14.2 23.33 45.74c16.06,-10.07 8.61,18.13 15.14,-21.62l8.01 11.03c0.69,1.51 4.56,11.62 5.41,14.31 2.51,-10.05 11.34,-6.35 -8.96,-28.8 68.44,34.13 7.17,6.95 33.78,-0.79 -29.32,-5.54 -27.8,-13.96 -34.41,-41.59l33.07 -21.09 23.68 37.93 -22.18 28.61 24.6 -12.84c23.88,10.37 58.79,15.72 43.06,-1.19 1.46,-2.35 3.47,-8.34 4.41,-7.01l19.68 -29.4 -33.47 6.37 -17.56 -42.89 47.66 -18.31c-6.32,-7.63 -1.78,-14.54 -11.69,-8.18 12.88,-14.13 31.64,-31.14 41.08,-42.86 5.48,7.91 3.72,-0.42 3.73,18.7l30.56 -10.37 25.23 48.1c19,0.1 12.57,4.52 19.48,-12.99l-8.75 -18.19c-1.83,-34.84 -6.35,0.57 17.59,-11.64l-13.15 -30.81 35.84 -15.33 26.35 40.67 -16.41 14.8 15.6 71.03c0.35,-1.33 -23.88,-11.87 2.25,-3.45 11.13,3.58 0.47,-1.92 14.77,7.62 -13.27,-7.82 -0.53,-5.29 -5.48,12.8 28.03,-7.71 209.45,-96.53 236.62,-129.75 -1.66,0.22 -26.6,2.23 -28.44,1.96 -7.85,-1.16 -9.65,-4.36 -17.08,-11.53l-1.69 12.92c-0.26,1.17 -0.56,4.37 -0.86,5.46 -8.41,30.17 31.31,-11.57 -8.17,10.05l-17.62 -8.51c-0.75,-2.77 -3.35,-3.19 -5.05,-4.77 -9.42,3.4 -21.88,6.3 -29.8,9.8l-27.96 15.58c-2.05,-2.58 -6.5,3.75 -9.81,5.54 0.25,-4.73 3.82,-30.79 3.84,-31.38 1.63,-37.53 10.88,20.64 -1.92,-10 -4.37,-10.46 -5.58,24.43 -10.38,-26.36 7.08,7.64 16.5,-13.69 -0.09,21.89 -9.98,-33.37 8.25,-17.65 -23.39,-30.27l4.61 31.28 -32.29 13.45c-13.27,-12.83 2.07,10.47 -16.22,-19.73 -3.15,-5.2 -4.65,-11.17 -8.6,-18.22l26.2 -26.77 -20.81 -5.41c9.01,-21.89 6.98,-12.33 0.38,-23.96l-32.4 5.92 -20.73 -40.65 43.13 -20.22 -27.05 -81.96c8.06,21.18 13.21,16.87 -6.46,16.94 -1.62,36.57 2.25,30.8 -41.83,39.55l-11.63 -45 22.19 -12.96c22.6,5.26 11.67,-2.09 29.59,10.83l-6.04 -23.47c-10.13,-30.13 -13.46,-34.07 -39.79,-58.86l-0.46 29.05 -36.44 12.79 -17.45 -51.12c-14.97,18.6 -9.46,-21.48 -13.02,25.11 16.31,29.4 -0.65,2.95 -0.98,3.27l-17.97 7.39 11.74 39.06 -37.57 17.73 -12.27 -29c-12.69,-11.35 -9.95,15.41 -11.14,-16.2l16.82 -9.16 30.99 -7.83c-16.96,-21.87 6.92,-8.25 -29.71,-5.99 -0.36,0.02 -26.39,6.48 -29.13,6.97l2.93 -26.57 -37.06 -24.48c-4.69,29.59 -8.38,7.14 5.82,39.2l-23.45 11.87z"/>
       <path class="fil0" d="M5038.09 5736.28l-13.84 20.05c30.96,1.66 12.75,-1.92 9.65,5.85l-5.31 8.35c30.15,32.1 -7.89,21.18 42.17,19.71 -15.99,30.84 8,10.93 -19.72,16.19 -22.12,4.19 -6.21,-46.02 -7.86,-3.04 -30.53,8.04 2.5,-10.76 -35.86,16.42 23.31,0.08 19.08,-6.98 46.06,25.06l11.74 41.26 -24.02 17.16 -2.93 26.57c2.74,-0.49 28.77,-6.95 29.13,-6.97 36.63,-2.26 12.75,-15.88 29.71,5.99l1.43 5.4 17.97 -7.39c0.33,-0.32 17.29,26.13 0.98,-3.27 3.56,-46.59 -1.95,-6.51 13.02,-25.11l37.68 -9.16 16.67 18.44c26.33,24.79 29.66,28.73 39.79,58.86l6.04 23.47 1.68 7.58c19.67,-0.07 14.52,4.24 6.46,-16.94l27.05 81.96 15.17 37.32c-0.14,0.28 -3.98,16.53 -5.17,17.63 6.6,11.63 8.63,2.07 -0.38,23.96l20.81 5.41c17.31,11.36 12.14,9.12 26.3,19.99 31.64,12.62 13.41,-3.1 23.39,30.27 16.59,-35.58 7.17,-14.25 0.09,-21.89 4.8,50.79 6.01,15.9 10.38,26.36 12.8,30.64 3.55,-27.53 1.92,10 -0.02,0.59 -3.59,26.65 -3.84,31.38 3.31,-1.79 7.76,-8.12 9.81,-5.54l27.96 -15.58c7.92,-3.5 20.38,-6.4 29.8,-9.8 1.7,1.58 4.3,2 5.05,4.77l17.62 8.51c39.48,-21.62 -0.24,20.12 8.17,-10.05 0.3,-1.09 0.6,-4.29 0.86,-5.46l1.69 -12.92c7.43,7.17 9.23,10.37 17.08,11.53 1.84,0.27 26.78,-1.74 28.44,-1.96l8.87 4.87c-6.94,-43.1 -108.21,-222.95 -136.67,-269.66 -48.34,-97.41 -96.51,-183.9 -155.38,-271.57 -70.04,-4.21 -40.7,-14.94 -103.49,20.03 -24.81,13.81 -61.77,28.6 -76.17,45.96z"/>
       <path class="fil59" d="M5264.31 6336.4c-13.73,17.81 -343.11,193.19 -383.99,206.03l-131.04 74.16c1.28,31.3 25.88,72.23 46.33,94.85 35.2,-5.01 37.35,-13.92 68.04,-27.27 -11.2,-31.98 -19.77,-27.57 -13.63,-56.12 35.36,-7.32 13.06,1.48 45.43,35.2l117.87 -57.49c-3.13,-42.53 -14.24,-15.02 -14.15,-64.73 41.86,0.35 24.66,11.64 52.51,40.25 26.24,-12.05 108.21,-48.54 116.28,-67.74 -8.34,-21.56 -16.14,-29.45 -12.64,-54.8 32.57,-2.1 24.25,-2.58 35.89,32.16l36.16 -0.07 92.43 -52.04c-1.5,-39.74 -12.28,-23.26 -13.1,-57.83l22.26 -7.76 31.09 40.39 111.42 -54.53c6.39,-49.5 -20.5,-29.33 -6.99,-64.94 30.11,1.63 27.22,2.72 39.21,38l16.39 -3.1 27.68 -7.74c1.53,-2.1 10.85,-17.45 12.48,-18.84l-3.17 -24.68c-20.01,-22.66 -22.32,-53.4 -47.27,-66.24l-8.87 -4.87c-27.17,33.22 -208.59,122.04 -236.62,129.75z"/>
       <path class="fil12" d="M5319.8 6438.79c37.09,29.66 8.81,48.8 61.33,50.35 1.19,-52.04 -18.1,-29.59 -21.08,-75.55l-31.09 -40.39 -22.26 7.76c0.82,34.57 11.6,18.09 13.1,57.83z"/>
       <path class="fil12" d="M5471.47 6359.06c37.35,11.79 5.98,-7.06 27.11,27.47 21.96,35.88 -2.96,17.25 39.24,20.75 -6,-50.02 -34.98,-69.14 -17.74,-78.26l-16.39 3.1c-11.99,-35.28 -9.1,-36.37 -39.21,-38 -13.51,35.61 13.38,15.44 6.99,64.94z"/>
       <path class="fil60" d="M5547.76 6321.28l26.75 -10.54c-3.25,-41.72 6.58,-13.65 -17.44,-32.98l3.17 24.68c-1.63,1.39 -10.95,16.74 -12.48,18.84z"/>
       <g>
        <path class="fil0" d="M4467.79 6083.92c6.22,61.37 99.97,206.47 132.24,270.24 28.01,55.37 111.27,232.51 149.25,262.43l131.04 -74.16 -8.45 -3.04 16.14 -59.37c-42.48,-9.23 -11.36,10.18 -32.25,-21.82l-26.27 0.09 -18.03 -20.41c-29.89,-9.17 -30.03,-43.29 -37.63,-64.13 -2.59,-28.37 -3.41,-20.16 -17.15,-47.61 3.54,-32.46 20.17,-37.34 47.4,-48.34 -18.41,-14.13 -10.74,-10.96 -4.41,-41.06l-3.05 -10.53 -26.23 -11.56c14.71,42.02 8.56,13.24 2.29,30.82l-0.49 23.67 -34.82 17.91 -21.04 -26.97 -10.58 -9.77c-1.01,-1.42 -3.37,-4.34 -4.45,-5.95l17.84 -19.08c-2.74,-1.55 -5.76,-9.66 -7.73,-7.54l-23.01 -20.13 -22.62 -37.92 35.81 -24.34 24.08 27.99c22.06,10.78 20.91,-27.3 17.67,18.01 -1.55,-25.7 -6.69,-13.2 15.79,-25.14l-15.04 -46.35 44.7 -16.73 21.62 -0.07 -8.85 -20.11c12.79,-26.31 -3.95,-0.07 22.26,-10.15l15.92 -8.25c1.04,-2.83 0.95,-16.09 6.71,-22.99 -28.57,9.8 -9.49,0.31 -36.71,19.7 3.88,-8.53 10.77,-21.42 14.42,-26.07 11.3,-14.44 10.47,5.42 13.79,-24.73 7.27,16.67 9.83,13.22 16.93,22.55 53.37,-16.09 20.99,-13.67 48.48,-4.18l35.53 -5.92 15.56 24.77 19.36 -4.18c-14.59,5.99 -4.47,0.01 -0.36,6.45l4.81 -24.94 -0.87 -32.73c-4.94,-21.93 1.53,-15.9 -15.34,-19.78 -13.38,19.26 -20.96,3.29 -7.77,28.61 9.19,-57.73 -22.83,-34.99 26.15,-35.83l-21.89 -5.08 -18.77 -11.85 -11.76 -3.07c-1.71,-0.73 -5.24,-2.6 -6.82,-3.33 -1.86,-0.86 -6.02,-1.12 -7.47,-4.81 -1.59,-4.07 -5.3,-3.81 -8,-5.64l-2.31 -47.17 -23.17 -12.18c-8.72,-43.28 -8.81,-19.45 8.51,-42.15l-25.53 11.74c-28.38,3.06 -180.85,87.8 -217.95,108.58 -35.82,20.06 -68.44,37.81 -104.6,56.16 -48.21,24.45 -73.65,30.68 -72.88,87.44z"/>
        <path class="fil57" d="M4441.4 6056.88c16.41,25.67 -3.25,22.16 26.39,27.04 -0.77,-56.76 24.67,-62.99 72.88,-87.44 36.16,-18.35 68.78,-36.1 104.6,-56.16 37.1,-20.78 189.57,-105.52 217.95,-108.58 27.2,-33.06 129.19,-82.21 174.87,-95.46 14.4,-17.36 51.36,-32.15 76.17,-45.96 62.79,-34.97 33.45,-24.24 103.49,-20.03l12.19 1.16c-72.72,-91.49 -102.88,-43.55 -197.62,4.14 -66.81,33.63 -143.08,76.51 -208.31,114.08l-314.89 167.03c-54.18,27.51 -67.69,37.39 -67.72,100.18z"/>
        <path class="fil24" d="M5087.31 6276.5c4.05,37 15.58,19.96 3.37,54.83l-19.68 29.4c-0.94,-1.33 -2.95,4.66 -4.41,7.01 15.73,16.91 -19.18,11.56 -43.06,1.19l-24.6 12.84 -0.16 -3.86c-26.61,7.74 34.66,34.92 -33.78,0.79 20.3,22.45 11.47,18.75 8.96,28.8 -0.85,-2.69 -4.72,-12.8 -5.41,-14.31l-8.01 -11.03c-6.53,39.75 0.92,11.55 -15.14,21.62l-34.31 17.91 -20.77 -21.6c-22.04,27.78 10.05,-31.06 -8.23,27.98 -9.02,29.11 6.6,8.54 -15.73,24 -13.25,-3.44 -10.59,-6.68 -10.59,6.13 20.89,32 -10.23,12.59 32.25,21.82l-16.14 59.37 8.45 3.04c40.88,-12.84 370.26,-188.22 383.99,-206.03 4.95,-18.09 -7.79,-20.62 5.48,-12.8 -14.3,-9.54 -3.64,-4.04 -14.77,-7.62 -26.13,-8.42 -1.9,2.12 -2.25,3.45l-15.6 -71.03 -18.22 4.58c-7.72,-6.87 -6.64,5.85 -14.41,-13.91 -23.94,12.21 -19.42,-23.2 -17.59,11.64l8.75 18.19c-6.91,17.51 -0.48,13.09 -19.48,12.99l-42.93 13c-11.39,-32.08 -17.06,-24.44 -12.86,-50.73 -0.01,-19.12 1.75,-10.79 -3.73,-18.7 -9.44,11.72 -28.2,28.73 -41.08,42.86 9.91,-6.36 5.37,0.55 11.69,8.18z"/>
        <path class="fil1" d="M4863.22 5831.74l25.53 -11.74c-17.32,22.7 -17.23,-1.13 -8.51,42.15l23.17 12.18 2.31 47.17c2.7,1.83 6.41,1.57 8,5.64 1.45,3.69 5.61,3.95 7.47,4.81 1.58,0.73 5.11,2.6 6.82,3.33l11.76 3.07 -10.45 -33.75c21.79,-20.75 12.72,-16.34 42.37,-16.13l14.72 41.41 23.45 -11.87c-14.2,-32.06 -10.51,-9.61 -5.82,-39.2 9.19,-34.2 12.98,-32.84 49.34,-33.94 -26.98,-32.04 -22.75,-24.98 -46.06,-25.06 38.36,-27.18 5.33,-8.38 35.86,-16.42 1.65,-42.98 -14.26,7.23 7.86,3.04 27.72,-5.26 3.73,14.65 19.72,-16.19 -50.06,1.47 -12.02,12.39 -42.17,-19.71l5.31 -8.35c3.1,-7.77 21.31,-4.19 -9.65,-5.85l13.84 -20.05c-45.68,13.25 -147.67,62.4 -174.87,95.46z"/>
        <path class="fil12" d="M5013.32 6605.76c38.3,33.7 16.75,54.82 57.47,46.35 9.01,-37.3 -8.73,-30.12 -19.11,-70.83 -27.85,-28.61 -10.65,-39.9 -52.51,-40.25 -0.09,49.71 11.02,22.2 14.15,64.73z"/>
        <path class="fil61" d="M5167.96 6513.54c21.96,31.41 21.52,63.31 53.87,55.29 10.87,-25.84 14.49,3.96 -0.61,-30 -12.62,-28.36 -4.13,7.22 -16.25,-33.42l-13.76 -14.51c-11.64,-34.74 -3.32,-34.26 -35.89,-32.16 -3.5,25.35 4.3,33.24 12.64,54.8z"/>
        <path class="fil61" d="M4863.65 6684.17c13.28,23.33 20.53,44.06 42.03,55.82 27.7,-24.76 2.39,-37.65 -10.23,-76.74 -32.37,-33.72 -10.07,-42.52 -45.43,-35.2 -6.14,28.55 2.43,24.14 13.63,56.12z"/>
        <path class="fil62" d="M4823.82 6062.8c-3.37,27.53 1.99,26.81 16.88,50.8l40.15 -13.02c-16.49,-60.25 -15.63,-40.92 -41.11,-46.03l-15.92 8.25z"/>
        <path class="fil62" d="M4811.46 6437.88l18.03 20.41 26.27 -0.09c0,-12.81 -2.66,-9.57 10.59,-6.13 -3.51,-31.83 -0.24,-28.96 -22.55,-52.3 -31.39,10.72 -34.25,7.93 -32.34,38.11z"/>
        <path class="fil62" d="M5004.04 5878.81l37.06 24.48 24.02 -17.16 -11.74 -41.26c-36.36,1.1 -40.15,-0.26 -49.34,33.94z"/>
        <path class="fil63" d="M4939.77 5938.35l18.77 11.85 27.87 -20.32 -14.72 -41.41c-29.65,-0.21 -20.58,-4.62 -42.37,16.13l10.45 33.75z"/>
        <path class="fil63" d="M4903.36 6018.83c-5.34,25.52 -5.06,30.62 19.25,54.12l29.08 -11.94 2.76 -23.33 -15.56 -24.77 -35.53 5.92z"/>
        <path class="fil62" d="M4716.33 6260.08l21.04 26.97 34.82 -17.91 0.49 -23.67c-23.28,-18.31 -52.8,-36.13 -56.35,14.61z"/>
        <path class="fil2" d="M4756.68 6326.14c13.74,27.45 14.56,19.24 17.15,47.61l44.19 -15.38c-0.81,-26.01 -3.44,-29.12 -22.71,-46.92l-38.63 14.69z"/>
        <polygon class="fil62" points="4977.39,5982.28 4978.26,6015.01 5005.67,6033.32 5032.99,6015.43 5016.78,5970.65 "/>
        <path class="fil2" d="M5232.27 5997.7l-1.68 -7.58c-17.92,-12.92 -6.99,-5.57 -29.59,-10.83l-22.19 12.96 11.63 45c44.08,-8.75 40.21,-2.98 41.83,-39.55z"/>
        <path class="fil48" d="M5322.51 6167.03c-14.16,-10.87 -8.99,-8.63 -26.3,-19.99l-26.2 26.77c3.95,7.05 5.45,13.02 8.6,18.22 18.29,30.2 2.95,6.9 16.22,19.73l32.29 -13.45 -4.61 -31.28z"/>
        <path class="fil62" d="M5090.68 6331.33c12.21,-34.87 0.68,-17.83 -3.37,-54.83l-47.66 18.31 17.56 42.89 33.47 -6.37z"/>
        <polygon class="fil62" points="4759.13,6156.21 4801.67,6141.28 4788.79,6093.13 4744.09,6109.86 "/>
        <path class="fil62" d="M4796.62 6226.21l3.05 10.53c25.43,7.93 19.48,10.67 50.62,-11.72l-21.52 -42.17 -33.33 12.48 1.18 30.88z"/>
        <polygon class="fil2" points="5130.41,5898.51 5147.86,5949.63 5184.3,5936.84 5184.76,5907.79 5168.09,5889.35 "/>
        <polygon class="fil48" points="4890.31,6400.09 4911.08,6421.69 4945.39,6403.78 4922.06,6358.04 4888.33,6372.24 "/>
        <path class="fil62" d="M4688.4 6197.61c34.9,-11.31 32.46,-4.84 37.27,-34.27l-24.08 -27.99 -35.81 24.34 22.62 37.92z"/>
        <path class="fil2" d="M5151.7 6118.01c-1.7,31.11 -1.51,20.3 14.2,49.54l40.52 -19.09c-8.85,-27.62 -8.76,-29.57 -31.13,-42.4l-23.59 11.95z"/>
        <path class="fil2" d="M5204.54 6239.07c7.77,19.76 6.69,7.04 14.41,13.91l18.22 -4.58 16.41 -14.8 -26.35 -40.67 -35.84 15.33 13.15 30.81z"/>
        <path class="fil62" d="M5275.78 6117.67c1.19,-1.1 5.03,-17.35 5.17,-17.63l-15.17 -37.32 -43.13 20.22 20.73 40.65 32.4 -5.92z"/>
        <path class="fil48" d="M4998.77 6377.91l0.16 3.86 22.18 -28.61 -23.68 -37.93 -33.07 21.09c6.61,27.63 5.09,36.05 34.41,41.59z"/>
        <polygon class="fil62" points="5068.26,6164.84 5090.43,6207.13 5128.78,6194.28 5112.63,6145.11 "/>
        <path class="fil2" d="M5120.43 6244.16c-4.2,26.29 1.47,18.65 12.86,50.73l42.93 -13 -25.23 -48.1 -30.56 10.37z"/>
        <polygon class="fil2" points="4915.64,6245.07 4935.86,6290.81 4973.85,6276.33 4955.61,6227.3 "/>
        <path class="fil62" d="M4870.71 6156.99l14.83 46.67 36.92 -12.39c1.22,-28.9 1.57,-25.19 -16.78,-48.17l-34.97 13.89z"/>
        <path class="fil62" d="M5022.68 6083.39l16.64 37.4 40.56 -16.7 -19.72 -45.55c-7.82,3.6 -11.1,2.84 -18.75,7.63 -15.74,9.86 -9.58,4.77 -18.73,17.22z"/>
        <path class="fil62" d="M4840.88 6286.17c2.74,26.83 4.56,27.15 22.47,45.18l32.54 -14.11 -16.15 -46.2 -38.86 15.13z"/>
        <polygon class="fil2" points="4948.31,6115.76 4961.61,6161.86 5003.17,6146.6 4985.54,6098.72 "/>
        <polygon class="fil48" points="5098.53,6037.6 5114.74,6078.36 5157.74,6064.08 5136.48,6017.15 "/>
        <polygon class="fil62" points="5066.02,5936.71 5060.34,5962.07 5072.61,5991.07 5110.18,5973.34 5098.44,5934.28 5097.01,5928.88 "/>
        <path class="fil2" d="M4997.77 6201.96c0.6,26.77 -0.63,26 19.18,46.37l34.65 -23.41c-11.98,-24.4 -6.81,-21.03 -27.47,-35.21l-26.36 12.25z"/>
        <polygon class="fil64" points="5204.97,6505.41 5227.37,6490.83 5191.21,6490.9 "/>
        <path class="fil27" d="M5060.34 5962.07l5.68 -25.36 -16.82 9.16c1.19,31.61 -1.55,4.85 11.14,16.2z"/>
       </g>
      </g>
      <g>
       <path class="fil17" d="M6536.89 2850.8l-22.02 -1.2c-12.8,-30.14 -5.37,-29.9 -38.48,-47.66l20.77 -27.73c12.22,-16.43 -8,0.11 7.96,-8.68 -40.36,32.71 -26.84,17.71 -30.6,-16.81 9.6,39.9 2.99,20.19 -27.25,31.56 28.44,-63.05 29.11,-81.42 -2.02,-101.51 25.66,188.65 -226.5,141.99 -143.36,-25.4l-4.09 0.1c-13.25,7.81 -12.22,4.33 -17.71,5.16 -34.03,130.77 25.15,163.39 143.72,145.18l27.21 68.28c-163.79,108.5 -371.07,42.95 -466.41,-112.35 -49.08,-79.95 -56.41,-186.27 -26.95,-273.9 41.96,-124.78 89.05,-119.82 158.8,-196.54 -2.72,0.65 -22.45,4.8 -24.86,5.12l-9.1 -22.54c-297.9,131.84 -226.56,671.5 160.39,696.17 66.85,4.27 114.71,-5.22 175.81,-29.35 44.09,-17.4 95.86,-47.24 118.19,-87.9z"/>
       <g>
        <path class="fil0" d="M6082.5 2271.88l9.1 22.54c2.41,-0.32 22.14,-4.47 24.86,-5.12l53.34 -12.13 30.3 66.83c1.83,1.82 4.39,2.21 5.42,5.52l41.59 26.01c24.88,26.7 16.28,32.71 13.19,65.97l-6.5 20.16 77.8 156.51c-7.58,5.8 -19.79,14.82 -22.06,17.1 -12.7,12.73 -6.97,6.11 -11.74,18.2l4.09 -0.1c26.46,-7.73 49.16,-27.05 80.97,-19.85 32.8,7.41 45.74,36.31 62.39,45.25 31.13,20.09 30.46,38.46 2.02,101.51 30.24,-11.37 36.85,8.34 27.25,-31.56 3.76,34.52 -9.76,49.52 30.6,16.81 -15.96,8.79 4.26,-7.75 -7.96,8.68l-20.77 27.73c33.11,17.76 25.68,17.52 38.48,47.66l22.02 1.2c38.12,-13.07 77.05,-93.21 91.06,-134.45 27.48,-80.88 19.37,-115.73 16.27,-197.28l293.61 -141.79c43.54,15.9 37.65,29.05 85,-1.52 5.83,-64.89 -58.76,-174.24 -94.05,-228.19l-45.49 -3.87c-68.14,83.68 58.83,16.47 -143.03,117.72 -41.2,20.67 -144.73,75.51 -183.58,80.94 -63.12,-56.4 -114.44,-98.67 -204.24,-117.88 -62.44,-13.36 -234.06,-5.45 -269.94,47.4z"/>
        <path class="fil21" d="M6116.46 2289.3c-69.75,76.72 -116.84,71.76 -158.8,196.54 -29.46,87.63 -22.13,193.95 26.95,273.9 95.34,155.3 302.62,220.85 466.41,112.35l-27.21 -68.28c-118.57,18.21 -177.75,-14.41 -143.72,-145.18l-55.65 19.74c-0.96,-1.99 -4.23,4.5 -6.43,6.67 -11.65,-16.33 -7.9,-9.84 -25.36,-21.14 1.04,4.57 14.13,-6.75 -4.57,13.28l-23.48 9.19 14.92 -42.05c-61.84,35.35 -142.37,42.66 -154,-43.88 -12.66,-94.18 71.33,-101.31 141.65,-81.02 -13.42,-28.57 -5.65,5.62 -9.85,-20.48 -0.54,-3.36 1.24,-4.25 1.47,-6.44 6.42,-1.7 -8.18,-5.55 24.55,-3.07 2.13,0.16 9.26,5.23 11.38,7.09 8.18,-53.29 -3.16,-11.04 16.56,-35.51 -47.49,-21.53 -55.41,-67.01 -9.53,-95.24l-1.65 -21.77 -30.3 -66.83 -53.34 12.13z"/>
        <path class="fil22" d="M6211.28 2461.01c-19.72,24.47 -8.38,-17.78 -16.56,35.51 -2.12,-1.86 -9.25,-6.93 -11.38,-7.09 -32.73,-2.48 -18.13,1.37 -24.55,3.07 -0.23,2.19 -2.01,3.08 -1.47,6.44 4.2,26.1 -3.57,-8.09 9.85,20.48 3.96,19.85 20.93,22.99 24.82,58.52 4.16,37.97 -7.29,36.12 -12.47,66.38l-14.92 42.05 23.48 -9.19c18.7,-20.03 5.61,-8.71 4.57,-13.28 17.46,11.3 13.71,4.81 25.36,21.14 2.2,-2.17 5.47,-8.66 6.43,-6.67l55.65 -19.74c5.49,-0.83 4.46,2.65 17.71,-5.16 4.77,-12.09 -0.96,-5.47 11.74,-18.2 2.27,-2.28 14.48,-11.3 22.06,-17.1l-77.8 -156.51 -42.52 -0.65z"/>
        <path class="fil1" d="M6179.52 2644.32c5.18,-30.26 16.63,-28.41 12.47,-66.38 -3.89,-35.53 -20.86,-38.67 -24.82,-58.52 -70.32,-20.29 -154.31,-13.16 -141.65,81.02 11.63,86.54 92.16,79.23 154,43.88z"/>
        <path class="fil21" d="M6301.89 2653.37c-83.14,167.39 169.02,214.05 143.36,25.4 -16.65,-8.94 -29.59,-37.84 -62.39,-45.25 -31.81,-7.2 -54.51,12.12 -80.97,19.85z"/>
        <path class="fil22" d="M6260.3 2441.5c3.09,-33.26 11.69,-39.27 -13.19,-65.97l-37.02 -1.8c-28.74,26.52 -28.07,33.46 -14.26,65.25 31.84,14.8 32.25,11.3 64.47,2.52z"/>
        <path class="fil65" d="M6211.28 2461.01l42.52 0.65 6.5 -20.16c-32.22,8.78 -32.63,12.28 -64.47,-2.52 -13.81,-31.79 -14.48,-38.73 14.26,-65.25l37.02 1.8 -41.59 -26.01c-1.03,-3.31 -3.59,-3.7 -5.42,-5.52l1.65 21.77c-45.88,28.23 -37.96,73.71 9.53,95.24z"/>
       </g>
       <g>
        <path class="fil0" d="M6082.02 4445.25c-13.04,12.79 -229.35,517.81 -235.45,555.5l466.72 197.56c-3.03,-19.39 -6.36,-12.39 14.79,-17.67 0.39,0.26 17.73,14.55 19.35,15.26 5.43,2.39 -16.36,14.53 15.99,-3.26l32.34 3.37c18.3,2.85 2.47,-9.71 12.77,5.74l24.13 -16.85 7.88 4.9c3.81,-35.09 -1.49,-32.83 23,-52.62 -9.99,-12.1 -11.22,11.81 -4.8,-25.59l55.55 -3.42c0.04,-17.84 0.77,-4.74 17.36,-7.07 48.21,-6.78 28.82,17.83 33.46,-37.63l-28.96 -2.75 -19.12 5.48c2.64,-45.44 50.25,-98.02 39.69,-134.7 5.61,-11.4 15.42,-25.83 16.57,-35.18 6.35,-51.67 -5.83,-26.75 -19.23,-35.49 -14.37,28.68 -1.79,15.29 -21.96,25.77 -21.29,-28.98 23.95,-92.63 35.59,-123.25 14.92,-39.28 36.83,-83.11 50.65,-123.19 -19.71,-0.64 -27.06,5.93 -44.69,19.72 -8.36,-33.35 19.82,-25.29 -34.66,-25.32 6.31,-9.04 32.65,-34.66 2.95,-32.5l40.1 2.81c-18.93,-57.06 4.62,-0.05 -8.39,-23.41l2.95 -6.44c-63.36,-15.09 -171.14,-85.87 -220.62,-82.19l-62.14 14.26 -16.22 34.26c-34.86,34.74 -127.57,329.46 -161.21,352.08 -19.22,-14.88 -17.48,-2.85 16.84,-81.65 13.61,-31.25 25.97,-63.68 39.76,-95.56l2.63 -39.32c-46.2,17.32 -21.6,15.51 -43.12,42.25 -22.01,20.01 1.52,22.82 -31.36,43.33 -11.55,-18.61 -15.27,-1.48 -2.41,-35.38l44.52 -107.54c17.81,-44.25 49.98,-88.81 54.15,-138.35l3.62 -24.44c-27.15,-38.95 -40.08,-9.65 -77.52,-26.99l-41.5 15.47z"/>
        <path class="fil59" d="M6053.21 5147.15c46.84,1.53 243.15,97.08 302.18,120.33 62.21,24.51 253.52,116.66 302.89,120.84 19.13,-30.79 82.75,-178.67 87.14,-211.16l-37.2 -15.3c-3.3,2.6 -8.48,0.44 -8.89,3.57 -0.3,2.27 -3.78,3 -5.32,4.33 -13.87,42.62 -42.84,128.48 -70.23,157.04l-310.49 -128.49 -466.72 -197.56c6.1,-37.69 222.41,-542.71 235.45,-555.5l19.95 -62.25c44.32,7.03 226.92,82.07 254.01,109.83 49.48,-3.68 157.26,67.1 220.62,82.19l-2.95 6.44 312.87 128.06 -65.34 173.24 45.72 21.59c17.72,-44.16 83.31,-181.41 84.35,-217.65l-267.61 -117.51c-132.58,-37.07 -525.38,-236.15 -601.1,-243.9 -27.83,41.64 -287.94,658.41 -292.53,698.7 56.92,38.53 230.85,83.82 263.2,123.16z"/>
        <path class="fil1" d="M6618.34 4640.16l20.24 15.62 -84.52 205.05c13.4,8.74 25.58,-16.18 19.23,35.49 -1.15,9.35 -10.96,23.78 -16.57,35.18 33.4,-33.92 47.2,-92.72 67.11,-137.14 9.61,-21.45 18.96,-42.63 27.59,-64.62 17.61,-44.87 5.95,-46.17 44.31,-57.02 -8.13,50.58 -130.1,327.96 -159.58,388l28.96 2.75c-4.64,55.46 14.75,30.85 -33.46,37.63 -16.59,2.33 -17.32,-10.77 -17.36,7.07l-55.55 3.42c-6.42,37.4 -5.19,13.49 4.8,25.59l9.28 20.92 -2.24 5.81c3.58,-25.44 -8.77,-1.21 8.8,-17.28 36.34,0.2 16.83,-3.43 40.97,9.4l10.23 -18.75 33.63 14.88 -35.74 98.4c-12.4,-10.04 -30.54,-18.84 -46.32,-25.11 -39.96,-15.88 -52.81,-4.22 -49.49,-40.55l-24.13 16.85c-10.3,-15.45 5.53,-2.89 -12.77,-5.74l-32.34 -3.37c-32.35,17.79 -10.56,5.65 -15.99,3.26 -1.62,-0.71 -18.96,-15 -19.35,-15.26 -21.15,5.28 -17.82,-1.72 -14.79,17.67l310.49 128.49c27.39,-28.56 56.36,-114.42 70.23,-157.04 -2.7,-34.28 8.49,-2.35 -18.85,-28.8l52.75 -117.01 58.77 -145.68 34.5 4.49 65.34 -173.24 -312.87 -128.06c13.01,23.36 -10.54,-33.65 8.39,23.41l-40.1 -2.81c29.7,-2.16 3.36,23.46 -2.95,32.5 54.48,0.03 26.3,-8.03 34.66,25.32 17.63,-13.79 24.98,-20.36 44.69,-19.72z"/>
        <path class="fil17" d="M6082.02 4445.25l41.5 -15.47c37.44,17.34 50.37,-11.96 77.52,26.99l-3.62 24.44 25.85 -6.69c2.08,40.58 -75.3,187.78 -90.75,244.63 21.52,-26.74 -3.08,-24.93 43.12,-42.25l-2.63 39.32 72.81 -172c11.63,-34.05 8.21,-40.93 38.37,-42.32l-6.57 39.45 16.22 -34.26 62.14 -14.26c-27.09,-27.76 -209.69,-102.8 -254.01,-109.83l-19.95 62.25z"/>
        <path class="fil63" d="M6694.01 5169.76c1.54,-1.33 5.02,-2.06 5.32,-4.33 0.41,-3.13 5.59,-0.97 8.89,-3.57l37.2 15.3 29.31 8.01 26.7 -69.12c38.83,0.52 59.31,7.88 82.93,-23.86l-0.1 -22.24c-39.49,-7.51 -122.63,-71.29 -156.35,-46l-52.75 117.01c27.34,26.45 16.15,-5.48 18.85,28.8z"/>
        <path class="fil15" d="M6727.91 5023.95c33.72,-25.29 116.86,38.49 156.35,46l0.1 22.24c37.63,-32.07 6.74,-73.96 -24.6,-103.07l26.84 -74.77 -19.7 -10 -45.72 -21.59 -34.5 -4.49 -58.77 145.68z"/>
        <path class="fil4" d="M6582.67 5091.79c30.69,-19.91 99.2,-215.38 135.36,-289.95 7.13,-14.7 13.42,-31.35 19.29,-46.9 30.5,-80.82 14.32,-41.46 4.22,-59.83 -19.36,16.48 -133.09,292.43 -154.87,343.28 -22.6,52.79 -7.92,46.72 -4,53.4z"/>
        <path class="fil4" d="M6337.61 4996.56c33.85,-18.21 27.85,-18.81 58.23,-90.58 28.92,-68.33 117.63,-263.81 124.81,-309.72 -28.27,11.07 -22.47,1.33 -39.56,40.56 -32.69,75.05 -135.58,313.49 -143.48,359.74z"/>
        <path class="fil66" d="M5962.37 4997.57c27.02,27.01 58.81,34.15 84.77,45.96 31.87,-21.57 37.91,-58.26 48.78,-95.04l-96.46 -33.78 -37.09 82.86z"/>
        <path class="fil4" d="M6556.72 4931.5c10.56,36.68 -37.05,89.26 -39.69,134.7l19.12 -5.48c29.48,-60.04 151.45,-337.42 159.58,-388 -38.36,10.85 -26.7,12.15 -44.31,57.02 -8.63,21.99 -17.98,43.17 -27.59,64.62 -19.91,44.42 -33.71,103.22 -67.11,137.14z"/>
        <path class="fil4" d="M6173.01 4716.22c-13.79,31.88 -26.15,64.31 -39.76,95.56 -34.32,78.8 -36.06,66.77 -16.84,81.65 33.64,-22.62 126.35,-317.34 161.21,-352.08l6.57 -39.45c-30.16,1.39 -26.74,8.27 -38.37,42.32l-72.81 172z"/>
        <path class="fil67" d="M6197.42 4481.21c-4.17,49.54 -36.34,94.1 -54.15,138.35l-44.52 107.54c-12.86,33.9 -9.14,16.77 2.41,35.38 32.88,-20.51 9.35,-23.32 31.36,-43.33 15.45,-56.85 92.83,-204.05 90.75,-244.63l-25.85 6.69z"/>
        <path class="fil66" d="M6432.66 5184.9c-3.32,36.33 9.53,24.67 49.49,40.55 15.78,6.27 33.92,15.07 46.32,25.11l35.74 -98.4 -33.63 -14.88 -10.23 18.75c-26.62,25.61 -9.75,24.32 -0.11,68.78l-49.66 -60.9 2.24 -5.81 -9.28 -20.92c-24.49,19.79 -19.19,17.53 -23,52.62l-7.88 -4.9z"/>
        <path class="fil8" d="M6554.06 4860.83l84.52 -205.05 -20.24 -15.62c-13.82,40.08 -35.73,83.91 -50.65,123.19 -11.64,30.62 -56.88,94.27 -35.59,123.25 20.17,-10.48 7.59,2.91 21.96,-25.77z"/>
        <path class="fil4" d="M6279.23 4969.23c40.51,-14.06 23.39,-5.49 58.63,-88.86 13.77,-32.56 30.03,-63.22 36.84,-97.89 -39.77,-1.18 -34.97,34.73 -53,73.68 -17.58,38 -35.47,71.25 -42.47,113.07z"/>
        <path class="fil4" d="M6381.36 4756.87c29.21,-17.1 20.54,-34.72 46.53,-90.92 12.55,-27.16 35.43,-65.75 27.2,-91.21 -35.62,13.67 -55.61,96.59 -71.5,132.92 -24.91,56.96 -7.91,39.64 -2.23,49.21z"/>
        <path class="fil66" d="M6223.56 5046.68l63.94 1.96 -19.08 25.99 11.85 50.37c11.57,14.71 -25.49,24.4 21.54,8.25l27.05 -83.41 -99.45 -30.76 -5.85 27.6z"/>
        <path class="fil4" d="M6321.71 4707.16c35.68,-3.56 72.24,-119.66 81.98,-155 -20.42,-0.46 -20.82,-22.81 -51.54,64.33 -10.4,29.52 -29.46,60.16 -30.44,90.67z"/>
        <path class="fil66" d="M6282.77 5125l-59.21 -78.32 -15.76 25.89c-2.44,6.08 -7.57,22.88 -9.84,30.26l53.92 32.42 30.89 -10.25z"/>
        <path class="fil68" d="M6470.58 5163.91l49.66 60.9c-9.64,-44.46 -26.51,-43.17 0.11,-68.78 -24.14,-12.83 -4.63,-9.2 -40.97,-9.4 -17.57,16.07 -5.22,-8.16 -8.8,17.28z"/>
        <polygon class="fil68" points="6282.77,5125 6280.27,5125 6268.42,5074.63 6287.5,5048.64 6223.56,5046.68 "/>
        <path class="fil68" d="M6048.02 5023.33l-16.58 -48.9c10.33,-15.99 -0.73,-4.47 11.98,-15.95 0.13,-0.13 12.24,-8.06 13.56,-8.93l-60.54 -0.97c12.03,33.43 27.91,48.48 51.58,74.75z"/>
       </g>
       <g>
        <path class="fil69" d="M6632.91 3584.7l6.56 11.68 201.96 19.46 -81.32 12.3 41.72 -1.35c-13.51,29.38 -28.43,32.45 -51.81,58.32 -45.57,50.43 -26.56,42.16 -59.31,38.7l25.84 71.48c21.77,18.68 18.7,15.78 23.58,45.19l16.27 25.42 -26.25 -19.61 -27.31 -38.8c-8.38,-22.11 2.58,-3.05 -13.88,-24.74 -13.5,-17.79 -14.84,-17.04 -27.13,-26.21 -0.98,18.24 3.28,7.96 -5.34,21.29 -8.79,13.59 -12.15,13.27 -22.92,22.04 -23.16,2.32 -2.64,5.08 -17.65,-13.82l-10.64 48.64 -15.41 -47.11c1.36,44.89 13.56,44.64 -18.88,74.19 -18.89,17.2 -33.5,35.97 -50.12,51.23 -29.14,26.76 -82.82,77.27 -100.62,106.55 131.73,96.28 554.41,44.3 622,-323.22 13.44,-73.12 11.64,-240.94 -49.08,-288.64l-105.5 135.3c-58.95,59.02 -35.92,67.89 -132.66,50.13 32.09,-46.17 67.26,-70.31 107.15,-109.69 30.33,-29.93 84.6,-67.2 94.14,-109.63l24.63 7.61c-9.32,-26.21 -9.18,-25 -31.2,-39.75 -36.38,52.45 -216.76,214.4 -237.35,246.84l-79.47 -3.8z"/>
        <path class="fil69" d="M6418.69 3198.81c-14.82,18.46 -7.56,12.7 -33.17,21.72l0.04 14.98 -23.41 6.47c-78.33,19.47 -154.95,148.99 -184.81,234.27 -37.99,108.49 -29.57,266.88 38.04,358.44l-1.22 -34.15c36.85,-14.67 135.79,-138.05 181.52,-170.73l41.67 -1.49 -69.29 -10.33c34.83,-24.87 36.89,-4.82 69.52,-18l-12.46 -5.3c20.08,-16.28 65.92,-87.4 98.92,-78.14l-28.33 -72.32 -35.91 -85.91 58.09 82.53c3.55,4.63 9.34,13.59 12.5,17.08 22.48,24.9 2.43,4.6 21.27,17.38l30.97 -39.48 4.05 26c15.03,-14.25 9.65,-56.56 18,-81.35l9.24 48.5c13.06,-49.99 9.42,-32.23 43.18,-65.54 17.23,-17.01 33.74,-33.79 50.78,-50.77 32.65,-32.52 66.58,-79.37 106.95,-86.8 -32.94,-40.95 -127.18,-55.9 -181.51,-58.9 -103.59,-5.71 -139.82,26.73 -214.63,31.84z"/>
        <path class="fil13" d="M6567.85 4197.75l39.5 -3.65 -0.64 -84.55 8.26 -21.42c35.04,-0.96 14.67,-0.06 23.03,-8.26 -40.09,-7.1 -16.74,0.91 -47.5,4.76 -129.64,16.19 -266.55,-97.84 -282.6,-90.95 -15.81,-34.7 -4.19,-11.2 -28.56,-36.9 -22.29,-23.49 -4.9,-29.07 -41.31,-23.72l5.3 -17.96c-18.87,-17.95 -27.03,-27.53 -41.51,-50.54 -21.47,-34.1 -12.87,-56.06 -33.48,-48.98 -14.54,-81.61 -41.6,-57.51 -37.96,-222.9 1.76,-79.7 30.76,-140.67 50.49,-210.81 19.05,-15.51 -28.77,10.2 12.51,0.32 7.52,-19.43 6.77,-9.34 -3.66,-23.03 32.89,-18.3 3.19,3.05 20.63,-23.49 17.35,-26.39 96.2,-90.42 122.1,-111.71 29.41,-24.19 33.17,-35.18 53.07,-3.43 25.61,-9.02 18.35,-3.26 33.17,-21.72l-39.24 11.79c15.55,-33.23 -13.51,-8.7 25.34,-31.7 0.02,-0.01 27.26,-11.51 28.45,-11.93 22.61,-7.98 47.18,-11.18 70.85,-16.1 136.92,-28.47 82.68,7.98 169.56,-2.28 -10.37,-16.08 -44.58,-12.21 -66.34,-14.13l0.25 -110.75c-155.83,15.29 -305.28,51.95 -410.88,167.05 -110.34,120.27 -174.1,230.06 -177.72,402.36 -6.8,323.42 228.44,586 548.89,604.63z"/>
        <path class="fil14" d="M6782.49 3164.37c11.91,18.68 91.56,55.66 121.7,81.83 132.58,115.12 194.28,265.83 166.05,445.52 -35.13,223.61 -254.94,404.62 -432.24,388.15 -8.36,8.2 12.01,7.3 -23.03,8.26l-8.26 21.42c19.74,-5.9 10.06,-21.09 13.45,15.2 0.9,9.55 -0.8,37.95 -0.8,49.16 17.04,-13.52 31.15,19.19 19.79,-68.6 5.31,14.02 -10.41,6.81 17.44,12.42l62.96 8.83c-117.13,0.06 -80.54,-10.52 -85.79,33.83 43.94,-0.72 14.09,-3.42 49.02,-13.09 38.91,-10.77 25.62,9.5 43.39,-21.41l24.08 5.48c69.27,3.24 209.22,-112.9 254.87,-174.77 276.77,-375.11 0.04,-790.19 -207.4,-847.38 -30.21,1 -13.65,-4.07 -29.33,7.6 12.99,38.01 4.5,27.59 59.18,27.61 -15.77,6.56 -20.45,6.63 -33.65,12.12 -7.43,3.09 -7.37,3.42 -11.43,7.82z"/>
        <path class="fil70" d="M6418.69 3198.81c74.81,-5.11 111.04,-37.55 214.63,-31.84 54.33,3 148.57,17.95 181.51,58.9 38.3,8.18 49.18,24.13 78.88,47.27 13.42,10.46 23.61,20.04 35.18,32.52 20.28,21.86 15.33,15.61 20.84,36 22.02,14.75 21.88,13.54 31.2,39.75 9.8,4.49 13.78,3.83 12.24,26.28 60.72,47.7 62.52,215.52 49.08,288.64 -67.59,367.52 -490.27,419.5 -622,323.22l-49.88 -28.86c-31.65,-14.59 -31.73,-9.23 -52.55,-41.92 -34.83,0.55 -86.39,-78.87 -102.44,-114.08 -67.61,-91.56 -76.03,-249.95 -38.04,-358.44 29.86,-85.28 106.48,-214.8 184.81,-234.27 7.83,-10.39 3.77,-11.09 23.37,-21.45 -19.9,-31.75 -23.66,-20.76 -53.07,3.43 -25.9,21.29 -104.75,85.32 -122.1,111.71 -17.44,26.54 12.26,5.19 -20.63,23.49 10.43,13.69 11.18,3.6 3.66,23.03 -41.28,9.88 6.54,-15.83 -12.51,-0.32 -19.73,70.14 -48.73,131.11 -50.49,210.81 -3.64,165.39 23.42,141.29 37.96,222.9 20.61,-7.08 12.01,14.88 33.48,48.98 14.48,23.01 22.64,32.59 41.51,50.54l-5.3 17.96c36.41,-5.35 19.02,0.23 41.31,23.72 24.37,25.7 12.75,2.2 28.56,36.9 16.05,-6.89 152.96,107.14 282.6,90.95 30.76,-3.85 7.41,-11.86 47.5,-4.76 177.3,16.47 397.11,-164.54 432.24,-388.15 28.23,-179.69 -33.47,-330.4 -166.05,-445.52 -30.14,-26.17 -109.79,-63.15 -121.7,-81.83 -46.63,0.89 -57.78,-20.04 -108.84,-15.78 -86.88,10.26 -32.64,-26.19 -169.56,2.28 -23.67,4.92 -48.24,8.12 -70.85,16.1 -1.19,0.42 -28.43,11.92 -28.45,11.93 -38.85,23 -9.79,-1.53 -25.34,31.7l39.24 -11.79z"/>
        <path class="fil0" d="M6613.92 3428.98c-1.39,39.27 6.41,119.67 18.72,156.08l0.27 -0.36 79.47 3.8c20.59,-32.44 200.97,-194.39 237.35,-246.84 -5.51,-20.39 -0.56,-14.14 -20.84,-36 -11.57,-12.48 -21.76,-22.06 -35.18,-32.52 -29.7,-23.14 -40.58,-39.09 -78.88,-47.27 -40.37,7.43 -74.3,54.28 -106.95,86.8 -17.04,16.98 -33.55,33.76 -50.78,50.77 -33.76,33.31 -30.12,15.55 -43.18,65.54z"/>
        <path class="fil71" d="M6673.65 3148.59c51.06,-4.26 62.21,16.67 108.84,15.78 4.06,-4.4 4,-4.73 11.43,-7.82 13.2,-5.49 17.88,-5.56 33.65,-12.12 -54.68,-0.02 -46.19,10.4 -59.18,-27.61 15.68,-11.67 -0.88,-6.6 29.33,-7.6 -36.97,-28.56 -106.55,-49.34 -150.01,-55.26 277.27,24.51 476.07,224.01 514.32,495.95 41.14,292.49 -212.39,594.1 -422.85,604.75 0.51,-0.75 9.38,-20.28 11.07,-23.29l-24.08 -5.48c-17.77,30.91 -4.48,10.64 -43.39,21.41 -34.93,9.67 -5.08,12.37 -49.02,13.09 5.25,-44.35 -31.34,-33.77 85.79,-33.83l-62.96 -8.83c-27.85,-5.61 -12.13,1.6 -17.44,-12.42 11.36,87.79 -2.75,55.08 -19.79,68.6 0,-11.21 1.7,-39.61 0.8,-49.16 -3.39,-36.29 6.29,-21.1 -13.45,-15.2l0.64 84.55 -39.5 3.65c54.29,19.9 189.11,-14.75 245.11,-35.04 211.33,-76.59 367.24,-286.76 377.11,-511.86l25.95 3.16 -3.32 -4.02c-23.31,-9.96 -15.67,-2.92 -22.7,-23.38 18.35,-25.3 62.26,-16.63 94.28,-10.31l0.6 -31.64 -29.08 -7.84 5.69 -16.13 -25.82 19.98c-14.9,-13.71 -6.57,-1.85 -11.46,-24.63l-20.5 22.73c-58.2,-70.25 -17.05,-496.16 -596.15,-555.06l-0.25 110.75c21.76,1.92 55.97,-1.95 66.34,14.13z"/>
        <path class="fil0" d="M6215.38 3834.69c16.05,35.21 67.61,114.63 102.44,114.08l22.74 6.88 191.39 -192.97c39.56,-42.26 33.95,-16.32 46.04,-72.49l1.4 -49.29 0.4 0.28 -142.44 -12.86 -41.67 1.49c-45.73,32.68 -144.67,156.06 -181.52,170.73l1.22 34.15z"/>
        <path class="fil72" d="M6797.72 3109.22c207.44,57.19 484.17,472.27 207.4,847.38 -45.65,61.87 -185.6,178.01 -254.87,174.77 -1.69,3.01 -10.56,22.54 -11.07,23.29 210.46,-10.65 463.99,-312.26 422.85,-604.75 -38.25,-271.94 -237.05,-471.44 -514.32,-495.95 43.46,5.92 113.04,26.7 150.01,55.26z"/>
        <path class="fil24" d="M6370.37 3990.69l49.88 28.86c17.8,-29.28 71.48,-79.79 100.62,-106.55 16.62,-15.26 31.23,-34.03 50.12,-51.23 32.44,-29.55 20.24,-29.3 18.88,-74.19l2.2 -27c-35.38,14.78 -137.05,126.76 -180.68,170.23 -11.33,11.28 -19.71,16.81 -29.5,29.41 -21.95,28.25 -12.48,13.06 -11.52,30.47z"/>
        <path class="fil24" d="M6993.17 3407.69c1.54,-22.45 -2.44,-21.79 -12.24,-26.28l-24.63 -7.61c-9.54,42.43 -63.81,79.7 -94.14,109.63 -39.89,39.38 -75.06,63.52 -107.15,109.69 96.74,17.76 73.71,8.89 132.66,-50.13l105.5 -135.3z"/>
        <path class="fil69" d="M6317.82 3948.77c20.82,32.69 20.9,27.33 52.55,41.92 -0.96,-17.41 -10.43,-2.22 11.52,-30.47 9.79,-12.6 18.17,-18.13 29.5,-29.41 43.63,-43.47 145.3,-155.45 180.68,-170.23 -4.8,-22.93 -0.99,-69.64 -14.08,-70.39 -12.09,56.17 -6.48,30.23 -46.04,72.49l-191.39 192.97 -22.74 -6.88z"/>
        <path class="fil33" d="M7254.85 3660.28l-42.15 -10.29 3.32 4.02c122.44,227.6 332.83,11.63 268.7,-67.54l-5.18 27.03c-18.94,-23.33 -17.3,-10.61 -15.01,-47.62l-12.85 -5.8c12.19,69.3 18.45,122.6 -56.04,152.42 -30.14,12.07 -62.55,12.51 -91.6,-3.12 -33.64,-18.09 -40.65,-40.97 -49.19,-49.1z"/>
        <path class="fil70" d="M7224.21 3556.04c4.89,22.78 -3.44,10.92 11.46,24.63l25.82 -19.98c31.23,-83.79 133.88,-69.41 190.19,-0.61l12.85 5.8c-2.29,37.01 -3.93,24.29 15.01,47.62l5.18 -27.03c15.24,-96.26 -185.07,-183.98 -260.51,-30.43z"/>
        <path class="fil17" d="M6661.15 3651.36l16.19 60.25 13.37 12.2c32.75,3.46 13.74,11.73 59.31,-38.7 23.38,-25.87 38.3,-28.94 51.81,-58.32l-41.72 1.35 -96.19 9.14 -2.77 14.08z"/>
        <path class="fil46" d="M6524.04 3516.55l34.91 76.14 13.85 21.14 17.97 -27.32 24.54 -4.14 -44 -69.91c-15.6,-12.45 -17.42,-18.02 -19.65,-37.15 -18.84,-12.78 1.21,7.52 -21.27,-17.38 -3.16,-3.49 -8.95,-12.45 -12.5,-17.08 -16.58,-16.37 -11.19,27.49 -11.19,-14.68 -16.03,0 -9.38,-3.01 -10.99,18.06l28.33 72.32z"/>
        <path class="fil1" d="M6437.58 3599.99l121.37 -7.3 -34.91 -76.14c-33,-9.26 -78.84,61.86 -98.92,78.14l12.46 5.3z"/>
        <path class="fil4" d="M6437.58 3599.99c-32.63,13.18 -34.69,-6.87 -69.52,18l69.29 10.33 142.44 12.86 -6.99 -27.35 -13.85 -21.14 -121.37 7.3z"/>
        <path class="fil67" d="M6577.99 3690.19c13.09,0.75 9.28,47.46 14.08,70.39l-2.2 27 15.41 47.11 10.64 -48.64c-4.19,-41.45 -7.83,-52.54 19.46,-75.35 -14.23,-23.94 -28.25,-34.09 -32.74,-58.75 -12.05,-7.87 -9.12,-3.75 -23.25,-11.05l-1.4 49.29z"/>
        <path class="fil73" d="M6635.38 3710.7c22.88,24.35 22.17,20.38 26.45,45.84 12.29,9.17 13.63,8.42 27.13,26.21 16.46,21.69 5.5,2.63 13.88,24.74 16.17,3.89 10.33,6.13 13.71,-12.2l-25.84 -71.48 -13.37 -12.2 -21.14 0c-4.9,-32.35 -17.44,-64.71 -53.56,-59.66 4.49,24.66 18.51,34.81 32.74,58.75z"/>
        <path class="fil6" d="M6586.68 3461.83l0.36 49 -15.73 1.63 44 69.91 17.33 2.69c-12.31,-36.41 -20.11,-116.81 -18.72,-156.08l-9.24 -48.5c-8.35,24.79 -2.97,67.1 -18,81.35z"/>
        <polygon class="fil6" points="6641.21,3627.01 6661.15,3651.36 6663.92,3637.28 6760.11,3628.14 6841.43,3615.84 6639.47,3596.38 "/>
        <path class="fil74" d="M7212.7 3649.99l42.15 10.29 29.43 -43.98c-32.02,-6.32 -75.93,-14.99 -94.28,10.31 7.03,20.46 -0.61,13.42 22.7,23.38z"/>
        <path class="fil1" d="M6615.92 3786.05c15.01,18.9 -5.51,16.14 17.65,13.82 10.77,-8.77 14.13,-8.45 22.92,-22.04 8.62,-13.33 4.36,-3.05 5.34,-21.29 -4.28,-25.46 -3.57,-21.49 -26.45,-45.84 -27.29,22.81 -23.65,33.9 -19.46,75.35z"/>
        <polygon class="fil14" points="6572.8,3613.83 6579.79,3641.18 6641.21,3627.01 6639.47,3596.38 6632.91,3584.7 6632.64,3585.06 6615.31,3582.37 6590.77,3586.51 "/>
        <path class="fil75" d="M6579.79 3641.18l-0.4 -0.28c14.13,7.3 11.2,3.18 23.25,11.05 36.12,-5.05 48.66,27.31 53.56,59.66l21.14 0 -16.19 -60.25 -19.94 -24.35 -61.42 14.17z"/>
        <path class="fil17" d="M6551.66 3475.31c2.23,19.13 4.05,24.7 19.65,37.15l15.73 -1.63 -0.36 -49 -4.05 -26 -30.97 39.48z"/>
        <path class="fil76" d="M6702.84 3807.49l27.31 38.8 9.98 -5.81c-4.88,-29.41 -1.81,-26.51 -23.58,-45.19 -3.38,18.33 2.46,16.09 -13.71,12.2z"/>
        <path class="fil52" d="M6495.71 3444.23c1.61,-21.07 -5.04,-18.06 10.99,-18.06 0,42.17 -5.39,-1.69 11.19,14.68l-58.09 -82.53 35.91 85.91z"/>
        <path class="fil77" d="M6596.44 3621.45c32.52,-8.69 14.33,5.74 20.71,-21.89 -26.11,10.45 10.73,-27.15 -13.49,6.84l-7.22 15.05z"/>
        <path class="fil78" d="M6362.15 3241.98l23.41 -6.47 -0.04 -14.98c-19.6,10.36 -15.54,11.06 -23.37,21.45z"/>
        <polygon class="fil30" points="6730.15,3846.29 6756.4,3865.9 6740.13,3840.48 "/>
       </g>
       <g>
        <path class="fil14" d="M5785.67 1993.69l34.37 45.18c-6.12,-34.84 27.16,-43.09 56.74,-65.9 23.68,-18.26 43.91,-30.7 68.37,-50.27l275.89 -205.94c35.07,-26.33 110.07,-96.93 149.86,-94.76l-32.43 -41.15c-39.89,12.89 -234,164.7 -281.16,200.57 -50.41,38.35 -251.54,171.92 -271.64,212.27z"/>
        <path class="fil33" d="M5820.04 2038.87c10.37,7.17 1.82,-1.32 7.47,16.78 29.86,-8.86 38.82,-20.74 64.51,-37.11l23.62 -18.74 468 -348.09 -12.74 -29.71c-39.79,-2.17 -114.79,68.43 -149.86,94.76l-275.89 205.94c-24.46,19.57 -44.69,32.01 -68.37,50.27 -29.58,22.81 -62.86,31.06 -56.74,65.9z"/>
        <path class="fil17" d="M5720.5 2078.51l3.78 7.51c6.6,7.66 19.36,11.26 19.6,11.42l83.63 -41.79c-5.65,-18.1 2.9,-9.61 -7.47,-16.78l-34.37 -45.18c-27.15,12.53 -16.68,12.29 -38.44,36.68 -24.49,27.46 -27.36,14 -26.73,48.14z"/>
        <polygon class="fil48" points="5684.53,2100.87 5687.56,2114.71 5722.54,2108.41 5724.28,2086.02 5720.5,2078.51 5701.23,2077.07 "/>
        <path class="fil12" d="M5687.56 2114.71l-3.03 -13.84 -22.32 28.18c37.18,-9.36 11.97,3.34 25.35,-14.34z"/>
        <polygon class="fil79" points="5892.02,2018.54 5910,2015.7 5915.64,1999.8 "/>
       </g>
      </g>
     </g>
     <g>
      <path class="fil80" d="M1753.45 6306.28c-3.96,469.03 528.15,670.07 836.16,423.18 154.96,-124.22 143.97,-202.93 190.57,-283.11l4.92 -63.59 -4.5 -69.06 -85.05 0.94c-35.78,-572.75 -827.4,-538.97 -841.58,-2.9 -39.53,3.48 -72.22,7.9 -100.52,-5.46z"/>
      <path class="fil0" d="M2159.8 5937.43c2.22,18.12 4.4,16.21 4.98,17.57l-5.93 34.49c-4.65,20.96 0.35,5.02 3.67,9.94l-17.38 -3.26c-1.65,-0.48 -6.28,0.03 -7.59,-3.13 -1.42,-3.42 -5.38,-2.55 -8.07,-3.81 19.12,28.73 14.61,23.73 17.23,53.96l-21.32 10.46c-12.67,6.6 -3.77,4.73 -18.57,6.7 -74.9,9.97 -18.52,-26.46 -78,-49.62 -16.32,4.24 -5.22,-4.7 -26.32,12.98 -53.97,45.23 -103.1,139.45 -117.43,205.5 -69.94,322.34 260.15,596.95 573.46,437.44 261.55,-133.16 299.38,-532.44 5.48,-699.36 -73.49,-41.74 -235.5,-72.38 -304.21,-29.86z"/>
      <path class="fil16" d="M1753.45 6306.28c28.3,13.36 60.99,8.94 100.52,5.46 14.18,-536.07 805.8,-569.85 841.58,2.9l85.05 -0.94 4.5 69.06c33.48,-34.06 -4.98,-207.74 -24.74,-255.19 -28.16,-67.61 -65.42,-130.6 -114.96,-180.57 -130.76,-131.89 -272.07,-159.76 -457.48,-148.99l1.35 2.85c-249.24,32.59 -431.1,256.42 -435.82,505.42z"/>
      <path class="fil29" d="M2476.45 6451.06c30.13,-4.19 0.83,7.32 33.12,-12.7l0.21 -30.98 -209.47 -120.89 -1.4 -143.13 -51.5 -0.07 -2.21 176.09 231.25 131.68z"/>
      <path class="fil17" d="M2028.82 6010.73c59.48,23.16 3.1,59.59 78,49.62 14.8,-1.97 5.9,-0.1 18.57,-6.7l21.32 -10.46c-2.62,-30.23 1.89,-25.23 -17.23,-53.96 2.69,1.26 6.65,0.39 8.07,3.81 1.31,3.16 5.94,2.65 7.59,3.13l17.38 3.26c-3.32,-4.92 -8.32,11.02 -3.67,-9.94l5.93 -34.49c-0.58,-1.36 -2.76,0.55 -4.98,-17.57 -44.23,10.57 -108.74,32.45 -130.98,73.3z"/>
      <path class="fil81" d="M2472.26 6637.76c-20.55,-36.31 -12.42,-48.53 -49.02,-58.94 5.78,19.25 5.46,20.96 16.03,39.43 18.24,31.89 8.15,22.53 32.99,19.51z"/>
      <path class="fil82" d="M2583.08 6310.92c15.79,11.72 -28.91,11.74 73.07,11.3l-2.63 -18.78c-31.36,0.06 -44.43,-4.59 -70.44,7.48z"/>
      <path class="fil83" d="M2541.55 6142.8c-2.22,22.46 -7.52,17.27 14.58,16.79 30.66,-17.41 40.93,-13.55 45.87,-42.75l-60.45 25.96z"/>
      <path class="fil82" d="M2421.65 6049.88c28.82,-13.77 39.74,-34.97 43.74,-67.35 -28.04,10.82 -37.73,35.52 -43.74,67.35z"/>
      <path class="fil83" d="M2125.39 6053.65c-9.54,-28.1 -16.15,-51.2 -39.11,-69.06 -17.07,24.86 15.06,56.79 39.11,69.06z"/>
      <path class="fil81" d="M2007.13 6164.23c-6.6,-27.83 -40.34,-37.52 -67.74,-44.51 13.63,27.15 36.66,41.78 67.74,44.51z"/>
      <path class="fil84" d="M2272.55 6006.57c14.6,-20.65 17.06,-52.02 0,-73.6 -17.05,22.63 -14.69,52.83 0,73.6z"/>
      <path class="fil83" d="M2272.55 6694.01c7.11,-8.83 14.06,7.84 13.69,-36.01 -0.36,-42.58 -6.11,-25.43 -13.69,-34.03 -10.68,23.69 -10.66,46.72 0,70.04z"/>
      <path class="fil83" d="M2605.22 6507.24c-12.21,-29.3 -33.29,-37.36 -65.64,-46.16 13.1,30.36 31.1,38.77 65.64,46.16z"/>
      <path class="fil82" d="M1894.32 6318.03c18.01,10.93 49.82,10.86 70.99,1.36 -9.28,-15.69 3.83,-12.13 -31.31,-13.21 -43.85,-1.35 -27.3,2.06 -39.68,11.85z"/>
      <path class="fil83" d="M1959.24 6491.01c-23.03,28.99 -10.71,9.68 3.94,16l39.87 -23.24c3.79,-18.56 7.13,-13.38 -12.55,-13.42l-31.26 20.66z"/>
      <path class="fil83" d="M2086.61 6647.55l43.35 -62.5c-33.13,3.25 -53.16,40.46 -43.35,62.5z"/>
      <path class="fil85" d="M2476.45 6451.06c7.76,13.41 -12.93,8.97 15.79,11.05l17.33 -23.75c-32.29,20.02 -2.99,8.51 -33.12,12.7z"/>
      <path class="fil86" d="M1963.18 6507.01c-14.65,-6.32 -26.97,12.99 -3.94,-16 -22.39,6.49 -13.8,-6.07 -19.05,15.08 22.96,13.94 4.37,8.63 22.99,0.92z"/>
      <path class="fil87" d="M2003.05 6483.77c10.97,-11.52 15.43,17.21 6.46,-19.2l-19.01 5.78c19.68,0.04 16.34,-5.14 12.55,13.42z"/>
      <path class="fil88" d="M2556.13 6159.59c-22.1,0.48 -16.8,5.67 -14.58,-16.79 -8.55,13.94 -17.56,-19.74 -4.28,20.92l18.86 -4.13z"/>
     </g>
    </g>
    <g>
     <path class="fil13" d="M797.08 5997.78l19.2 8.65c85.7,-55.66 445.6,-374.18 493.99,-389.82 26.64,-42.61 8.22,-7.05 25.04,-24.37 3.65,-3.76 8.55,-14.12 11.4,-21.32l19.86 -4.19c15.48,-23.68 38.48,-37.62 63.86,-46.4 16.84,-32.52 9.55,-31.55 50.42,-48.88 25.43,-26.4 24.48,-30.73 63.67,-31.95 2.99,-35.19 10.25,-36.92 44.06,-52.87l-1.51 -15.47c-36.62,-16.21 -130.01,-171.33 -178.75,-204.28 -3.71,181.96 31.47,93.3 73.84,202.27 -24.84,25.13 -81.25,58.4 -92.07,84.96 -12.31,30.22 -52.08,56.05 -91.21,86.39 -33.12,-4.23 -60.53,-22.36 -97.51,-28.54 -45.01,-7.53 -78.45,6.09 -113.57,-13.72 -62.31,-35.14 -114.47,-57.55 -191.1,-45.05 -61.84,10.09 -268.42,135.87 -313.96,182.27l94.31 119.8 -40.27 30.73c8.71,37.27 127.9,171.13 160.3,211.79z"/>
     <path class="fil14" d="M1480.85 5471.45c-17.17,33.13 -12.54,10.18 -32.3,38.51l16.67 31.75c-19.49,-0.51 -31.03,-0.2 -34.79,-21.38 -25.38,8.78 -48.38,22.72 -63.86,46.4 -12.81,19.19 16.16,15.96 -14.91,15.99l5.83 43.74 -33.41 -23.3 -13.81 13.45c-48.39,15.64 -408.29,334.16 -493.99,389.82l-19.2 -8.65 93.39 110.51c37.01,-39.22 81.56,-68.63 123.56,-107.95l185.68 -161.2c195.74,-186.41 101.18,-157.11 149.97,-204.33 46.4,81.69 -58.76,225.45 -121.67,292.03l-200.22 188.83c-50.83,50.8 -63.17,41.43 -62.94,85.16l22.51 28.92 51.36 -31.65 92.31 110.78c36.86,-14.87 218.46,-207.74 237.84,-251.96 30.94,-70.61 27.04,-131.98 4.01,-202.01 -16.79,-51.09 0.86,-60.08 6.17,-111.07 4.95,-47.62 -6.93,-69.99 -9.52,-110.25 27.71,-38.38 73.98,-75.35 120.02,-75.05l91.32 -73.8 38.49 38.82 87.78 10.38 -118.56 -147.31c-33.81,15.95 -41.07,17.68 -44.06,52.87 -39.19,1.22 -38.24,5.55 -63.67,31.95z"/>
     <path class="fil56" d="M1408.32 5166.88c48.74,32.95 142.13,188.07 178.75,204.28 48.23,-2.6 103.42,-86.86 152.08,-105.18 57.57,28.91 166.57,221.9 229.71,263.83l66.73 2.04 -1.25 -28.64 -135.59 -160.88 -19.15 -22.7c-28.45,-41.88 -129.71,-147.52 -138.15,-182.73 -64.63,-39.81 -151.27,-221.44 -209.67,-224.51 -2.62,87.32 -111.54,132.78 -167.12,187.8 9.73,32.21 26.27,38.31 43.66,66.69z"/>
     <path class="fil21" d="M1587.07 5371.16l1.51 15.47 118.56 147.31 17.9 26.46c22.36,12.64 24.03,18.38 38.35,41.11l40.95 56.68c32.8,-8.31 143.58,-98.75 164.52,-128.38 -63.14,-41.93 -172.14,-234.92 -229.71,-263.83 -48.66,18.32 -103.85,102.58 -152.08,105.18z"/>
     <path class="fil77" d="M890.47 6108.29l74.38 92.54c-0.23,-43.73 12.11,-34.36 62.94,-85.16l200.22 -188.83c62.91,-66.58 168.07,-210.34 121.67,-292.03 -48.79,47.22 45.77,17.92 -149.97,204.33l-185.68 161.2c-42,39.32 -86.55,68.73 -123.56,107.95z"/>
     <path class="fil89" d="M1074.74 6158.52c15.7,25.72 38.55,58.93 66.13,69.98 109.21,-100.24 208.66,-190.3 184.51,-316.91 -30.01,9.59 -10.62,-3.53 -34.96,27.04 -8.42,10.57 -18.2,22.18 -26.96,32.05 -54.45,61.38 -156.9,134.85 -188.72,187.84z"/>
     <path class="fil39" d="M1658.26 5584.24l105.13 17.27c-14.32,-22.73 -15.99,-28.47 -38.35,-41.11l-92.62 -11.71c20.95,19.64 15.4,14.62 25.84,35.55z"/>
     <polygon class="fil77" points="1632.42,5548.69 1725.04,5560.4 1707.14,5533.94 1619.36,5523.56 "/>
     <path class="fil90" d="M1430.43 5520.33c3.76,21.18 15.3,20.87 34.79,21.38l-16.67 -31.75c19.76,-28.33 15.13,-5.38 32.3,-38.51 -40.87,17.33 -33.58,16.36 -50.42,48.88z"/>
     <path class="fil90" d="M1310.27 5616.61l13.81 -13.45 33.41 23.3 -5.83 -43.74c31.07,-0.03 2.1,3.2 14.91,-15.99l-19.86 4.19c-2.85,7.2 -7.75,17.56 -11.4,21.32 -16.82,17.32 1.6,-18.24 -25.04,24.37z"/>
     <polygon class="fil91" points="2035.59,5531.85 2050.78,5514.35 2034.34,5503.21 "/>
     <path class="fil92" d="M1898.75 5342.33c-11.71,-34.36 -2.37,-14.02 -19.15,-22.7l19.15 22.7z"/>
    </g>
    <g>
     <path class="fil1" d="M770.38 2518.11c30.32,13.34 70.49,31.65 92.29,49.27 29.25,4.79 39.47,-13.7 70.08,-29.09 -26.83,8.95 -7.56,6.09 -13.89,-9.08 38.47,-19.59 12.05,2.58 19.02,-29.4l-34 8.06c17.53,-56.14 51.76,-86.05 59.94,-136.84l-8.88 -5.61c-36.26,23.9 -40.28,96.57 -77.44,119.03 -10.23,-13.21 -13.17,13.84 -8.76,-22.91 0.94,-7.87 6.84,-11.83 10.09,-32.89 9.44,-21.91 17.69,-18.23 -4.96,-20.02 -16.66,23.67 -14.97,36.72 -40.38,51.49 -2.95,-5.28 -26.31,10.32 11.91,-56.6 10.15,-17.78 20.77,-36.73 30.92,-54.16 17.95,-30.8 57.37,-85.76 57.67,-115.5l-9.33 -12.59c-34.67,42.99 -94.87,201.01 -132.65,216.94 -22.47,-34.8 98.86,-181.64 104.91,-235.08l-7.25 -12.26c-42.27,31.04 -91.01,202.66 -143.49,226.64 -9.62,-31.4 93.88,-197.21 115.68,-234.69 26.04,-44.76 121.64,-204.92 126.71,-244.63 16.63,-24.8 33.93,-6.01 92.34,3.89l10.46 -31.81c4.31,-7.54 8.9,-9.18 16.44,-11.1l-3.26 -7.21c-62.41,-30.48 -151.39,-100.04 -215.61,-107.91 -14.12,52.29 -128.55,244.54 -163.01,304.31 -30.94,53.65 -161.48,268.79 -162.66,310.96l207.11 118.79z"/>
     <path class="fil13" d="M1220.67 2357.3l0.93 3.4 4.93 496.46c9.64,47.16 -4,9.98 16.72,26.07l152.62 -273.22c9.29,-33.88 41.18,-92.89 68.79,-114.94 5.92,-49.62 172.06,-319.25 206.84,-389.62l-15.4 -8.62 -435.43 260.47z"/>
     <path class="fil14" d="M932.75 2538.29c-30.61,15.39 -40.83,33.88 -70.08,29.09l1.4 11.61 -90.79 57.2c-7.34,-8.92 1.1,4.85 -10.7,-15.12 -0.81,-1.36 -2.97,-8.03 -3.82,-10.72l1.41 32.71c55.26,39.53 164.27,91 232.63,130.84 53.74,31.32 184.19,108.2 236.12,127.74l14.33 -18.41c-20.72,-16.09 -7.08,21.09 -16.72,-26.07l-4.93 -496.46 -288.85 177.59z"/>
     <path class="fil14" d="M1189.9 1933.7l0.86 12.02 26.23 17.81 3.68 393.77 435.43 -260.47 15.4 8.62 15.12 -19.81 -488.44 -253.58c18.39,3.68 8.26,-2.2 17.23,8.24l2.49 104.35 -28 -10.95z"/>
     <path class="fil93" d="M1177.59 2060.62l-7.24 -3.86c-29.11,95.88 -229.23,379.6 -232.47,443.05 -6.97,31.98 19.45,9.81 -19.02,29.4 6.33,15.17 -12.94,18.03 13.89,9.08l288.85 -177.59 -0.93 -3.4 -3.68 -393.77 -26.23 -17.81 -24.14 38.7c57.47,26.7 -15.3,-10.65 30.62,59.3 0,23.64 5.47,16.9 -19.65,16.9z"/>
     <path class="fil17" d="M988.57 1938.19l27.66 4.18 -126.56 248.5 7.25 12.26c33.34,-26.61 55.19,-87.74 77.13,-127.6 12.16,-22.12 25.16,-43.32 37.09,-65.36 17.02,-31.43 14.67,-49.1 45.05,-45 -4.08,43.63 -107.15,198.33 -131.53,256.1l9.33 12.59c54.1,-39.59 110,-237.58 162.09,-249.55 0.48,60.42 -193.25,336.37 -222.21,424.32 22.65,1.79 14.4,-1.89 4.96,20.02 43.22,-27.23 205.55,-391.68 249.49,-422.48 19.88,23.7 -11.57,55.12 -28.44,84.93l-144.94 274.32 8.88 5.61c31.82,-23.09 79.15,-134.51 104.37,-176.39 31.53,-52.38 80.83,-160.5 108.04,-163.36l1.36 29.34c25.12,0 19.65,6.74 19.65,-16.9 -45.92,-69.95 26.85,-32.6 -30.62,-59.3l24.14 -38.7 -0.86 -12.02 -82.09 -34.53c-7.54,1.92 -12.13,3.56 -16.44,11.1l-10.46 31.81c-58.41,-9.9 -75.71,-28.69 -92.34,-3.89z"/>
     <path class="fil4" d="M701.91 2393.96c38.79,-12.52 27.67,-19.15 45.07,-55.08l102.35 -177.82c26.27,-49.72 120.33,-201.44 126.65,-243.62 -33.11,2.27 -40.29,33.65 -79.5,105.66 -21.29,39.11 -45.36,79.92 -67.27,119.23 -29.42,52.79 -121.67,203.52 -127.3,251.63z"/>
     <path class="fil4" d="M896.92 2203.13c-6.05,53.44 -127.38,200.28 -104.91,235.08 37.78,-15.93 97.98,-173.95 132.65,-216.94 24.38,-57.77 127.45,-212.47 131.53,-256.1 -30.38,-4.1 -28.03,13.57 -45.05,45 -11.93,22.04 -24.93,43.24 -37.09,65.36 -21.94,39.86 -43.79,100.99 -77.13,127.6z"/>
     <path class="fil67" d="M878.83 2428.65c-3.25,21.06 -9.15,25.02 -10.09,32.89 -4.41,36.75 -1.47,9.7 8.76,22.91 37.16,-22.46 41.18,-95.13 77.44,-119.03l144.94 -274.32c16.87,-29.81 48.32,-61.23 28.44,-84.93 -43.94,30.8 -206.27,395.25 -249.49,422.48z"/>
     <path class="fil4" d="M963.82 2371.03c-8.18,50.79 -42.41,80.7 -59.94,136.84l34 -8.06c3.24,-63.45 203.36,-347.17 232.47,-443.05l7.24 3.86 -1.36 -29.34c-27.21,2.86 -76.51,110.98 -108.04,163.36 -25.22,41.88 -72.55,153.3 -104.37,176.39z"/>
     <path class="fil67" d="M889.67 2190.87l126.56 -248.5 -27.66 -4.18c-5.07,39.71 -100.67,199.87 -126.71,244.63 -21.8,37.48 -125.3,203.29 -115.68,234.69 52.48,-23.98 101.22,-195.6 143.49,-226.64z"/>
     <path class="fil67" d="M933.99 2233.86c-0.3,29.74 -39.72,84.7 -57.67,115.5 -10.15,17.43 -20.77,36.38 -30.92,54.16 -38.22,66.92 -14.86,51.32 -11.91,56.6 25.41,-14.77 23.72,-27.82 40.38,-51.49 28.96,-87.95 222.69,-363.9 222.21,-424.32 -52.09,11.97 -107.99,209.96 -162.09,249.55z"/>
     <path class="fil29" d="M758.76 2610.35c0.85,2.69 3.01,9.36 3.82,10.72 11.8,19.97 3.36,6.2 10.7,15.12l90.79 -57.2 -1.4 -11.61c-21.8,-17.62 -61.97,-35.93 -92.29,-49.27 -29.4,-10.1 -5.76,-4.78 -15.18,7.42l3.56 84.82z"/>
     <path class="fil29" d="M1163.71 1845.29l-30.57 20.85 -28.59 25.82 3.26 7.21 82.09 34.53 28 10.95 -2.49 -104.35c-8.97,-10.44 1.16,-4.56 -17.23,-8.24l-34.47 13.23z"/>
     <path class="fil41" d="M1395.87 2610.01c24.56,3.41 21.5,-4.57 21.5,12.66 36.1,-19.2 28.84,-8.27 67.82,-20.1l14.18 -71.49c-28.39,-13.52 -26.91,-12.71 -34.71,-36.01 -27.61,22.05 -59.5,81.06 -68.79,114.94z"/>
     <path class="fil4" d="M667 2369.01c28.26,-5.82 107.1,-163.92 114.91,-196.2 -41.84,15.39 -34.42,19.82 -72.29,93.64 -18.52,36.11 -53.47,67.33 -42.62,102.56z"/>
     <polygon class="fil91" points="1133.14,1866.14 1163.71,1845.29 "/>
    </g>
   </g>
  </g>
 </g>
</svg>
